<svg xmlns="http://www.w3.org/2000/svg" width="935.748" height="367.958" viewBox="0 0 247.583 97.355"><path d="M230.871 86.24h10.449v-4.1H230.87v4.1M209.893 94.761h6.29v-2.09h-6.29v2.09M214.028 86.32h4.184v-2.08h-4.184v2.08" fill="#f68712"/><path d="M214.028 92.67h2.136v-8.43h-2.136v8.43" fill="#f68712"/><path d="M214.043 90.5h4.185v-4.17h-4.185v4.17M211.99 82.156h4.178v-2.101h-4.178v2.101M211.99 84.277h4.178v-2.1h-4.178v2.1M233.442 38.305l-3.02 2.9.965-2.418c.482-.965.845-2.776.845-3.62 0-.605-.117-1.81-.241-2.173h-.24c0 1.812-1.088 3.017-2.175 4.344l-1.448 2.054c-.12-.123-.244-.605-.244-.966 0-1.689 1.21-3.26 1.21-5.07 0-1.089-.362-2.174-1.085-3.864l-1.088-2.9h-.12v4.468c0 2.173-.245 3.14-.604 4.226l-1.328 3.019c-.122-.846-.363-1.69-.968-2.294-.602-.725-1.328-2.778-1.567-3.863h-.243c-.123.846-.604 3.26-.604 4.95 0 2.052.847 4.226 1.931 5.916-3.621-.604-4.707-5.068-5.31-8.088h-.242c-.121.724-.845 3.621-.845 5.313 0 3.255 2.062 7.11 5.059 8.545l5.533.04c3.592-1.284 5.469-6.82 5.83-10.52M226.69 75.88h2.09v-2.09h-2.09v2.09M228.78 75.88h2.091v-2.09h-2.09v2.09" fill="#f68712"/><path d="M222.51 50.812h2.09v-2.089h-2.09v2.09M224.6 50.812h2.09v-2.089h-2.09v2.09" fill="#f68712"/><path d="M222.51 52.902h2.09v-2.09h-2.09v2.09M224.6 52.902h2.09v-2.09h-2.09v2.09M222.51 54.992h2.09v-2.09h-2.09v2.09M224.6 54.992h2.09v-2.09h-2.09v2.09M218.33 52.902h2.09v-2.09h-2.09v2.09" fill="#f68712"/><path d="M220.42 52.902h2.09v-2.09h-2.09v2.09M218.33 54.992h2.09v-2.09h-2.09v2.09" fill="#f68712"/><path d="M220.42 54.992h2.09v-2.09h-2.09v2.09M214.19 52.902h2.091v-2.09h-2.09v2.09M216.281 52.902h2.09v-2.09h-2.09v2.09M214.19 54.992h2.091v-2.09h-2.09v2.09M216.281 54.992h2.09v-2.09h-2.09v2.09M210.052 54.992h2.09v-2.09h-2.09v2.09" fill="#f68712"/><path d="M212.141 54.992h2.09v-2.09h-2.09v2.09M210.052 57.082h2.09v-2.09h-2.09v2.09" fill="#f68712"/><path d="M212.141 57.082h2.09v-2.09h-2.09v2.09M205.872 57.082h2.09v-2.09h-2.09v2.09" fill="#f68712"/><path d="M207.961 57.082h2.09v-2.09h-2.09v2.09M205.872 59.188h2.09v-2.091h-2.09v2.091" fill="#f68712"/><path d="M207.961 59.188h2.09v-2.091h-2.09v2.091M201.691 54.992h2.09v-2.09h-2.09v2.09M203.782 54.992h2.09v-2.09h-2.09v2.09M201.691 57.097h2.09v-2.09h-2.09v2.09M203.782 57.097h2.09v-2.09h-2.09v2.09M197.512 54.992h2.09v-2.09h-2.09v2.09" fill="#f68712"/><path d="M199.602 54.992h2.09v-2.09h-2.09v2.09M193.332 52.902h2.09v-2.09h-2.09v2.09M195.423 52.902h2.089v-2.09h-2.09v2.09M197.512 57.097h2.09v-2.09h-2.09v2.09M199.602 57.097h2.09v-2.09h-2.09v2.09M230.83 52.902h2.09v-2.09h-2.09v2.09" fill="#f68712"/><path d="M232.92 52.902h2.09v-2.09h-2.09v2.09M230.83 54.992h2.09v-2.09h-2.09v2.09" fill="#f68712"/><path d="M232.92 54.992h2.09v-2.09h-2.09v2.09M235.004 52.902h2.09v-2.09h-2.09v2.09" fill="#f68712"/><path d="M237.093 52.902h2.09v-2.09h-2.09v2.09M235.004 54.992h2.09v-2.09h-2.09v2.09" fill="#f68712"/><path d="M237.093 54.992h2.09v-2.09h-2.09v2.09M239.192 54.997h2.09v-2.09h-2.09v2.09M241.282 54.997h2.09v-2.09h-2.09v2.09M239.192 57.087h2.09v-2.09h-2.09v2.09M241.282 57.087h2.09v-2.09h-2.09v2.09M243.388 57.087h2.09v-2.09h-2.09v2.09M245.478 57.087h2.09v-2.09h-2.09v2.09" fill="#f68712"/><path d="M243.388 59.176h2.09v-2.09h-2.09v2.09M245.478 59.176h2.09v-2.09h-2.09v2.09M243.404 61.266h2.089v-2.09h-2.09v2.09M245.493 61.266h2.09v-2.09h-2.09v2.09M241.313 63.356h2.09v-2.09h-2.09v2.09M241.313 65.447h2.09v-2.09h-2.09v2.09" fill="#f68712"/><path d="M239.223 65.447h2.09v-2.09h-2.09v2.09M237.118 67.521h2.09v-2.09h-2.09v2.09M243.404 63.356h2.089v-2.09h-2.09v2.09M226.69 52.902h2.09v-2.09h-2.09v2.09M228.78 52.902h2.091v-2.09h-2.09v2.09M226.69 54.992h2.09v-2.09h-2.09v2.09M228.78 54.992h2.091v-2.09h-2.09v2.09M222.51 57.082h2.09v-2.09h-2.09v2.09M224.6 57.082h2.09v-2.09h-2.09v2.09" fill="#f68712"/><path d="M222.51 59.172h2.09v-2.09h-2.09v2.09M224.6 59.172h2.09v-2.09h-2.09v2.09M218.33 57.082h2.09v-2.09h-2.09v2.09" fill="#f68712"/><path d="M220.42 57.082h2.09v-2.09h-2.09v2.09" fill="#f68712"/><path d="M218.33 59.172h2.09v-2.09h-2.09v2.09" fill="#f68712"/><path d="M220.42 59.172h2.09v-2.09h-2.09v2.09M226.69 57.082h2.09v-2.09h-2.09v2.09M228.78 57.082h2.091v-2.09h-2.09v2.09" fill="#f68712"/><path d="M226.69 59.172h2.09v-2.09h-2.09v2.09M228.78 59.172h2.091v-2.09h-2.09v2.09M222.51 61.262h2.09v-2.09h-2.09v2.09M224.6 61.262h2.09v-2.09h-2.09v2.09M222.51 63.352h2.09v-2.09h-2.09v2.09M224.6 63.352h2.09v-2.09h-2.09v2.09M218.33 61.262h2.09v-2.09h-2.09v2.09" fill="#f68712"/><path d="M220.42 61.262h2.09v-2.09h-2.09v2.09M218.33 63.352h2.09v-2.09h-2.09v2.09" fill="#f68712"/><path d="M220.42 63.352h2.09v-2.09h-2.09v2.09M226.69 61.262h2.09v-2.09h-2.09v2.09M228.78 61.262h2.091v-2.09h-2.09v2.09M226.69 63.352h2.09v-2.09h-2.09v2.09M228.78 63.352h2.091v-2.09h-2.09v2.09M222.51 65.442h2.09v-2.09h-2.09v2.09M224.6 65.442h2.09v-2.09h-2.09v2.09M222.51 67.532h2.09v-2.09h-2.09v2.09M224.6 67.532h2.09v-2.09h-2.09v2.09" fill="#f68712"/><path d="M218.33 65.442h2.09v-2.09h-2.09v2.09" fill="#f68712"/><path d="M220.42 65.442h2.09v-2.09h-2.09v2.09M218.33 67.532h2.09v-2.09h-2.09v2.09" fill="#f68712"/><path d="M220.42 67.532h2.09v-2.09h-2.09v2.09M226.69 65.442h2.09v-2.09h-2.09v2.09M228.78 65.442h2.091v-2.09h-2.09v2.09M226.69 67.532h2.09v-2.09h-2.09v2.09M228.78 67.532h2.091v-2.09h-2.09v2.09M222.51 69.622h2.09v-2.09h-2.09v2.09M224.6 69.622h2.09v-2.09h-2.09v2.09M222.51 71.711h2.09v-2.089h-2.09v2.09M224.6 71.711h2.09v-2.089h-2.09v2.09M218.33 69.622h2.09v-2.09h-2.09v2.09" fill="#f68712"/><path d="M220.42 69.622h2.09v-2.09h-2.09v2.09M218.33 71.711h2.09v-2.089h-2.09v2.09" fill="#f68712"/><path d="M220.42 71.711h2.09v-2.089h-2.09v2.09M226.69 69.622h2.09v-2.09h-2.09v2.09M228.78 69.622h2.091v-2.09h-2.09v2.09M226.69 71.711h2.09v-2.089h-2.09v2.09M228.78 71.711h2.091v-2.089h-2.09v2.09M222.51 73.801h2.09v-2.09h-2.09v2.09M224.6 73.801h2.09v-2.09h-2.09v2.09" fill="#f68712"/><path d="M218.33 73.801h2.09v-2.09h-2.09v2.09" fill="#f68712"/><path d="M220.42 73.801h2.09v-2.09h-2.09v2.09M226.69 73.801h2.09v-2.09h-2.09v2.09M228.78 73.801h2.091v-2.09h-2.09v2.09M226.69 77.97h2.09v-2.09h-2.09v2.09M228.78 77.97h2.091v-2.09h-2.09v2.09M216.179 75.88h2.09v-2.09h-2.09v2.09" fill="#f68712"/><path d="M218.268 75.88h2.09v-2.09h-2.09v2.09M220.359 75.88h2.089v-2.09h-2.09v2.09M216.179 77.97h2.09v-2.09h-2.09v2.09" fill="#f68712"/><path d="M218.268 77.97h2.09v-2.09h-2.09v2.09M214.089 77.965h2.09v-2.09h-2.09v2.09M211.998 80.055h2.09v-2.09h-2.09v2.09M214.089 80.055h2.09v-2.09h-2.09v2.09" fill="#f68712"/><path d="M216.179 80.055h2.09v-2.09h-2.09v2.09M226.69 80.06h2.09v-2.09h-2.09v2.09M228.78 80.06h2.091v-2.09h-2.09v2.09M226.69 82.15h2.09v-2.09h-2.09v2.09M228.78 82.15h2.091v-2.09h-2.09v2.09M241.32 90.47h2.088v-6.29h-2.088v6.29" fill="#f68712"/><path d="M219.195 49.171c-7.462-1.384-8.694-5.795-8.694-12.918 0-4.587-1.088-7.244-2.053-9.055 1.69.242 3.017 1.57 4.346 3.5l.24-1.811c.245-1.93.606-3.742.606-5.673 0-2.174-.483-3.986-2.052-5.556 2.17.363 4.224 1.812 5.19 5.193h.243l.603-2.534c.364-1.331.846-2.9.846-4.227 0-1.932-.482-4.95-1.449-6.763 1.811.846 3.38 2.656 4.346 4.227.6-.966.967-3.26.967-4.466 0-1.33-.366-2.899-.366-3.745 0-2.896 2.439-3.935 2.439-5.343 0 5.01 2.313 9.244 3.721 11.14 1.245 1.674 1.86 6.35 1.86 6.35l.138 1.39.055-1.1v-.603c.117-.966.307-2.155.307-2.637 0-1.45-.79-3.522-1.273-4.367 2.295.603 4.587 4.226 5.193 6.278.722 2.295 1.086 4.712 1.086 6.884v3.258h.243c.358-.723 1.808-3.5 1.808-5.313 0-.601-.361-1.57-.723-2.052 2.656 1.57 3.62 5.676 3.62 8.331 0 .845-.123 1.811-.24 2.658l-.363 3.621c.48-.363 1.087-1.57 1.328-2.536.483.965.847 2.898.847 4.469 0 7.122-4.708 13.52-12.316 13.52-1.57 0-3.142-.362-4.467-.965 3.622-1.209 7.848-6.277 8.211-10.021l-3.02 2.9.965-2.418c.482-.965.845-2.776.845-3.62 0-.605-.117-1.81-.241-2.173h-.24c0 1.812-1.088 3.017-2.175 4.344l-1.448 2.054c-.12-.123-.244-.605-.244-.966 0-1.689 1.21-3.26 1.21-5.07 0-1.089-.362-2.174-1.085-3.864l-1.088-2.9h.121-.242v4.468c0 2.173-.244 3.14-.603 4.226l-1.328 3.019c-.122-.846-.363-1.69-.968-2.294-.602-.725-1.328-2.778-1.567-3.863h-.243c-.123.846-.604 3.26-.604 4.95 0 2.052.847 4.226 1.931 5.916-3.621-.604-4.707-5.068-5.31-8.088h-.242c-.121.724-.845 3.621-.845 5.313 0 3.62 2.776 7.362 6.278 8.45 0 0-.54.21-.874.336-.427.158-.836.21-1.275.271-.33.047-.397.02-.668.02-.27 0-.957-.081-1.287-.145M99.47 87.809l-.007-7.436 3.687-.002c.044 1.367.4 2.374 1.068 3.022.667.644 1.43.969 2.286.969a2.289 2.289 0 0 0 1.689-.704c.459-.465.688-1.012.69-1.641-.003-.672-.226-1.234-.672-1.689-.449-.455-1.267-.973-2.455-1.552-2.519-1.21-4.225-2.282-5.129-3.214-.899-.931-1.35-2.19-1.352-3.773-.002-1.91.592-3.387 1.782-4.439 1.19-1.047 2.542-1.574 4.058-1.576 1.733 0 3.077.676 4.028 2.028l-.003-1.818 3.689-.003.003 6.643-3.685.003c-.117-1.03-.469-1.824-1.056-2.386-.592-.56-1.277-.84-2.059-.84-.605 0-1.116.163-1.533.488-.418.323-.626.75-.624 1.273 0 .45.17.877.514 1.281.342.402 1.347.974 3.011 1.715 1.602.718 2.835 1.368 3.701 1.949a6.304 6.304 0 0 1 2.05 2.258c.505.925.756 1.995.756 3.208.002 2.156-.624 3.779-1.877 4.867-1.253 1.091-2.736 1.636-4.451 1.638-1.913 0-3.388-.708-4.424-2.12l.001 1.849-3.686.002M123.936 76.24h.849c1.947-.001 3.201-.32 3.762-.954.561-.633.84-1.42.84-2.364-.002-.796-.197-1.474-.584-2.035-.388-.557-.834-.904-1.336-1.035-.504-.131-1.328-.196-2.468-.193h-1.07zm3.053 7.86l.003 3.687-11.488.008-.001-3.687 2.77-.002-.01-14.442h-2.773l-.003-3.684 11.502-.01c2.678-.003 4.747.623 6.206 1.876 1.461 1.254 2.19 2.94 2.194 5.064 0 1.214-.256 2.313-.768 3.302-.51.988-1.169 1.745-1.969 2.274-.803.53-1.718.892-2.75 1.085-1.032.193-2.323.292-3.873.293l-2.092.002.004 4.236 3.048-.003" fill="#5a5758"/><path d="M145.752 77.136l-1.823-6.57-1.957 6.572zm9.863 6.938l.004 3.687-10.727.01-.002-3.689 2.799-.003-1.036-3.746-5.668.005-1.156 3.75 2.927-.003.003 3.686-9.689.009v-3.687l2.71-.003 4.242-14.445-2.913.002-.004-3.687 14.26-.011.003 3.686-2.937.002 4.594 14.438h2.59M165.763 74.71h1.952c2.416-.002 3.622-.859 3.62-2.572 0-.844-.275-1.475-.83-1.893-.549-.417-1.308-.625-2.274-.625l-2.471.003zm14.115 9.343l.002 3.687-6.656.006-4.938-9.564-2.522.002.006 5.881 2.743-.003.003 3.689-11.397.008-.003-3.686 2.986-.002-.012-14.443-2.985.001-.004-3.685 13.171-.012c2.479 0 4.265.62 5.36 1.869 1.097 1.245 1.644 2.658 1.646 4.235.002 2.474-1.26 4.283-3.783 5.422l3.548 6.596h2.835M194.176 87.729l-.004-3.688 2.538-.002-6.629-7.748 7.142-6.695-2.608.003v-3.688l10.631-.008.004 3.686-2.663.003-6.17 6.044 7.186 8.398 2.268-.002.004 3.685zm-12.858.01l-.004-3.687 2.923-.002-.01-14.442-2.925.003-.005-3.688 11.334-.01.004 3.687-2.74.002.012 14.442 2.528-.002.002 3.687-11.119.01M4.127 78.355c0 2.002.582 3.637 1.747 4.903 1.164 1.267 2.652 1.9 4.464 1.9 1.77 0 3.296-.636 4.576-1.91 1.28-1.274 1.92-2.91 1.92-4.914 0-2.029-.64-3.66-1.92-4.893-1.28-1.232-2.765-1.848-4.453-1.848-1.69 0-3.167.609-4.434 1.829-1.267 1.218-1.9 2.862-1.9 4.933zM24.21 68.262v3.454h-3.555v14.73c0 1.988-.102 3.463-.306 4.423-.204.96-.698 1.94-1.481 2.942-.784 1.001-1.958 1.841-3.525 2.523-1.566.68-3.316 1.021-5.25 1.021-2.915 0-5.517-.878-7.805-2.635l2.534-2.82c1.715 1.335 3.581 2.003 5.597 2.003 1.117 0 2.152-.215 3.106-.644.953-.43 1.665-.95 2.135-1.563.47-.612.773-1.195.909-1.747.136-.551.204-1.48.204-2.79v-1.796c-.613.776-1.573 1.512-2.88 2.206-1.308.695-2.738 1.042-4.29 1.042-2.834 0-5.143-.98-6.927-2.941C.892 83.707 0 81.298 0 78.436c0-3.131.984-5.661 2.952-7.59 1.968-1.927 4.247-2.89 6.834-2.89 2.615 0 4.944 1.042 6.987 3.125v-2.82h7.437M42.443 76.312c-.273-1.39-.995-2.645-2.166-3.77-1.171-1.123-2.608-1.685-4.31-1.685-1.553 0-2.881.508-3.984 1.522-1.104 1.014-1.778 2.326-2.023 3.933zm4.004 2.82h-16.63c.245 1.825.967 3.303 2.166 4.433 1.198 1.131 2.73 1.696 4.596 1.696 2.71 0 4.856-1.09 6.436-3.27l3.432 1.512c-1.116 1.73-2.567 3.015-4.351 3.852a13.026 13.026 0 0 1-5.598 1.256c-3.024 0-5.608-.942-7.754-2.83-2.145-1.886-3.217-4.43-3.217-7.63 0-3.037 1.044-5.537 3.135-7.498 2.091-1.962 4.492-2.942 7.202-2.942 2.657 0 5.064.957 7.223 2.87 2.158 1.914 3.279 4.764 3.36 8.55M66.153 76.312c-.273-1.39-.995-2.645-2.166-3.77-1.172-1.123-2.609-1.685-4.31-1.685-1.554 0-2.882.508-3.985 1.522-1.103 1.014-1.778 2.326-2.022 3.933zm4.004 2.82h-16.63c.245 1.825.967 3.303 2.165 4.433 1.199 1.131 2.73 1.696 4.597 1.696 2.71 0 4.855-1.09 6.436-3.27l3.432 1.512c-1.117 1.73-2.568 3.015-4.352 3.852a13.027 13.027 0 0 1-5.598 1.256c-3.023 0-5.608-.942-7.754-2.83-2.144-1.886-3.217-4.43-3.217-7.63 0-3.037 1.045-5.537 3.136-7.498 2.09-1.962 4.492-2.942 7.202-2.942 2.656 0 5.063.957 7.222 2.87 2.159 1.914 3.28 4.764 3.36 8.55M76.144 84.587V63.073h-3.555V59.62h7.437v17.754l7.396-5.904h-3.29v-3.208h10.93v3.208H92.04l-7.416 6.17 6.966 6.947h3.474v3.452h-5.087l-9.95-9.95v6.498h3.412v3.452H72.589v-3.452h3.555" fill="#5a5758"/><g><path d="M230.871 86.24h10.449v-4.1H230.87v4.1M209.893 94.761h6.29v-2.09h-6.29v2.09M214.028 86.32h4.184v-2.08h-4.184v2.08" fill="#f68712"/><path d="M214.028 92.67h2.136v-8.43h-2.136v8.43" fill="#f68712"/><path d="M214.043 90.5h4.185v-4.17h-4.185v4.17M211.99 82.156h4.178v-2.101h-4.178v2.101M211.99 84.277h4.178v-2.1h-4.178v2.1M233.442 38.305l-3.02 2.9.965-2.418c.482-.965.845-2.776.845-3.62 0-.605-.117-1.81-.241-2.173h-.24c0 1.812-1.088 3.017-2.175 4.344l-1.448 2.054c-.12-.123-.244-.605-.244-.966 0-1.689 1.21-3.26 1.21-5.07 0-1.089-.362-2.174-1.085-3.864l-1.088-2.9h-.12v4.468c0 2.173-.245 3.14-.604 4.226l-1.328 3.019c-.122-.846-.363-1.69-.968-2.294-.602-.725-1.328-2.778-1.567-3.863h-.243c-.123.846-.604 3.26-.604 4.95 0 2.052.847 4.226 1.931 5.916-3.621-.604-4.707-5.068-5.31-8.088h-.242c-.121.724-.845 3.621-.845 5.313 0 3.255 2.062 7.11 5.059 8.545l5.533.04c3.592-1.284 5.469-6.82 5.83-10.52M226.69 75.88h2.09v-2.09h-2.09v2.09M228.78 75.88h2.091v-2.09h-2.09v2.09" fill="#f68712"/><path d="M222.51 50.812h2.09v-2.089h-2.09v2.09M224.6 50.812h2.09v-2.089h-2.09v2.09" fill="#f68712"/><path d="M222.51 52.902h2.09v-2.09h-2.09v2.09M224.6 52.902h2.09v-2.09h-2.09v2.09M222.51 54.992h2.09v-2.09h-2.09v2.09M224.6 54.992h2.09v-2.09h-2.09v2.09M218.33 52.902h2.09v-2.09h-2.09v2.09" fill="#f68712"/><path d="M220.42 52.902h2.09v-2.09h-2.09v2.09M218.33 54.992h2.09v-2.09h-2.09v2.09" fill="#f68712"/><path d="M220.42 54.992h2.09v-2.09h-2.09v2.09M214.19 52.902h2.091v-2.09h-2.09v2.09M216.281 52.902h2.09v-2.09h-2.09v2.09M214.19 54.992h2.091v-2.09h-2.09v2.09M216.281 54.992h2.09v-2.09h-2.09v2.09M210.052 54.992h2.09v-2.09h-2.09v2.09" fill="#f68712"/><path d="M212.141 54.992h2.09v-2.09h-2.09v2.09M210.052 57.082h2.09v-2.09h-2.09v2.09" fill="#f68712"/><path d="M212.141 57.082h2.09v-2.09h-2.09v2.09M205.872 57.082h2.09v-2.09h-2.09v2.09" fill="#f68712"/><path d="M207.961 57.082h2.09v-2.09h-2.09v2.09M205.872 59.188h2.09v-2.091h-2.09v2.091" fill="#f68712"/><path d="M207.961 59.188h2.09v-2.091h-2.09v2.091M201.691 54.992h2.09v-2.09h-2.09v2.09M203.782 54.992h2.09v-2.09h-2.09v2.09M201.691 57.097h2.09v-2.09h-2.09v2.09M203.782 57.097h2.09v-2.09h-2.09v2.09M197.512 54.992h2.09v-2.09h-2.09v2.09" fill="#f68712"/><path d="M199.602 54.992h2.09v-2.09h-2.09v2.09M193.332 52.902h2.09v-2.09h-2.09v2.09M195.423 52.902h2.089v-2.09h-2.09v2.09M197.512 57.097h2.09v-2.09h-2.09v2.09M199.602 57.097h2.09v-2.09h-2.09v2.09M230.83 52.902h2.09v-2.09h-2.09v2.09" fill="#f68712"/><path d="M232.92 52.902h2.09v-2.09h-2.09v2.09M230.83 54.992h2.09v-2.09h-2.09v2.09" fill="#f68712"/><path d="M232.92 54.992h2.09v-2.09h-2.09v2.09M235.004 52.902h2.09v-2.09h-2.09v2.09" fill="#f68712"/><path d="M237.093 52.902h2.09v-2.09h-2.09v2.09M235.004 54.992h2.09v-2.09h-2.09v2.09" fill="#f68712"/><path d="M237.093 54.992h2.09v-2.09h-2.09v2.09M239.192 54.997h2.09v-2.09h-2.09v2.09M241.282 54.997h2.09v-2.09h-2.09v2.09M239.192 57.087h2.09v-2.09h-2.09v2.09M241.282 57.087h2.09v-2.09h-2.09v2.09M243.388 57.087h2.09v-2.09h-2.09v2.09M245.478 57.087h2.09v-2.09h-2.09v2.09" fill="#f68712"/><path d="M243.388 59.176h2.09v-2.09h-2.09v2.09M245.478 59.176h2.09v-2.09h-2.09v2.09M243.404 61.266h2.089v-2.09h-2.09v2.09M245.493 61.266h2.09v-2.09h-2.09v2.09M241.313 63.356h2.09v-2.09h-2.09v2.09M241.313 65.447h2.09v-2.09h-2.09v2.09" fill="#f68712"/><path d="M239.223 65.447h2.09v-2.09h-2.09v2.09M237.118 67.521h2.09v-2.09h-2.09v2.09M243.404 63.356h2.089v-2.09h-2.09v2.09M226.69 52.902h2.09v-2.09h-2.09v2.09M228.78 52.902h2.091v-2.09h-2.09v2.09M226.69 54.992h2.09v-2.09h-2.09v2.09M228.78 54.992h2.091v-2.09h-2.09v2.09M222.51 57.082h2.09v-2.09h-2.09v2.09M224.6 57.082h2.09v-2.09h-2.09v2.09" fill="#f68712"/><path d="M222.51 59.172h2.09v-2.09h-2.09v2.09M224.6 59.172h2.09v-2.09h-2.09v2.09M218.33 57.082h2.09v-2.09h-2.09v2.09" fill="#f68712"/><path d="M220.42 57.082h2.09v-2.09h-2.09v2.09" fill="#f68712"/><path d="M218.33 59.172h2.09v-2.09h-2.09v2.09" fill="#f68712"/><path d="M220.42 59.172h2.09v-2.09h-2.09v2.09M226.69 57.082h2.09v-2.09h-2.09v2.09M228.78 57.082h2.091v-2.09h-2.09v2.09" fill="#f68712"/><path d="M226.69 59.172h2.09v-2.09h-2.09v2.09M228.78 59.172h2.091v-2.09h-2.09v2.09M222.51 61.262h2.09v-2.09h-2.09v2.09M224.6 61.262h2.09v-2.09h-2.09v2.09M222.51 63.352h2.09v-2.09h-2.09v2.09M224.6 63.352h2.09v-2.09h-2.09v2.09M218.33 61.262h2.09v-2.09h-2.09v2.09" fill="#f68712"/><path d="M220.42 61.262h2.09v-2.09h-2.09v2.09M218.33 63.352h2.09v-2.09h-2.09v2.09" fill="#f68712"/><path d="M220.42 63.352h2.09v-2.09h-2.09v2.09M226.69 61.262h2.09v-2.09h-2.09v2.09M228.78 61.262h2.091v-2.09h-2.09v2.09M226.69 63.352h2.09v-2.09h-2.09v2.09M228.78 63.352h2.091v-2.09h-2.09v2.09M222.51 65.442h2.09v-2.09h-2.09v2.09M224.6 65.442h2.09v-2.09h-2.09v2.09M222.51 67.532h2.09v-2.09h-2.09v2.09M224.6 67.532h2.09v-2.09h-2.09v2.09" fill="#f68712"/><path d="M218.33 65.442h2.09v-2.09h-2.09v2.09" fill="#f68712"/><path d="M220.42 65.442h2.09v-2.09h-2.09v2.09M218.33 67.532h2.09v-2.09h-2.09v2.09" fill="#f68712"/><path d="M220.42 67.532h2.09v-2.09h-2.09v2.09M226.69 65.442h2.09v-2.09h-2.09v2.09M228.78 65.442h2.091v-2.09h-2.09v2.09M226.69 67.532h2.09v-2.09h-2.09v2.09M228.78 67.532h2.091v-2.09h-2.09v2.09M222.51 69.622h2.09v-2.09h-2.09v2.09M224.6 69.622h2.09v-2.09h-2.09v2.09M222.51 71.711h2.09v-2.089h-2.09v2.09M224.6 71.711h2.09v-2.089h-2.09v2.09M218.33 69.622h2.09v-2.09h-2.09v2.09" fill="#f68712"/><path d="M220.42 69.622h2.09v-2.09h-2.09v2.09M218.33 71.711h2.09v-2.089h-2.09v2.09" fill="#f68712"/><path d="M220.42 71.711h2.09v-2.089h-2.09v2.09M226.69 69.622h2.09v-2.09h-2.09v2.09M228.78 69.622h2.091v-2.09h-2.09v2.09M226.69 71.711h2.09v-2.089h-2.09v2.09M228.78 71.711h2.091v-2.089h-2.09v2.09M222.51 73.801h2.09v-2.09h-2.09v2.09M224.6 73.801h2.09v-2.09h-2.09v2.09" fill="#f68712"/><path d="M218.33 73.801h2.09v-2.09h-2.09v2.09" fill="#f68712"/><path d="M220.42 73.801h2.09v-2.09h-2.09v2.09M226.69 73.801h2.09v-2.09h-2.09v2.09M228.78 73.801h2.091v-2.09h-2.09v2.09M226.69 77.97h2.09v-2.09h-2.09v2.09M228.78 77.97h2.091v-2.09h-2.09v2.09M216.179 75.88h2.09v-2.09h-2.09v2.09" fill="#f68712"/><path d="M218.268 75.88h2.09v-2.09h-2.09v2.09M220.359 75.88h2.089v-2.09h-2.09v2.09M216.179 77.97h2.09v-2.09h-2.09v2.09" fill="#f68712"/><path d="M218.268 77.97h2.09v-2.09h-2.09v2.09M214.089 77.965h2.09v-2.09h-2.09v2.09M211.998 80.055h2.09v-2.09h-2.09v2.09M214.089 80.055h2.09v-2.09h-2.09v2.09" fill="#f68712"/><path d="M216.179 80.055h2.09v-2.09h-2.09v2.09M226.69 80.06h2.09v-2.09h-2.09v2.09M228.78 80.06h2.091v-2.09h-2.09v2.09M226.69 82.15h2.09v-2.09h-2.09v2.09M228.78 82.15h2.091v-2.09h-2.09v2.09M241.32 90.47h2.088v-6.29h-2.088v6.29" fill="#f68712"/><path d="M219.195 49.171c-7.462-1.384-8.694-5.795-8.694-12.918 0-4.587-1.088-7.244-2.053-9.055 1.69.242 3.017 1.57 4.346 3.5l.24-1.811c.245-1.93.606-3.742.606-5.673 0-2.174-.483-3.986-2.052-5.556 2.17.363 4.224 1.812 5.19 5.193h.243l.603-2.534c.364-1.331.846-2.9.846-4.227 0-1.932-.482-4.95-1.449-6.763 1.811.846 3.38 2.656 4.346 4.227.6-.966.967-3.26.967-4.466 0-1.33-.366-2.899-.366-3.745 0-2.896 2.439-3.935 2.439-5.343 0 5.01 2.313 9.244 3.721 11.14 1.245 1.674 1.86 6.35 1.86 6.35l.138 1.39.055-1.1v-.603c.117-.966.307-2.155.307-2.637 0-1.45-.79-3.522-1.273-4.367 2.295.603 4.587 4.226 5.193 6.278.722 2.295 1.086 4.712 1.086 6.884v3.258h.243c.358-.723 1.808-3.5 1.808-5.313 0-.601-.361-1.57-.723-2.052 2.656 1.57 3.62 5.676 3.62 8.331 0 .845-.123 1.811-.24 2.658l-.363 3.621c.48-.363 1.087-1.57 1.328-2.536.483.965.847 2.898.847 4.469 0 7.122-4.708 13.52-12.316 13.52-1.57 0-3.142-.362-4.467-.965 3.622-1.209 7.848-6.277 8.211-10.021l-3.02 2.9.965-2.418c.482-.965.845-2.776.845-3.62 0-.605-.117-1.81-.241-2.173h-.24c0 1.812-1.088 3.017-2.175 4.344l-1.448 2.054c-.12-.123-.244-.605-.244-.966 0-1.689 1.21-3.26 1.21-5.07 0-1.089-.362-2.174-1.085-3.864l-1.088-2.9h.121-.242v4.468c0 2.173-.244 3.14-.603 4.226l-1.328 3.019c-.122-.846-.363-1.69-.968-2.294-.602-.725-1.328-2.778-1.567-3.863h-.243c-.123.846-.604 3.26-.604 4.95 0 2.052.847 4.226 1.931 5.916-3.621-.604-4.707-5.068-5.31-8.088h-.242c-.121.724-.845 3.621-.845 5.313 0 3.62 2.776 7.362 6.278 8.45 0 0-.54.21-.874.336-.427.158-.836.21-1.275.271-.33.047-.397.02-.668.02-.27 0-.957-.081-1.287-.145M99.47 87.809l-.007-7.436 3.687-.002c.044 1.367.4 2.374 1.068 3.022.667.644 1.43.969 2.286.969a2.289 2.289 0 0 0 1.689-.704c.459-.465.688-1.012.69-1.641-.003-.672-.226-1.234-.672-1.689-.449-.455-1.267-.973-2.455-1.552-2.519-1.21-4.225-2.282-5.129-3.214-.899-.931-1.35-2.19-1.352-3.773-.002-1.91.592-3.387 1.782-4.439 1.19-1.047 2.542-1.574 4.058-1.576 1.733 0 3.077.676 4.028 2.028l-.003-1.818 3.689-.003.003 6.643-3.685.003c-.117-1.03-.469-1.824-1.056-2.386-.592-.56-1.277-.84-2.059-.84-.605 0-1.116.163-1.533.488-.418.323-.626.75-.624 1.273 0 .45.17.877.514 1.281.342.402 1.347.974 3.011 1.715 1.602.718 2.835 1.368 3.701 1.949a6.304 6.304 0 0 1 2.05 2.258c.505.925.756 1.995.756 3.208.002 2.156-.624 3.779-1.877 4.867-1.253 1.091-2.736 1.636-4.451 1.638-1.913 0-3.388-.708-4.424-2.12l.001 1.849-3.686.002M123.936 76.24h.849c1.947-.001 3.201-.32 3.762-.954.561-.633.84-1.42.84-2.364-.002-.796-.197-1.474-.584-2.035-.388-.557-.834-.904-1.336-1.035-.504-.131-1.328-.196-2.468-.193h-1.07zm3.053 7.86l.003 3.687-11.488.008-.001-3.687 2.77-.002-.01-14.442h-2.773l-.003-3.684 11.502-.01c2.678-.003 4.747.623 6.206 1.876 1.461 1.254 2.19 2.94 2.194 5.064 0 1.214-.256 2.313-.768 3.302-.51.988-1.169 1.745-1.969 2.274-.803.53-1.718.892-2.75 1.085-1.032.193-2.323.292-3.873.293l-2.092.002.004 4.236 3.048-.003" fill="#5a5758"/><path d="M145.752 77.136l-1.823-6.57-1.957 6.572zm9.863 6.938l.004 3.687-10.727.01-.002-3.689 2.799-.003-1.036-3.746-5.668.005-1.156 3.75 2.927-.003.003 3.686-9.689.009v-3.687l2.71-.003 4.242-14.445-2.913.002-.004-3.687 14.26-.011.003 3.686-2.937.002 4.594 14.438h2.59M165.763 74.71h1.952c2.416-.002 3.622-.859 3.62-2.572 0-.844-.275-1.475-.83-1.893-.549-.417-1.308-.625-2.274-.625l-2.471.003zm14.115 9.343l.002 3.687-6.656.006-4.938-9.564-2.522.002.006 5.881 2.743-.003.003 3.689-11.397.008-.003-3.686 2.986-.002-.012-14.443-2.985.001-.004-3.685 13.171-.012c2.479 0 4.265.62 5.36 1.869 1.097 1.245 1.644 2.658 1.646 4.235.002 2.474-1.26 4.283-3.783 5.422l3.548 6.596h2.835M194.176 87.729l-.004-3.688 2.538-.002-6.629-7.748 7.142-6.695-2.608.003v-3.688l10.631-.008.004 3.686-2.663.003-6.17 6.044 7.186 8.398 2.268-.002.004 3.685zm-12.858.01l-.004-3.687 2.923-.002-.01-14.442-2.925.003-.005-3.688 11.334-.01.004 3.687-2.74.002.012 14.442 2.528-.002.002 3.687-11.119.01M4.127 78.355c0 2.002.582 3.637 1.747 4.903 1.164 1.267 2.652 1.9 4.464 1.9 1.77 0 3.296-.636 4.576-1.91 1.28-1.274 1.92-2.91 1.92-4.914 0-2.029-.64-3.66-1.92-4.893-1.28-1.232-2.765-1.848-4.453-1.848-1.69 0-3.167.609-4.434 1.829-1.267 1.218-1.9 2.862-1.9 4.933zM24.21 68.262v3.454h-3.555v14.73c0 1.988-.102 3.463-.306 4.423-.204.96-.698 1.94-1.481 2.942-.784 1.001-1.958 1.841-3.525 2.523-1.566.68-3.316 1.021-5.25 1.021-2.915 0-5.517-.878-7.805-2.635l2.534-2.82c1.715 1.335 3.581 2.003 5.597 2.003 1.117 0 2.152-.215 3.106-.644.953-.43 1.665-.95 2.135-1.563.47-.612.773-1.195.909-1.747.136-.551.204-1.48.204-2.79v-1.796c-.613.776-1.573 1.512-2.88 2.206-1.308.695-2.738 1.042-4.29 1.042-2.834 0-5.143-.98-6.927-2.941C.892 83.707 0 81.298 0 78.436c0-3.131.984-5.661 2.952-7.59 1.968-1.927 4.247-2.89 6.834-2.89 2.615 0 4.944 1.042 6.987 3.125v-2.82h7.437M42.443 76.312c-.273-1.39-.995-2.645-2.166-3.77-1.171-1.123-2.608-1.685-4.31-1.685-1.553 0-2.881.508-3.984 1.522-1.104 1.014-1.778 2.326-2.023 3.933zm4.004 2.82h-16.63c.245 1.825.967 3.303 2.166 4.433 1.198 1.131 2.73 1.696 4.596 1.696 2.71 0 4.856-1.09 6.436-3.27l3.432 1.512c-1.116 1.73-2.567 3.015-4.351 3.852a13.026 13.026 0 0 1-5.598 1.256c-3.024 0-5.608-.942-7.754-2.83-2.145-1.886-3.217-4.43-3.217-7.63 0-3.037 1.044-5.537 3.135-7.498 2.091-1.962 4.492-2.942 7.202-2.942 2.657 0 5.064.957 7.223 2.87 2.158 1.914 3.279 4.764 3.36 8.55M66.153 76.312c-.273-1.39-.995-2.645-2.166-3.77-1.172-1.123-2.609-1.685-4.31-1.685-1.554 0-2.882.508-3.985 1.522-1.103 1.014-1.778 2.326-2.022 3.933zm4.004 2.82h-16.63c.245 1.825.967 3.303 2.165 4.433 1.199 1.131 2.73 1.696 4.597 1.696 2.71 0 4.855-1.09 6.436-3.27l3.432 1.512c-1.117 1.73-2.568 3.015-4.352 3.852a13.027 13.027 0 0 1-5.598 1.256c-3.023 0-5.608-.942-7.754-2.83-2.144-1.886-3.217-4.43-3.217-7.63 0-3.037 1.045-5.537 3.136-7.498 2.09-1.962 4.492-2.942 7.202-2.942 2.656 0 5.063.957 7.222 2.87 2.159 1.914 3.28 4.764 3.36 8.55M76.144 84.587V63.073h-3.555V59.62h7.437v17.754l7.396-5.904h-3.29v-3.208h10.93v3.208H92.04l-7.416 6.17 6.966 6.947h3.474v3.452h-5.087l-9.95-9.95v6.498h3.412v3.452H72.589v-3.452h3.555" fill="#5a5758"/></g><g><path d="M230.871 86.24h10.449v-4.1H230.87v4.1M209.893 94.761h6.29v-2.09h-6.29v2.09M214.028 86.32h4.184v-2.08h-4.184v2.08" fill="#f68712"/><path d="M214.028 92.67h2.136v-8.43h-2.136v8.43" fill="#f68712"/><path d="M214.043 90.5h4.185v-4.17h-4.185v4.17M211.99 82.156h4.178v-2.101h-4.178v2.101M211.99 84.277h4.178v-2.1h-4.178v2.1M233.442 38.305l-3.02 2.9.965-2.418c.482-.965.845-2.776.845-3.62 0-.605-.117-1.81-.241-2.173h-.24c0 1.812-1.088 3.017-2.175 4.344l-1.448 2.054c-.12-.123-.244-.605-.244-.966 0-1.689 1.21-3.26 1.21-5.07 0-1.089-.362-2.174-1.085-3.864l-1.088-2.9h-.12v4.468c0 2.173-.245 3.14-.604 4.226l-1.328 3.019c-.122-.846-.363-1.69-.968-2.294-.602-.725-1.328-2.778-1.567-3.863h-.243c-.123.846-.604 3.26-.604 4.95 0 2.052.847 4.226 1.931 5.916-3.621-.604-4.707-5.068-5.31-8.088h-.242c-.121.724-.845 3.621-.845 5.313 0 3.255 2.062 7.11 5.059 8.545l5.533.04c3.592-1.284 5.469-6.82 5.83-10.52M226.69 75.88h2.09v-2.09h-2.09v2.09M228.78 75.88h2.091v-2.09h-2.09v2.09" fill="#f68712"/><path d="M222.51 50.812h2.09v-2.089h-2.09v2.09M224.6 50.812h2.09v-2.089h-2.09v2.09" fill="#f68712"/><path d="M222.51 52.902h2.09v-2.09h-2.09v2.09M224.6 52.902h2.09v-2.09h-2.09v2.09M222.51 54.992h2.09v-2.09h-2.09v2.09M224.6 54.992h2.09v-2.09h-2.09v2.09M218.33 52.902h2.09v-2.09h-2.09v2.09" fill="#f68712"/><path d="M220.42 52.902h2.09v-2.09h-2.09v2.09M218.33 54.992h2.09v-2.09h-2.09v2.09" fill="#f68712"/><path d="M220.42 54.992h2.09v-2.09h-2.09v2.09M214.19 52.902h2.091v-2.09h-2.09v2.09M216.281 52.902h2.09v-2.09h-2.09v2.09M214.19 54.992h2.091v-2.09h-2.09v2.09M216.281 54.992h2.09v-2.09h-2.09v2.09M210.052 54.992h2.09v-2.09h-2.09v2.09" fill="#f68712"/><path d="M212.141 54.992h2.09v-2.09h-2.09v2.09M210.052 57.082h2.09v-2.09h-2.09v2.09" fill="#f68712"/><path d="M212.141 57.082h2.09v-2.09h-2.09v2.09M205.872 57.082h2.09v-2.09h-2.09v2.09" fill="#f68712"/><path d="M207.961 57.082h2.09v-2.09h-2.09v2.09M205.872 59.188h2.09v-2.091h-2.09v2.091" fill="#f68712"/><path d="M207.961 59.188h2.09v-2.091h-2.09v2.091M201.691 54.992h2.09v-2.09h-2.09v2.09M203.782 54.992h2.09v-2.09h-2.09v2.09M201.691 57.097h2.09v-2.09h-2.09v2.09M203.782 57.097h2.09v-2.09h-2.09v2.09M197.512 54.992h2.09v-2.09h-2.09v2.09" fill="#f68712"/><path d="M199.602 54.992h2.09v-2.09h-2.09v2.09M193.332 52.902h2.09v-2.09h-2.09v2.09M195.423 52.902h2.089v-2.09h-2.09v2.09M197.512 57.097h2.09v-2.09h-2.09v2.09M199.602 57.097h2.09v-2.09h-2.09v2.09M230.83 52.902h2.09v-2.09h-2.09v2.09" fill="#f68712"/><path d="M232.92 52.902h2.09v-2.09h-2.09v2.09M230.83 54.992h2.09v-2.09h-2.09v2.09" fill="#f68712"/><path d="M232.92 54.992h2.09v-2.09h-2.09v2.09M235.004 52.902h2.09v-2.09h-2.09v2.09" fill="#f68712"/><path d="M237.093 52.902h2.09v-2.09h-2.09v2.09M235.004 54.992h2.09v-2.09h-2.09v2.09" fill="#f68712"/><path d="M237.093 54.992h2.09v-2.09h-2.09v2.09M239.192 54.997h2.09v-2.09h-2.09v2.09M241.282 54.997h2.09v-2.09h-2.09v2.09M239.192 57.087h2.09v-2.09h-2.09v2.09M241.282 57.087h2.09v-2.09h-2.09v2.09M243.388 57.087h2.09v-2.09h-2.09v2.09M245.478 57.087h2.09v-2.09h-2.09v2.09" fill="#f68712"/><path d="M243.388 59.176h2.09v-2.09h-2.09v2.09M245.478 59.176h2.09v-2.09h-2.09v2.09M243.404 61.266h2.089v-2.09h-2.09v2.09M245.493 61.266h2.09v-2.09h-2.09v2.09M241.313 63.356h2.09v-2.09h-2.09v2.09M241.313 65.447h2.09v-2.09h-2.09v2.09" fill="#f68712"/><path d="M239.223 65.447h2.09v-2.09h-2.09v2.09M237.118 67.521h2.09v-2.09h-2.09v2.09M243.404 63.356h2.089v-2.09h-2.09v2.09M226.69 52.902h2.09v-2.09h-2.09v2.09M228.78 52.902h2.091v-2.09h-2.09v2.09M226.69 54.992h2.09v-2.09h-2.09v2.09M228.78 54.992h2.091v-2.09h-2.09v2.09M222.51 57.082h2.09v-2.09h-2.09v2.09M224.6 57.082h2.09v-2.09h-2.09v2.09" fill="#f68712"/><path d="M222.51 59.172h2.09v-2.09h-2.09v2.09M224.6 59.172h2.09v-2.09h-2.09v2.09M218.33 57.082h2.09v-2.09h-2.09v2.09" fill="#f68712"/><path d="M220.42 57.082h2.09v-2.09h-2.09v2.09" fill="#f68712"/><path d="M218.33 59.172h2.09v-2.09h-2.09v2.09" fill="#f68712"/><path d="M220.42 59.172h2.09v-2.09h-2.09v2.09M226.69 57.082h2.09v-2.09h-2.09v2.09M228.78 57.082h2.091v-2.09h-2.09v2.09" fill="#f68712"/><path d="M226.69 59.172h2.09v-2.09h-2.09v2.09M228.78 59.172h2.091v-2.09h-2.09v2.09M222.51 61.262h2.09v-2.09h-2.09v2.09M224.6 61.262h2.09v-2.09h-2.09v2.09M222.51 63.352h2.09v-2.09h-2.09v2.09M224.6 63.352h2.09v-2.09h-2.09v2.09M218.33 61.262h2.09v-2.09h-2.09v2.09" fill="#f68712"/><path d="M220.42 61.262h2.09v-2.09h-2.09v2.09M218.33 63.352h2.09v-2.09h-2.09v2.09" fill="#f68712"/><path d="M220.42 63.352h2.09v-2.09h-2.09v2.09M226.69 61.262h2.09v-2.09h-2.09v2.09M228.78 61.262h2.091v-2.09h-2.09v2.09M226.69 63.352h2.09v-2.09h-2.09v2.09M228.78 63.352h2.091v-2.09h-2.09v2.09M222.51 65.442h2.09v-2.09h-2.09v2.09M224.6 65.442h2.09v-2.09h-2.09v2.09M222.51 67.532h2.09v-2.09h-2.09v2.09M224.6 67.532h2.09v-2.09h-2.09v2.09" fill="#f68712"/><path d="M218.33 65.442h2.09v-2.09h-2.09v2.09" fill="#f68712"/><path d="M220.42 65.442h2.09v-2.09h-2.09v2.09M218.33 67.532h2.09v-2.09h-2.09v2.09" fill="#f68712"/><path d="M220.42 67.532h2.09v-2.09h-2.09v2.09M226.69 65.442h2.09v-2.09h-2.09v2.09M228.78 65.442h2.091v-2.09h-2.09v2.09M226.69 67.532h2.09v-2.09h-2.09v2.09M228.78 67.532h2.091v-2.09h-2.09v2.09M222.51 69.622h2.09v-2.09h-2.09v2.09M224.6 69.622h2.09v-2.09h-2.09v2.09M222.51 71.711h2.09v-2.089h-2.09v2.09M224.6 71.711h2.09v-2.089h-2.09v2.09M218.33 69.622h2.09v-2.09h-2.09v2.09" fill="#f68712"/><path d="M220.42 69.622h2.09v-2.09h-2.09v2.09M218.33 71.711h2.09v-2.089h-2.09v2.09" fill="#f68712"/><path d="M220.42 71.711h2.09v-2.089h-2.09v2.09M226.69 69.622h2.09v-2.09h-2.09v2.09M228.78 69.622h2.091v-2.09h-2.09v2.09M226.69 71.711h2.09v-2.089h-2.09v2.09M228.78 71.711h2.091v-2.089h-2.09v2.09M222.51 73.801h2.09v-2.09h-2.09v2.09M224.6 73.801h2.09v-2.09h-2.09v2.09" fill="#f68712"/><path d="M218.33 73.801h2.09v-2.09h-2.09v2.09" fill="#f68712"/><path d="M220.42 73.801h2.09v-2.09h-2.09v2.09M226.69 73.801h2.09v-2.09h-2.09v2.09M228.78 73.801h2.091v-2.09h-2.09v2.09M226.69 77.97h2.09v-2.09h-2.09v2.09M228.78 77.97h2.091v-2.09h-2.09v2.09M216.179 75.88h2.09v-2.09h-2.09v2.09" fill="#f68712"/><path d="M218.268 75.88h2.09v-2.09h-2.09v2.09M220.359 75.88h2.089v-2.09h-2.09v2.09M216.179 77.97h2.09v-2.09h-2.09v2.09" fill="#f68712"/><path d="M218.268 77.97h2.09v-2.09h-2.09v2.09M214.089 77.965h2.09v-2.09h-2.09v2.09M211.998 80.055h2.09v-2.09h-2.09v2.09M214.089 80.055h2.09v-2.09h-2.09v2.09" fill="#f68712"/><path d="M216.179 80.055h2.09v-2.09h-2.09v2.09M226.69 80.06h2.09v-2.09h-2.09v2.09M228.78 80.06h2.091v-2.09h-2.09v2.09M226.69 82.15h2.09v-2.09h-2.09v2.09M228.78 82.15h2.091v-2.09h-2.09v2.09M241.32 90.47h2.088v-6.29h-2.088v6.29" fill="#f68712"/><path d="M219.195 49.171c-7.462-1.384-8.694-5.795-8.694-12.918 0-4.587-1.088-7.244-2.053-9.055 1.69.242 3.017 1.57 4.346 3.5l.24-1.811c.245-1.93.606-3.742.606-5.673 0-2.174-.483-3.986-2.052-5.556 2.17.363 4.224 1.812 5.19 5.193h.243l.603-2.534c.364-1.331.846-2.9.846-4.227 0-1.932-.482-4.95-1.449-6.763 1.811.846 3.38 2.656 4.346 4.227.6-.966.967-3.26.967-4.466 0-1.33-.366-2.899-.366-3.745 0-2.896 2.439-3.935 2.439-5.343 0 5.01 2.313 9.244 3.721 11.14 1.245 1.674 1.86 6.35 1.86 6.35l.138 1.39.055-1.1v-.603c.117-.966.307-2.155.307-2.637 0-1.45-.79-3.522-1.273-4.367 2.295.603 4.587 4.226 5.193 6.278.722 2.295 1.086 4.712 1.086 6.884v3.258h.243c.358-.723 1.808-3.5 1.808-5.313 0-.601-.361-1.57-.723-2.052 2.656 1.57 3.62 5.676 3.62 8.331 0 .845-.123 1.811-.24 2.658l-.363 3.621c.48-.363 1.087-1.57 1.328-2.536.483.965.847 2.898.847 4.469 0 7.122-4.708 13.52-12.316 13.52-1.57 0-3.142-.362-4.467-.965 3.622-1.209 7.848-6.277 8.211-10.021l-3.02 2.9.965-2.418c.482-.965.845-2.776.845-3.62 0-.605-.117-1.81-.241-2.173h-.24c0 1.812-1.088 3.017-2.175 4.344l-1.448 2.054c-.12-.123-.244-.605-.244-.966 0-1.689 1.21-3.26 1.21-5.07 0-1.089-.362-2.174-1.085-3.864l-1.088-2.9h.121-.242v4.468c0 2.173-.244 3.14-.603 4.226l-1.328 3.019c-.122-.846-.363-1.69-.968-2.294-.602-.725-1.328-2.778-1.567-3.863h-.243c-.123.846-.604 3.26-.604 4.95 0 2.052.847 4.226 1.931 5.916-3.621-.604-4.707-5.068-5.31-8.088h-.242c-.121.724-.845 3.621-.845 5.313 0 3.62 2.776 7.362 6.278 8.45 0 0-.54.21-.874.336-.427.158-.836.21-1.275.271-.33.047-.397.02-.668.02-.27 0-.957-.081-1.287-.145M99.47 87.809l-.007-7.436 3.687-.002c.044 1.367.4 2.374 1.068 3.022.667.644 1.43.969 2.286.969a2.289 2.289 0 0 0 1.689-.704c.459-.465.688-1.012.69-1.641-.003-.672-.226-1.234-.672-1.689-.449-.455-1.267-.973-2.455-1.552-2.519-1.21-4.225-2.282-5.129-3.214-.899-.931-1.35-2.19-1.352-3.773-.002-1.91.592-3.387 1.782-4.439 1.19-1.047 2.542-1.574 4.058-1.576 1.733 0 3.077.676 4.028 2.028l-.003-1.818 3.689-.003.003 6.643-3.685.003c-.117-1.03-.469-1.824-1.056-2.386-.592-.56-1.277-.84-2.059-.84-.605 0-1.116.163-1.533.488-.418.323-.626.75-.624 1.273 0 .45.17.877.514 1.281.342.402 1.347.974 3.011 1.715 1.602.718 2.835 1.368 3.701 1.949a6.304 6.304 0 0 1 2.05 2.258c.505.925.756 1.995.756 3.208.002 2.156-.624 3.779-1.877 4.867-1.253 1.091-2.736 1.636-4.451 1.638-1.913 0-3.388-.708-4.424-2.12l.001 1.849-3.686.002M123.936 76.24h.849c1.947-.001 3.201-.32 3.762-.954.561-.633.84-1.42.84-2.364-.002-.796-.197-1.474-.584-2.035-.388-.557-.834-.904-1.336-1.035-.504-.131-1.328-.196-2.468-.193h-1.07zm3.053 7.86l.003 3.687-11.488.008-.001-3.687 2.77-.002-.01-14.442h-2.773l-.003-3.684 11.502-.01c2.678-.003 4.747.623 6.206 1.876 1.461 1.254 2.19 2.94 2.194 5.064 0 1.214-.256 2.313-.768 3.302-.51.988-1.169 1.745-1.969 2.274-.803.53-1.718.892-2.75 1.085-1.032.193-2.323.292-3.873.293l-2.092.002.004 4.236 3.048-.003" fill="#5a5758"/><path d="M145.752 77.136l-1.823-6.57-1.957 6.572zm9.863 6.938l.004 3.687-10.727.01-.002-3.689 2.799-.003-1.036-3.746-5.668.005-1.156 3.75 2.927-.003.003 3.686-9.689.009v-3.687l2.71-.003 4.242-14.445-2.913.002-.004-3.687 14.26-.011.003 3.686-2.937.002 4.594 14.438h2.59M165.763 74.71h1.952c2.416-.002 3.622-.859 3.62-2.572 0-.844-.275-1.475-.83-1.893-.549-.417-1.308-.625-2.274-.625l-2.471.003zm14.115 9.343l.002 3.687-6.656.006-4.938-9.564-2.522.002.006 5.881 2.743-.003.003 3.689-11.397.008-.003-3.686 2.986-.002-.012-14.443-2.985.001-.004-3.685 13.171-.012c2.479 0 4.265.62 5.36 1.869 1.097 1.245 1.644 2.658 1.646 4.235.002 2.474-1.26 4.283-3.783 5.422l3.548 6.596h2.835M194.176 87.729l-.004-3.688 2.538-.002-6.629-7.748 7.142-6.695-2.608.003v-3.688l10.631-.008.004 3.686-2.663.003-6.17 6.044 7.186 8.398 2.268-.002.004 3.685zm-12.858.01l-.004-3.687 2.923-.002-.01-14.442-2.925.003-.005-3.688 11.334-.01.004 3.687-2.74.002.012 14.442 2.528-.002.002 3.687-11.119.01M4.127 78.355c0 2.002.582 3.637 1.747 4.903 1.164 1.267 2.652 1.9 4.464 1.9 1.77 0 3.296-.636 4.576-1.91 1.28-1.274 1.92-2.91 1.92-4.914 0-2.029-.64-3.66-1.92-4.893-1.28-1.232-2.765-1.848-4.453-1.848-1.69 0-3.167.609-4.434 1.829-1.267 1.218-1.9 2.862-1.9 4.933zM24.21 68.262v3.454h-3.555v14.73c0 1.988-.102 3.463-.306 4.423-.204.96-.698 1.94-1.481 2.942-.784 1.001-1.958 1.841-3.525 2.523-1.566.68-3.316 1.021-5.25 1.021-2.915 0-5.517-.878-7.805-2.635l2.534-2.82c1.715 1.335 3.581 2.003 5.597 2.003 1.117 0 2.152-.215 3.106-.644.953-.43 1.665-.95 2.135-1.563.47-.612.773-1.195.909-1.747.136-.551.204-1.48.204-2.79v-1.796c-.613.776-1.573 1.512-2.88 2.206-1.308.695-2.738 1.042-4.29 1.042-2.834 0-5.143-.98-6.927-2.941C.892 83.707 0 81.298 0 78.436c0-3.131.984-5.661 2.952-7.59 1.968-1.927 4.247-2.89 6.834-2.89 2.615 0 4.944 1.042 6.987 3.125v-2.82h7.437M42.443 76.312c-.273-1.39-.995-2.645-2.166-3.77-1.171-1.123-2.608-1.685-4.31-1.685-1.553 0-2.881.508-3.984 1.522-1.104 1.014-1.778 2.326-2.023 3.933zm4.004 2.82h-16.63c.245 1.825.967 3.303 2.166 4.433 1.198 1.131 2.73 1.696 4.596 1.696 2.71 0 4.856-1.09 6.436-3.27l3.432 1.512c-1.116 1.73-2.567 3.015-4.351 3.852a13.026 13.026 0 0 1-5.598 1.256c-3.024 0-5.608-.942-7.754-2.83-2.145-1.886-3.217-4.43-3.217-7.63 0-3.037 1.044-5.537 3.135-7.498 2.091-1.962 4.492-2.942 7.202-2.942 2.657 0 5.064.957 7.223 2.87 2.158 1.914 3.279 4.764 3.36 8.55M66.153 76.312c-.273-1.39-.995-2.645-2.166-3.77-1.172-1.123-2.609-1.685-4.31-1.685-1.554 0-2.882.508-3.985 1.522-1.103 1.014-1.778 2.326-2.022 3.933zm4.004 2.82h-16.63c.245 1.825.967 3.303 2.165 4.433 1.199 1.131 2.73 1.696 4.597 1.696 2.71 0 4.855-1.09 6.436-3.27l3.432 1.512c-1.117 1.73-2.568 3.015-4.352 3.852a13.027 13.027 0 0 1-5.598 1.256c-3.023 0-5.608-.942-7.754-2.83-2.144-1.886-3.217-4.43-3.217-7.63 0-3.037 1.045-5.537 3.136-7.498 2.09-1.962 4.492-2.942 7.202-2.942 2.656 0 5.063.957 7.222 2.87 2.159 1.914 3.28 4.764 3.36 8.55M76.144 84.587V63.073h-3.555V59.62h7.437v17.754l7.396-5.904h-3.29v-3.208h10.93v3.208H92.04l-7.416 6.17 6.966 6.947h3.474v3.452h-5.087l-9.95-9.95v6.498h3.412v3.452H72.589v-3.452h3.555" fill="#5a5758"/></g></svg>