<svg xmlns="http://www.w3.org/2000/svg" width="288.914" height="207.235" viewBox="0 0 76.442 54.831"><defs><filter id="a" x="-.029" width="1.058" y="-.317" height="1.634" color-interpolation-filters="sRGB"><feGaussianBlur stdDeviation=".349"/></filter><filter id="b" x="-.029" width="1.058" y="-.317" height="1.634" color-interpolation-filters="sRGB"><feGaussianBlur stdDeviation=".349"/></filter><filter id="c" x="-.078" width="1.156" y="-1.162" height="3.325" color-interpolation-filters="sRGB"><feGaussianBlur stdDeviation=".927"/></filter><filter id="d" x="-.384" width="1.769" y="-.769" height="2.537" color-interpolation-filters="sRGB"><feGaussianBlur stdDeviation="6.921"/></filter></defs><path d="M23.49 24.715l2.646-2.646v2.646l2.646-2.646v2.646l2.646-2.646v2.646l2.646-2.646v2.646l2.646-2.646v2.646l2.646-2.646v2.646l2.645-2.646v2.646l2.646-2.646v2.646l2.646-2.646v2.646l2.646-2.646v2.646l2.646-2.646v2.646" fill="none" stroke="#2b1100" stroke-width=".265" stroke-linecap="round" stroke-linejoin="round"/><text style="-inkscape-font-specification:Comfortaa" x="80.129" y="131.411" font-size="9.696" font-family="Comfortaa" fill="#2b1100" stroke-width=".242" transform="translate(-56.688 -103.292)"><tspan x="80.129" y="131.411" style="-inkscape-font-specification:'Nimbus Mono L'" font-weight="400" font-size="3.232" font-family="Nimbus Mono L">IN ORANGE LIGHT</tspan></text><path d="M23.49 32.123l2.646-2.646v2.646l2.646-2.646v2.646l2.646-2.646v2.646l2.646-2.646v2.646l2.646-2.646v2.646l2.646-2.646v2.646l2.645-2.646v2.646l2.646-2.646v2.646l2.646-2.646v2.646l2.646-2.646v2.646l2.646-2.646v2.646" fill="none" stroke="#2b1100" stroke-width=".265" stroke-linecap="round" stroke-linejoin="round"/><g transform="translate(22.652 21.23)"><path transform="translate(-79.34 -124.523)" d="M80.178 128.007l2.646-2.646v2.646l2.646-2.646v2.646l2.646-2.646v2.646l2.646-2.646v2.646l2.645-2.646v2.646l2.646-2.646v2.646l2.646-2.646v2.646l2.646-2.646v2.646l2.646-2.646v2.646l2.646-2.646v2.646l2.645-2.646v2.646" fill="none" stroke="#ff7f2a" stroke-width=".265" stroke-linecap="round" stroke-linejoin="round" filter="url(#a)"/><path d="M.838 3.484L3.484.838v2.646L6.13.838v2.646L8.776.838v2.646L11.422.838v2.646L14.067.838v2.646L16.713.838v2.646L19.36.838v2.646L22.005.838v2.646L24.65.838v2.646L27.297.838v2.646L29.942.838v2.646M.838 10.892l2.646-2.645v2.645L6.13 8.247v2.645l2.646-2.645v2.645l2.646-2.645v2.645l2.645-2.645v2.645l2.646-2.645v2.645l2.646-2.645v2.645l2.646-2.645v2.645l2.646-2.645v2.645l2.646-2.645v2.645l2.645-2.645v2.645" fill="none" stroke="#ff7f2a" stroke-width=".265" stroke-linecap="round" stroke-linejoin="round"/><path transform="translate(-79.34 -124.523)" d="M80.178 135.415l2.646-2.646v2.646l2.646-2.646v2.646l2.646-2.646v2.646l2.646-2.646v2.646l2.645-2.646v2.646l2.646-2.646v2.646l2.646-2.646v2.646l2.646-2.646v2.646l2.646-2.646v2.646l2.646-2.646v2.646l2.645-2.646v2.646" fill="none" stroke="#ff7f2a" stroke-width=".265" stroke-linecap="round" stroke-linejoin="round" filter="url(#b)"/><text transform="translate(-79.34 -124.523)" y="131.411" x="80.129" style="-inkscape-font-specification:Comfortaa" font-size="9.696" font-family="Comfortaa" fill="#f60" stroke-width=".242" filter="url(#c)"><tspan style="-inkscape-font-specification:'Nimbus Mono L'" y="131.411" x="80.129" font-weight="400" font-size="3.232" font-family="Nimbus Mono L">IN ORANGE LIGHT</tspan></text><ellipse cx="15.568" cy="6.185" rx="21.611" ry="10.805" opacity=".99" fill="#e35a00" fill-opacity=".059" filter="url(#d)"/><text transform="translate(-79.34 -124.523)" y="131.411" x="80.129" style="-inkscape-font-specification:Comfortaa" font-size="9.696" font-family="Comfortaa" fill="#f60" stroke-width=".242"><tspan style="-inkscape-font-specification:'Nimbus Mono L'" y="131.411" x="80.129" font-weight="400" font-size="3.232" font-family="Nimbus Mono L">IN ORANGE LIGHT</tspan></text></g></svg>