<svg xmlns="http://www.w3.org/2000/svg" xmlns:xlink="http://www.w3.org/1999/xlink" width="1600" height="1200" viewBox="0 0 423.333 317.5" shape-rendering="crispEdges"><defs><linearGradient id="f"><stop offset="0" stop-color="#948787"/><stop offset="1" stop-color="#c8b7b7"/></linearGradient><linearGradient id="e"><stop offset="0" stop-color="#948787"/><stop offset="1" stop-color="#c8b7b7" stop-opacity=".992"/></linearGradient><linearGradient id="d"><stop offset="0" stop-color="#ff7f2a" stop-opacity=".148"/><stop offset="1" stop-color="#130e0e" stop-opacity="0"/></linearGradient><linearGradient id="c"><stop offset="0" stop-color="#561818"/><stop offset="1" stop-color="#782121"/></linearGradient><linearGradient id="b"><stop offset="0" stop-color="#dbdbe3"/><stop offset="1" stop-color="#8c8ca5"/></linearGradient><linearGradient id="a"><stop offset="0" stop-color="#04276f" stop-opacity=".941"/><stop offset="1" stop-color="#8aaad1"/></linearGradient><linearGradient xlink:href="#a" id="g" x1="205.619" y1="-20.5" x2="205.619" y2="201.769" gradientUnits="userSpaceOnUse"/><filter id="l" x="-.024" width="1.049" y="-.344" height="1.689" color-interpolation-filters="sRGB"><feGaussianBlur stdDeviation="1.764"/></filter><filter id="j" x="-.003" width="1.007" y="-.008" height="1.017" color-interpolation-filters="sRGB"><feGaussianBlur stdDeviation=".593"/></filter><filter id="i" x="-.007" width="1.014" y="-.015" height="1.03" color-interpolation-filters="sRGB"><feGaussianBlur stdDeviation="1.254"/></filter><filter id="h" x="-.011" width="1.023" y="-.02" height="1.04" color-interpolation-filters="sRGB"><feGaussianBlur stdDeviation="1.988"/></filter><filter id="k" x="-.003" width="1.006" y="-.011" height="1.021" color-interpolation-filters="sRGB"><feGaussianBlur stdDeviation=".548"/></filter><radialGradient xlink:href="#b" id="n" cx="356.049" cy="144.032" fx="356.049" fy="144.032" r="11.292" gradientTransform="matrix(1.35119 -.19643 .07996 .55003 -136.556 134.499)" gradientUnits="userSpaceOnUse"/><radialGradient xlink:href="#b" id="o" gradientUnits="userSpaceOnUse" gradientTransform="matrix(1.35119 -.19643 .07996 .55003 -136.556 134.499)" cx="350.837" cy="144.436" fx="350.837" fy="144.436" r="11.292"/><radialGradient xlink:href="#c" id="m" cx="1414.043" cy="358.181" fx="1414.043" fy="358.181" r="70.523" gradientTransform="matrix(1.26001 -2.25827 .91236 .50906 -694.712 3382.134)" gradientUnits="userSpaceOnUse"/><filter id="r" x="-.029" width="1.058" y="-.317" height="1.634" color-interpolation-filters="sRGB"><feGaussianBlur stdDeviation=".349"/></filter><filter id="q" x="-.029" width="1.058" y="-.317" height="1.634" color-interpolation-filters="sRGB"><feGaussianBlur stdDeviation=".349"/></filter><filter id="p" x="-.029" width="1.058" y="-.317" height="1.634" color-interpolation-filters="sRGB"><feGaussianBlur stdDeviation=".349"/></filter><filter id="s" x="-.748" width="2.496" y="-1.496" height="3.991" color-interpolation-filters="sRGB"><feGaussianBlur stdDeviation="10.468"/></filter><radialGradient xlink:href="#d" id="t" cx="209.423" cy="223.244" fx="209.423" fy="223.244" r="72.992" gradientTransform="matrix(2.65434 0 0 1.86586 -346.457 -208.325)" gradientUnits="userSpaceOnUse"/><linearGradient xlink:href="#f" id="u" gradientUnits="userSpaceOnUse" gradientTransform="matrix(1.58178 0 0 1.07855 -336.95 5.153)" x1="168.518" y1="330.736" x2="169.65" y2="331.044"/></defs><path fill="url(#g)" d="M0-20.5h423.333V297H0z" transform="translate(0 20.5)"/><path d="M0 93.678c7.496-6.106 18.771 6.682 28.405 5.866 11.08-.94 20.03-10.8 31.068-12.149 6.967-.851 13.863 2.54 20.88 2.722 9.885.257 19.69-2.517 29.578-2.304 9.849.212 19.52 4.358 29.34 3.56 2.925-.238 5.52-2.408 8.456-2.46 4.706-.08 9.018 2.879 13.687 3.473 9.65 1.23 16.627-.483 26.28.253 8.55.653 13.802-9.92 22.416-9.528 3.554.162 10.186 2.196 13.766 2.376 2.755.138 2.121-2.24 4.88-2.102 5.529.278 18.55 5.826 37.197 7.461 17.582 1.542 31.776-4.868 44.863-4.838 4.07.009 3 1.836 6.859 1.972 5.954.21 4.876-3.66 10.386-2.922 9.212 1.232 24.696-7.082 37.368-5.431 10.865 1.416 20.848 5.198 30.815 8.482 4.796 1.58 5.455-2.694 10.34-1.663 4.12.87 12.44 4.015 16.75 4.076V317.5H0z" transform="matrix(1.04057 0 0 1.02533 -8.587 -2.012)" fill="#4793d1" filter="url(#h)"/><path d="M0 116.505c21.586 1.045 22.762 3.577 34.25 4.22 3.258.181 6.382-1.796 9.798-1.637 1.635.076 3.955 2.448 5.624 2.52 10.383.445 20.742 3.271 32.253 3.53 8.608.192 11.47-.458 20.555-.375 9.424.085 16.985-4.822 26.826-4.834 1.372-.002 2.167 1.934 3.547 1.931 1.478-.003 3.494-3.078 4.98-3.082 1.554-.004 6.708 3.127 8.269 3.122 3.883-.01 19.899-2.619 23.814-2.638 5.034-.025 7.407.483 12.44.454 6.241-.037 17.538-4.389 23.762-4.434 3.119-.023 26.836 8.353 29.937 8.334 4.83-.03 12.382-3.248 19.213-4.011 3.113-.348 5.36 4.364 9.104 4.233 8.441-.294 51.57-7.923 59.446-8.223 20.507-.782 38.952 8.092 52.03 8.004 10.563-.071 16.465-5.91 22.385-6.65 4.281-.537 9.116 2.913 11.756 2.731 8.003-.553 9.335-2.412 13.344-3.195V317.5H0z" transform="matrix(1.04057 0 0 1.02533 -8.587 -2.012)" fill="#0d83cb" filter="url(#i)"/><path d="M0 149.444c12.805 5.17 39.86 12.434 60.297 11.478 3.898-.182 7.358-2.905 11.244-3.252 4.726-.422 9.426 1.818 14.158 1.47 5.693-.418 10.894-4.594 16.59-4.24 5.905.367 10.686 5.501 16.52 6.488 5.028.85 10.278-1.553 15.289-.6 11.49 2.187 20.54 12.415 32.106 14.16 11.746 1.772 23.57-5.218 35.399-4.118 3.317.308 6.227 2.675 9.546 2.965 3.13.274 6.247-1.683 9.349-1.189 15.915 2.537 28.712 14.754 43.688 20.708 4.023 1.6 8.498 2.04 12.351 4.014 5.722 2.93 9.838 8.463 15.557 11.397 11.29 5.793 23.847 8.857 36.184 11.823 31.187 7.498 95.055 14.96 95.055 14.96V317.5H0z" transform="matrix(1.04057 0 0 1.02533 -8.587 -2.012)" fill="#005ca5" filter="url(#j)"/><path d="M0 257.824c28.035-2.383 54.26-6.702 79.878-15.636 22.008-7.674 50.374-23.265 70.91-34.184 7.969-4.237 12.313-10.098 15.276-10.44 10.624-1.225 14.355-4.105 21.63-1.778 8.279 2.647 25.456 9.533 52.565 24.362 12.686 6.94 34.872 23.732 45.984 27.851 43.933 16.286 137.09 31.055 137.09 31.055V317.5H0z" transform="matrix(1.04057 0 0 1.02533 -8.587 -2.012)" fill="#01224d" filter="url(#k)"/><path d="M218.19 180.91c0 3.395-38.808 6.147-86.679 6.147s-86.679-2.752-86.679-6.147c0-1.393 6.534-2.678 17.546-3.708 15.827-1.482 40.904-2.439 69.133-2.439 47.871 0 86.679 2.752 86.679 6.147z" transform="matrix(1 0 0 1.09271 65.016 51.12)" fill="#c9d7f2" fill-opacity=".176" filter="url(#l)"/><g fill="#060c18"><path d="M423.333 61.59V317.5H163.34c70.093-23.287 130.149-126.564 169.98-196.12 3.052-5.329 4.973 8.95 7.796 3.822 24.258-44.079 39.917-79.523 44.652-85.02 1.462-1.462 7.268 5.423 9.715 6.322 1.302.479 3.754-4.61 4.804-3.863 8.847 6.288 16.043 18.95 23.047 18.95z"/><path d="M423.333 61.59V317.5H163.34c70.093-23.287 130.149-126.564 169.98-196.12 3.052-5.329 4.973 8.95 7.796 3.822 24.258-44.079 39.917-79.523 44.652-85.02 1.462-1.462 7.268 5.423 9.715 6.322 1.302.479 3.754-4.61 4.804-3.863 8.847 6.288 16.043 18.95 23.047 18.95z"/><path d="M339.65 126.366l-.764-.529-2.423-.133-.384 2.585 2.259.842zM322.149 140.79l-.538.929 1.538.201 2.244-.684-.961-1.725-2.079 1.067z"/></g><path d="M181.842 120.37l145.984 36.386v66.815H181.842z" fill="#081022" stroke="#012c63" stroke-width="1.401" stroke-linejoin="round"/><rect rx="3.673" transform="skewY(13.735) scale(.9714 1)" ry="1.949" y="74.028" x="181.214" height="3.898" width="159.859" fill="#004d8a"/><rect transform="matrix(.772 .63563 -.65748 .75347 0 0)" width="86.678" height="3.995" x="295.75" y="45.386" rx="0" ry="0" fill="#0064b5"/><rect ry="0" rx="0" y="47.731" x="295.815" height="4.03" width="86.799" transform="matrix(.7778 .6285 -.65767 .7533 0 0)" fill="#004d8a"/><rect ry="1.949" rx="3.673" y="221.399" x="178.2" height="4.062" width="152.92" fill="#004d8a"/><rect width="152.92" height="2.974" x="178.2" y="221.399" rx="3.673" ry="1.427" fill="#005ca5"/><rect width="159.818" height="3.82" x="181.167" y="73.654" ry="1.91" transform="matrix(.97166 .2364 0 1 0 0)" rx="3.672" fill="#005ca5"/><g transform="rotate(-61.499 346.334 61.981)"><rect ry="1.07" rx="1.076" y="77.145" x="312.181" height="24.03" width="32.974" fill="#241c1f"/><path d="M1326.557 236.695a11.284 11.284 0 0 0-9.942 5.922l-22.346 41.154a11.285 11.285 0 0 0 4.543 15.336l26.186 14.22-28.947 53.312a12.654 12.654 0 0 0 5.093 17.197l40.418 21.947a12.654 12.654 0 0 0 17.198-5.094l28.947-53.312 7.166 3.89a11.285 11.285 0 0 0 15.336-4.542l22.346-41.155a11.284 11.284 0 0 0-4.541-15.336l-18.31-9.941v-.002l-40.419-21.945-37.33-20.27a11.304 11.304 0 0 0-5.396-1.38z" transform="scale(.26458) rotate(61.499 1308.979 234.26)" fill="url(#m)"/><g transform="translate(-.067 .439)" fill="#3b2833"><rect ry="1" rx="1" y="80.042" x="330.296" height="17.783" width="1.999"/><rect transform="rotate(90)" width="1.999" height="17.783" x="95.826" y="-332.296" rx="1" ry="1"/></g><g transform="translate(-.303 .202)" fill="#48373e"><rect width="1.999" height="17.783" x="330.296" y="80.042" rx="1" ry="1"/><rect ry="1" rx="1" y="-332.296" x="95.826" height="17.783" width="1.999" transform="rotate(90)"/></g></g><rect transform="rotate(-10.715)" ry="0" rx="0" y="142.582" x="349.612" height="1.701" width="22.584" fill="url(#n)"/><circle r=".376" cy="75.82" cx="370.992" fill="#373748"/><circle cx="391.519" cy="71.944" r=".376" fill="#373748"/><g transform="rotate(93.006 349.74 82.684)"><rect width="22.584" height="1.701" x="349.612" y="142.582" rx="0" ry="0" transform="rotate(-10.715)" fill="url(#o)"/><circle cx="370.992" cy="75.82" r=".376" fill="#373748"/><circle r=".376" cy="71.944" cx="391.519" fill="#373748"/></g><g><circle cx="319.843" cy="69.153" r="5.67" opacity=".99" fill="#1c2422" fill-opacity=".12"/></g><g><rect ry=".524" rx=".57" y="198.395" x="190.669" height="19.598" width="36.396" opacity=".988" fill="#0f382f"/><rect width="33.596" height="16.798" x="192.068" y="199.795" rx=".527" ry=".449" opacity=".988" fill="#061512"/><path d="M194.172 204.225l2.646-2.646v2.646l2.646-2.646v2.646l2.646-2.646v2.646l2.646-2.646v2.646l2.646-2.646v2.646l2.645-2.646v2.646l2.646-2.646v2.646l2.646-2.646v2.646l2.646-2.646v2.646l2.646-2.646v2.646l2.646-2.646v2.646M194.172 209.517l2.646-2.646v2.646l2.646-2.646v2.646l2.646-2.646v2.646l2.646-2.646v2.646l2.646-2.646v2.646l2.645-2.646v2.646l2.646-2.646v2.646l2.646-2.646v2.646l2.646-2.646v2.646l2.646-2.646v2.646l2.646-2.646v2.646M194.172 214.808l2.646-2.646v2.646l2.646-2.646v2.646l2.646-2.646v2.646l2.646-2.646v2.646l2.646-2.646v2.646l2.645-2.646v2.646l2.646-2.646v2.646l2.646-2.646v2.646l2.646-2.646v2.646l2.646-2.646v2.646l2.646-2.646v2.646" fill="none" stroke="#130800" stroke-width=".265" stroke-linecap="round" stroke-linejoin="round"/></g><g><g fill="none" stroke="#ff7f2a" stroke-width=".265" stroke-linecap="round" stroke-linejoin="round"><path d="M194.172 204.225l2.646-2.646v2.646l2.646-2.646v2.646l2.646-2.646v2.646l2.646-2.646v2.646l2.646-2.646v2.646l2.645-2.646v2.646l2.646-2.646v2.646l2.646-2.646v2.646l2.646-2.646v2.646l2.646-2.646v2.646l2.646-2.646v2.646M194.172 209.517l2.646-2.646v2.646l2.646-2.646v2.646l2.646-2.646v2.646l2.646-2.646v2.646l2.646-2.646v2.646l2.645-2.646v2.646l2.646-2.646v2.646l2.646-2.646v2.646l2.646-2.646v2.646l2.646-2.646v2.646l2.646-2.646v2.646M194.172 214.808l2.646-2.646v2.646l2.646-2.646v2.646l2.646-2.646v2.646l2.646-2.646v2.646l2.646-2.646v2.646l2.645-2.646v2.646l2.646-2.646v2.646l2.646-2.646v2.646l2.646-2.646v2.646l2.646-2.646v2.646l2.646-2.646v2.646"/><path d="M194.172 204.225l2.646-2.646v2.646l2.646-2.646v2.646l2.646-2.646v2.646l2.646-2.646v2.646l2.646-2.646v2.646l2.645-2.646v2.646l2.646-2.646v2.646l2.646-2.646v2.646l2.646-2.646v2.646l2.646-2.646v2.646l2.646-2.646v2.646" filter="url(#p)"/><path d="M194.172 209.517l2.646-2.646v2.646l2.646-2.646v2.646l2.646-2.646v2.646l2.646-2.646v2.646l2.646-2.646v2.646l2.645-2.646v2.646l2.646-2.646v2.646l2.646-2.646v2.646l2.646-2.646v2.646l2.646-2.646v2.646l2.646-2.646v2.646" filter="url(#q)"/><path d="M194.172 214.808l2.646-2.646v2.646l2.646-2.646v2.646l2.646-2.646v2.646l2.646-2.646v2.646l2.646-2.646v2.646l2.645-2.646v2.646l2.646-2.646v2.646l2.646-2.646v2.646l2.646-2.646v2.646l2.646-2.646v2.646l2.646-2.646v2.646" filter="url(#r)"/></g></g><g><rect transform="matrix(.95085 0 0 .66413 9.388 67.645)" ry="1.701" rx="3.356" y="199.795" x="192.068" height="16.798" width="33.596" opacity=".988" fill="#f60" fill-opacity=".604" filter="url(#s)"/><path d="M181.842 120.37l145.984 36.386v66.815H181.842z" fill="url(#t)"/></g><g><g transform="matrix(-1 0 0 1 630.162 0)"><rect width="15.875" height="15.875" x="308.24" y="205.052" rx=".654" ry=".654" opacity=".99" fill="#a00"/><path d="M321.469 218.281l-10.584-10.583M310.885 218.281l10.584-10.583" fill="none" stroke="#870000" stroke-width="1.1" stroke-linecap="round" stroke-linejoin="round"/><path transform="rotate(-67.84) skewX(-.043)" d="M-70.069 359.104h1.256v3.14h-1.256zm.237 2.405l1.019.734-2.69 3.735-1.018-.735z" opacity=".99" fill="url(#u)"/><path d="M313.531 202.406c-5.291 2.646 0 0-5.291 2.7v1.215c0 .03.291.054.654.054h14.566c.363 0 .655-.024.655-.054v-1.215c-2.646-2.7 0-.054-2.646-2.7zm1.059.53h6.085l.794.793h-7.673z" opacity=".99" fill="#a00"/></g></g><g><rect ry="0" y="164.015" x="213.519" height="26.459" width="41.804" opacity=".99" fill="#784421"/><path opacity=".99" fill="#502d16" d="M234.284 164.015h.282v26.459h-.282z"/><path d="M236.884 186.573h.894l-.298.316v.965l.298.316h-.894l.298-.317v-.96zM231.027 186.573h.978l-.326.316v.965l.326.316h-.978l.326-.317v-.96z" opacity=".99" fill="#241f1c"/></g><g><g transform="matrix(1.89011 0 0 1.89011 -249.051 -192.687)"><g transform="translate(1.173 -2.173)" fill="#045"><rect ry=".271" rx=".271" y="203.729" x="280.458" height="7.938" width="3.969" opacity=".99"/><rect ry=".271" rx=".271" y="209.021" x="272.521" height="2.646" width="10.583" opacity=".99"/><rect ry=".271" rx=".271" y="212.99" x="265.906" height="2.646" width="7.938" opacity=".99"/><rect ry=".339" rx=".271" y="214.313" x="265.906" height="6.615" width="2.646" opacity=".99"/><rect ry=".271" rx=".271" y="219.604" x="264.583" height="1.323" width="2.646" opacity=".99"/></g><rect width="17.213" height="9.26" x="271.048" y="208.17" rx=".238" ry=".275" opacity=".99" fill="#08a"/><path d="M285.863 205.239H288c.138 0 .262.127.262.286v5.005c0 .159-.062.286-.14.286h-4.201c-.077 0-.19-.142-.139-.286l1.77-5.005c.052-.144.13-.286.31-.286z" opacity=".99" fill="#08a"/></g><rect ry="0" rx="0" y="216.958" x="265.906" height="3.969" width="2.646" opacity=".99" fill="#08a"/><rect width="2.646" height="3.969" x="291.042" y="216.958" rx="0" ry="0" opacity=".99" fill="#08a"/></g></svg>