<svg xmlns="http://www.w3.org/2000/svg" width="210mm" height="297mm" viewBox="0 0 210 297"><text style="line-height:1.25;-inkscape-font-specification:'Bree Serif'" x="123.315" y="28.448" font-weight="400" font-size="10.583" font-family="Bree Serif" letter-spacing="0" word-spacing="0" stroke-width=".265"><tspan x="123.315" y="28.448">DIGITAL</tspan></text><text style="line-height:1.25;-inkscape-font-specification:'Bree Serif'" x="108.857" y="36.466" font-weight="400" font-size="10.583" font-family="Bree Serif" letter-spacing="0" word-spacing="0" stroke-width=".265"><tspan x="108.857" y="36.466">MOTION</tspan></text><g font-weight="400" font-family="Bree Serif" letter-spacing="0" word-spacing="0"><text y="166.278" x="120.373" style="line-height:1.25;-inkscape-font-specification:'Bree Serif'" font-size="12.806" stroke-width=".32"><tspan y="166.278" x="120.373">1D PONG</tspan></text><text y="172.257" x="97.248" style="line-height:1.25;-inkscape-font-specification:'Bree Serif'" font-size="24.9" stroke-width=".623"><tspan y="172.257" x="97.248" letter-spacing=".09">........... .....</tspan></text><path d="M160.994 170.863c0 1.046.623 1.768 1.868 1.768 1.12 0 1.768-.797 1.768-1.793 0-1.046-.673-1.768-1.868-1.768-1.095 0-1.768.772-1.768 1.793z" aria-label="." font-size="24.9" fill="none" stroke="#000" stroke-width=".523"/></g><g font-weight="400" font-size="24.9" font-family="Bree Serif" letter-spacing="0" word-spacing="0" stroke-width=".523"><path d="M176.958 198.833c0 1.046.622 1.768 1.867 1.768 1.12 0 1.768-.797 1.768-1.793 0-1.046-.672-1.768-1.868-1.768-1.095 0-1.767.772-1.767 1.793zM171.943 198.833c0 1.046.623 1.768 1.868 1.768 1.12 0 1.767-.797 1.767-1.793 0-1.046-.672-1.768-1.867-1.768-1.096 0-1.768.772-1.768 1.793zM166.929 198.833c0 1.046.622 1.768 1.867 1.768 1.12 0 1.768-.797 1.768-1.793 0-1.046-.672-1.768-1.868-1.768-1.095 0-1.767.772-1.767 1.793zM161.914 198.833c0 1.046.623 1.768 1.868 1.768 1.12 0 1.768-.797 1.768-1.793 0-1.046-.673-1.768-1.868-1.768-1.096 0-1.768.772-1.768 1.793zM156.9 198.833c0 1.046.622 1.768 1.867 1.768 1.12 0 1.768-.797 1.768-1.793 0-1.046-.672-1.768-1.867-1.768-1.096 0-1.768.772-1.768 1.793zM151.885 198.833c0 1.046.623 1.768 1.868 1.768 1.12 0 1.768-.797 1.768-1.793 0-1.046-.673-1.768-1.868-1.768-1.096 0-1.768.772-1.768 1.793zM146.87 198.833c0 1.046.623 1.768 1.868 1.768 1.12 0 1.768-.797 1.768-1.793 0-1.046-.672-1.768-1.867-1.768-1.096 0-1.768.772-1.768 1.793zM141.856 198.833c0 1.046.623 1.768 1.868 1.768 1.12 0 1.768-.797 1.768-1.793 0-1.046-.673-1.768-1.868-1.768-1.096 0-1.768.772-1.768 1.793zM136.842 198.833c0 1.046.622 1.768 1.867 1.768 1.12 0 1.768-.797 1.768-1.793 0-1.046-.672-1.768-1.867-1.768-1.096 0-1.768.772-1.768 1.793zM131.827 198.833c0 1.046.623 1.768 1.868 1.768 1.12 0 1.768-.797 1.768-1.793 0-1.046-.673-1.768-1.868-1.768-1.096 0-1.768.772-1.768 1.793zM126.813 198.833c0 1.046.622 1.768 1.867 1.768 1.12 0 1.768-.797 1.768-1.793 0-1.046-.672-1.768-1.867-1.768-1.096 0-1.768.772-1.768 1.793zM121.798 198.833c0 1.046.623 1.768 1.868 1.768 1.12 0 1.768-.797 1.768-1.793 0-1.046-.673-1.768-1.868-1.768-1.095 0-1.768.772-1.768 1.793zM116.784 198.833c0 1.046.622 1.768 1.867 1.768 1.12 0 1.768-.797 1.768-1.793 0-1.046-.672-1.768-1.867-1.768-1.096 0-1.768.772-1.768 1.793zM111.77 198.833c0 1.046.622 1.768 1.867 1.768 1.12 0 1.768-.797 1.768-1.793 0-1.046-.673-1.768-1.868-1.768-1.095 0-1.768.772-1.768 1.793zM106.755 198.833c0 1.046.622 1.768 1.867 1.768 1.12 0 1.768-.797 1.768-1.793 0-1.046-.672-1.768-1.867-1.768-1.096 0-1.768.772-1.768 1.793zM181.972 198.833c0 1.046.623 1.768 1.868 1.768 1.12 0 1.767-.797 1.767-1.793 0-1.046-.672-1.768-1.867-1.768-1.096 0-1.768.772-1.768 1.793z" aria-label="."/><g><path d="M176.958 203.626c0 1.046.622 1.768 1.867 1.768 1.12 0 1.768-.797 1.768-1.793 0-1.046-.672-1.768-1.868-1.768-1.095 0-1.767.772-1.767 1.793zM171.943 203.626c0 1.046.623 1.768 1.868 1.768 1.12 0 1.767-.797 1.767-1.793 0-1.046-.672-1.768-1.867-1.768-1.096 0-1.768.772-1.768 1.793zM166.929 203.626c0 1.046.622 1.768 1.867 1.768 1.12 0 1.768-.797 1.768-1.793 0-1.046-.672-1.768-1.868-1.768-1.095 0-1.767.772-1.767 1.793zM161.914 203.626c0 1.046.623 1.768 1.868 1.768 1.12 0 1.768-.797 1.768-1.793 0-1.046-.673-1.768-1.868-1.768-1.096 0-1.768.772-1.768 1.793zM156.9 203.626c0 1.046.622 1.768 1.867 1.768 1.12 0 1.768-.797 1.768-1.793 0-1.046-.672-1.768-1.867-1.768-1.096 0-1.768.772-1.768 1.793zM151.885 203.626c0 1.046.623 1.768 1.868 1.768 1.12 0 1.768-.797 1.768-1.793 0-1.046-.673-1.768-1.868-1.768-1.096 0-1.768.772-1.768 1.793zM146.87 203.626c0 1.046.623 1.768 1.868 1.768 1.12 0 1.768-.797 1.768-1.793 0-1.046-.672-1.768-1.867-1.768-1.096 0-1.768.772-1.768 1.793zM141.856 203.626c0 1.046.623 1.768 1.868 1.768 1.12 0 1.768-.797 1.768-1.793 0-1.046-.673-1.768-1.868-1.768-1.096 0-1.768.772-1.768 1.793zM136.842 203.626c0 1.046.622 1.768 1.867 1.768 1.12 0 1.768-.797 1.768-1.793 0-1.046-.672-1.768-1.867-1.768-1.096 0-1.768.772-1.768 1.793zM131.827 203.626c0 1.046.623 1.768 1.868 1.768 1.12 0 1.768-.797 1.768-1.793 0-1.046-.673-1.768-1.868-1.768-1.096 0-1.768.772-1.768 1.793zM126.813 203.626c0 1.046.622 1.768 1.867 1.768 1.12 0 1.768-.797 1.768-1.793 0-1.046-.672-1.768-1.867-1.768-1.096 0-1.768.772-1.768 1.793zM121.798 203.626c0 1.046.623 1.768 1.868 1.768 1.12 0 1.768-.797 1.768-1.793 0-1.046-.673-1.768-1.868-1.768-1.095 0-1.768.772-1.768 1.793zM116.784 203.626c0 1.046.622 1.768 1.867 1.768 1.12 0 1.768-.797 1.768-1.793 0-1.046-.672-1.768-1.867-1.768-1.096 0-1.768.772-1.768 1.793zM111.77 203.626c0 1.046.622 1.768 1.867 1.768 1.12 0 1.768-.797 1.768-1.793 0-1.046-.673-1.768-1.868-1.768-1.095 0-1.768.772-1.768 1.793zM106.755 203.626c0 1.046.622 1.768 1.867 1.768 1.12 0 1.768-.797 1.768-1.793 0-1.046-.672-1.768-1.867-1.768-1.096 0-1.768.772-1.768 1.793zM181.972 203.626c0 1.046.623 1.768 1.868 1.768 1.12 0 1.767-.797 1.767-1.793 0-1.046-.672-1.768-1.867-1.768-1.096 0-1.768.772-1.768 1.793z" aria-label="."/></g><g><path d="M176.958 208.419c0 1.046.622 1.768 1.867 1.768 1.12 0 1.768-.797 1.768-1.793 0-1.046-.672-1.768-1.868-1.768-1.095 0-1.767.772-1.767 1.793zM171.943 208.419c0 1.046.623 1.768 1.868 1.768 1.12 0 1.767-.797 1.767-1.793 0-1.046-.672-1.768-1.867-1.768-1.096 0-1.768.772-1.768 1.793zM166.929 208.419c0 1.046.622 1.768 1.867 1.768 1.12 0 1.768-.797 1.768-1.793 0-1.046-.672-1.768-1.868-1.768-1.095 0-1.767.772-1.767 1.793zM161.914 208.419c0 1.046.623 1.768 1.868 1.768 1.12 0 1.768-.797 1.768-1.793 0-1.046-.673-1.768-1.868-1.768-1.096 0-1.768.772-1.768 1.793zM156.9 208.419c0 1.046.622 1.768 1.867 1.768 1.12 0 1.768-.797 1.768-1.793 0-1.046-.672-1.768-1.867-1.768-1.096 0-1.768.772-1.768 1.793zM151.885 208.419c0 1.046.623 1.768 1.868 1.768 1.12 0 1.768-.797 1.768-1.793 0-1.046-.673-1.768-1.868-1.768-1.096 0-1.768.772-1.768 1.793zM146.87 208.419c0 1.046.623 1.768 1.868 1.768 1.12 0 1.768-.797 1.768-1.793 0-1.046-.672-1.768-1.867-1.768-1.096 0-1.768.772-1.768 1.793zM141.856 208.419c0 1.046.623 1.768 1.868 1.768 1.12 0 1.768-.797 1.768-1.793 0-1.046-.673-1.768-1.868-1.768-1.096 0-1.768.772-1.768 1.793zM136.842 208.419c0 1.046.622 1.768 1.867 1.768 1.12 0 1.768-.797 1.768-1.793 0-1.046-.672-1.768-1.867-1.768-1.096 0-1.768.772-1.768 1.793zM131.827 208.419c0 1.046.623 1.768 1.868 1.768 1.12 0 1.768-.797 1.768-1.793 0-1.046-.673-1.768-1.868-1.768-1.096 0-1.768.772-1.768 1.793zM126.813 208.419c0 1.046.622 1.768 1.867 1.768 1.12 0 1.768-.797 1.768-1.793 0-1.046-.672-1.768-1.867-1.768-1.096 0-1.768.772-1.768 1.793zM121.798 208.419c0 1.046.623 1.768 1.868 1.768 1.12 0 1.768-.797 1.768-1.793 0-1.046-.673-1.768-1.868-1.768-1.095 0-1.768.772-1.768 1.793zM116.784 208.419c0 1.046.622 1.768 1.867 1.768 1.12 0 1.768-.797 1.768-1.793 0-1.046-.672-1.768-1.867-1.768-1.096 0-1.768.772-1.768 1.793zM111.77 208.419c0 1.046.622 1.768 1.867 1.768 1.12 0 1.768-.797 1.768-1.793 0-1.046-.673-1.768-1.868-1.768-1.095 0-1.768.772-1.768 1.793zM106.755 208.419c0 1.046.622 1.768 1.867 1.768 1.12 0 1.768-.797 1.768-1.793 0-1.046-.672-1.768-1.867-1.768-1.096 0-1.768.772-1.768 1.793zM181.972 208.419c0 1.046.623 1.768 1.868 1.768 1.12 0 1.767-.797 1.767-1.793 0-1.046-.672-1.768-1.867-1.768-1.096 0-1.768.772-1.768 1.793z" aria-label="."/></g><g><path d="M176.958 213.212c0 1.046.622 1.768 1.867 1.768 1.12 0 1.768-.797 1.768-1.793 0-1.046-.672-1.768-1.868-1.768-1.095 0-1.767.772-1.767 1.793zM171.943 213.212c0 1.046.623 1.768 1.868 1.768 1.12 0 1.767-.797 1.767-1.793 0-1.046-.672-1.768-1.867-1.768-1.096 0-1.768.772-1.768 1.793zM166.929 213.212c0 1.046.622 1.768 1.867 1.768 1.12 0 1.768-.797 1.768-1.793 0-1.046-.672-1.768-1.868-1.768-1.095 0-1.767.772-1.767 1.793zM161.914 213.212c0 1.046.623 1.768 1.868 1.768 1.12 0 1.768-.797 1.768-1.793 0-1.046-.673-1.768-1.868-1.768-1.096 0-1.768.772-1.768 1.793zM156.9 213.212c0 1.046.622 1.768 1.867 1.768 1.12 0 1.768-.797 1.768-1.793 0-1.046-.672-1.768-1.867-1.768-1.096 0-1.768.772-1.768 1.793zM151.885 213.212c0 1.046.623 1.768 1.868 1.768 1.12 0 1.768-.797 1.768-1.793 0-1.046-.673-1.768-1.868-1.768-1.096 0-1.768.772-1.768 1.793zM146.87 213.212c0 1.046.623 1.768 1.868 1.768 1.12 0 1.768-.797 1.768-1.793 0-1.046-.672-1.768-1.867-1.768-1.096 0-1.768.772-1.768 1.793zM141.856 213.212c0 1.046.623 1.768 1.868 1.768 1.12 0 1.768-.797 1.768-1.793 0-1.046-.673-1.768-1.868-1.768-1.096 0-1.768.772-1.768 1.793zM136.842 213.212c0 1.046.622 1.768 1.867 1.768 1.12 0 1.768-.797 1.768-1.793 0-1.046-.672-1.768-1.867-1.768-1.096 0-1.768.772-1.768 1.793zM131.827 213.212c0 1.046.623 1.768 1.868 1.768 1.12 0 1.768-.797 1.768-1.793 0-1.046-.673-1.768-1.868-1.768-1.096 0-1.768.772-1.768 1.793zM126.813 213.212c0 1.046.622 1.768 1.867 1.768 1.12 0 1.768-.797 1.768-1.793 0-1.046-.672-1.768-1.867-1.768-1.096 0-1.768.772-1.768 1.793zM121.798 213.212c0 1.046.623 1.768 1.868 1.768 1.12 0 1.768-.797 1.768-1.793 0-1.046-.673-1.768-1.868-1.768-1.095 0-1.768.772-1.768 1.793zM116.784 213.212c0 1.046.622 1.768 1.867 1.768 1.12 0 1.768-.797 1.768-1.793 0-1.046-.672-1.768-1.867-1.768-1.096 0-1.768.772-1.768 1.793zM111.77 213.212c0 1.046.622 1.768 1.867 1.768 1.12 0 1.768-.797 1.768-1.793 0-1.046-.673-1.768-1.868-1.768-1.095 0-1.768.772-1.768 1.793zM106.755 213.212c0 1.046.622 1.768 1.867 1.768 1.12 0 1.768-.797 1.768-1.793 0-1.046-.672-1.768-1.867-1.768-1.096 0-1.768.772-1.768 1.793zM181.972 213.212c0 1.046.623 1.768 1.868 1.768 1.12 0 1.767-.797 1.767-1.793 0-1.046-.672-1.768-1.867-1.768-1.096 0-1.768.772-1.768 1.793z" aria-label="."/></g><g><path d="M176.958 218.005c0 1.046.622 1.768 1.867 1.768 1.12 0 1.768-.797 1.768-1.793 0-1.046-.672-1.768-1.868-1.768-1.095 0-1.767.772-1.767 1.793zM171.943 218.005c0 1.046.623 1.768 1.868 1.768 1.12 0 1.767-.797 1.767-1.793 0-1.046-.672-1.768-1.867-1.768-1.096 0-1.768.772-1.768 1.793zM166.929 218.005c0 1.046.622 1.768 1.867 1.768 1.12 0 1.768-.797 1.768-1.793 0-1.046-.672-1.768-1.868-1.768-1.095 0-1.767.772-1.767 1.793zM161.914 218.005c0 1.046.623 1.768 1.868 1.768 1.12 0 1.768-.797 1.768-1.793 0-1.046-.673-1.768-1.868-1.768-1.096 0-1.768.772-1.768 1.793zM156.9 218.005c0 1.046.622 1.768 1.867 1.768 1.12 0 1.768-.797 1.768-1.793 0-1.046-.672-1.768-1.867-1.768-1.096 0-1.768.772-1.768 1.793zM151.885 218.005c0 1.046.623 1.768 1.868 1.768 1.12 0 1.768-.797 1.768-1.793 0-1.046-.673-1.768-1.868-1.768-1.096 0-1.768.772-1.768 1.793zM146.87 218.005c0 1.046.623 1.768 1.868 1.768 1.12 0 1.768-.797 1.768-1.793 0-1.046-.672-1.768-1.867-1.768-1.096 0-1.768.772-1.768 1.793zM141.856 218.005c0 1.046.623 1.768 1.868 1.768 1.12 0 1.768-.797 1.768-1.793 0-1.046-.673-1.768-1.868-1.768-1.096 0-1.768.772-1.768 1.793zM136.842 218.005c0 1.046.622 1.768 1.867 1.768 1.12 0 1.768-.797 1.768-1.793 0-1.046-.672-1.768-1.867-1.768-1.096 0-1.768.772-1.768 1.793zM131.827 218.005c0 1.046.623 1.768 1.868 1.768 1.12 0 1.768-.797 1.768-1.793 0-1.046-.673-1.768-1.868-1.768-1.096 0-1.768.772-1.768 1.793zM126.813 218.005c0 1.046.622 1.768 1.867 1.768 1.12 0 1.768-.797 1.768-1.793 0-1.046-.672-1.768-1.867-1.768-1.096 0-1.768.772-1.768 1.793zM121.798 218.005c0 1.046.623 1.768 1.868 1.768 1.12 0 1.768-.797 1.768-1.793 0-1.046-.673-1.768-1.868-1.768-1.095 0-1.768.772-1.768 1.793zM116.784 218.005c0 1.046.622 1.768 1.867 1.768 1.12 0 1.768-.797 1.768-1.793 0-1.046-.672-1.768-1.867-1.768-1.096 0-1.768.772-1.768 1.793zM111.77 218.005c0 1.046.622 1.768 1.867 1.768 1.12 0 1.768-.797 1.768-1.793 0-1.046-.673-1.768-1.868-1.768-1.095 0-1.768.772-1.768 1.793zM106.755 218.005c0 1.046.622 1.768 1.867 1.768 1.12 0 1.768-.797 1.768-1.793 0-1.046-.672-1.768-1.867-1.768-1.096 0-1.768.772-1.768 1.793zM181.972 218.005c0 1.046.623 1.768 1.868 1.768 1.12 0 1.767-.797 1.767-1.793 0-1.046-.672-1.768-1.867-1.768-1.096 0-1.768.772-1.768 1.793z" aria-label="."/></g><g><path d="M176.958 222.798c0 1.046.622 1.768 1.867 1.768 1.12 0 1.768-.797 1.768-1.793 0-1.046-.672-1.768-1.868-1.768-1.095 0-1.767.772-1.767 1.793zM171.943 222.798c0 1.046.623 1.768 1.868 1.768 1.12 0 1.767-.797 1.767-1.793 0-1.046-.672-1.768-1.867-1.768-1.096 0-1.768.772-1.768 1.793zM166.929 222.798c0 1.046.622 1.768 1.867 1.768 1.12 0 1.768-.797 1.768-1.793 0-1.046-.672-1.768-1.868-1.768-1.095 0-1.767.772-1.767 1.793zM161.914 222.798c0 1.046.623 1.768 1.868 1.768 1.12 0 1.768-.797 1.768-1.793 0-1.046-.673-1.768-1.868-1.768-1.096 0-1.768.772-1.768 1.793zM156.9 222.798c0 1.046.622 1.768 1.867 1.768 1.12 0 1.768-.797 1.768-1.793 0-1.046-.672-1.768-1.867-1.768-1.096 0-1.768.772-1.768 1.793zM151.885 222.798c0 1.046.623 1.768 1.868 1.768 1.12 0 1.768-.797 1.768-1.793 0-1.046-.673-1.768-1.868-1.768-1.096 0-1.768.772-1.768 1.793zM146.87 222.798c0 1.046.623 1.768 1.868 1.768 1.12 0 1.768-.797 1.768-1.793 0-1.046-.672-1.768-1.867-1.768-1.096 0-1.768.772-1.768 1.793zM141.856 222.798c0 1.046.623 1.768 1.868 1.768 1.12 0 1.768-.797 1.768-1.793 0-1.046-.673-1.768-1.868-1.768-1.096 0-1.768.772-1.768 1.793zM136.842 222.798c0 1.046.622 1.768 1.867 1.768 1.12 0 1.768-.797 1.768-1.793 0-1.046-.672-1.768-1.867-1.768-1.096 0-1.768.772-1.768 1.793zM131.827 222.798c0 1.046.623 1.768 1.868 1.768 1.12 0 1.768-.797 1.768-1.793 0-1.046-.673-1.768-1.868-1.768-1.096 0-1.768.772-1.768 1.793zM126.813 222.798c0 1.046.622 1.768 1.867 1.768 1.12 0 1.768-.797 1.768-1.793 0-1.046-.672-1.768-1.867-1.768-1.096 0-1.768.772-1.768 1.793zM121.798 222.798c0 1.046.623 1.768 1.868 1.768 1.12 0 1.768-.797 1.768-1.793 0-1.046-.673-1.768-1.868-1.768-1.095 0-1.768.772-1.768 1.793zM116.784 222.798c0 1.046.622 1.768 1.867 1.768 1.12 0 1.768-.797 1.768-1.793 0-1.046-.672-1.768-1.867-1.768-1.096 0-1.768.772-1.768 1.793zM111.77 222.798c0 1.046.622 1.768 1.867 1.768 1.12 0 1.768-.797 1.768-1.793 0-1.046-.673-1.768-1.868-1.768-1.095 0-1.768.772-1.768 1.793zM106.755 222.798c0 1.046.622 1.768 1.867 1.768 1.12 0 1.768-.797 1.768-1.793 0-1.046-.672-1.768-1.867-1.768-1.096 0-1.768.772-1.768 1.793zM181.972 222.798c0 1.046.623 1.768 1.868 1.768 1.12 0 1.767-.797 1.767-1.793 0-1.046-.672-1.768-1.867-1.768-1.096 0-1.768.772-1.768 1.793z" aria-label="."/></g><g><path d="M176.958 227.59c0 1.046.622 1.769 1.867 1.769 1.12 0 1.768-.797 1.768-1.793 0-1.046-.672-1.768-1.868-1.768-1.095 0-1.767.772-1.767 1.793zM171.943 227.59c0 1.046.623 1.769 1.868 1.769 1.12 0 1.767-.797 1.767-1.793 0-1.046-.672-1.768-1.867-1.768-1.096 0-1.768.772-1.768 1.793zM166.929 227.59c0 1.046.622 1.769 1.867 1.769 1.12 0 1.768-.797 1.768-1.793 0-1.046-.672-1.768-1.868-1.768-1.095 0-1.767.772-1.767 1.793zM161.914 227.59c0 1.046.623 1.769 1.868 1.769 1.12 0 1.768-.797 1.768-1.793 0-1.046-.673-1.768-1.868-1.768-1.096 0-1.768.772-1.768 1.793zM156.9 227.59c0 1.046.622 1.769 1.867 1.769 1.12 0 1.768-.797 1.768-1.793 0-1.046-.672-1.768-1.867-1.768-1.096 0-1.768.772-1.768 1.793zM151.885 227.59c0 1.046.623 1.769 1.868 1.769 1.12 0 1.768-.797 1.768-1.793 0-1.046-.673-1.768-1.868-1.768-1.096 0-1.768.772-1.768 1.793zM146.87 227.59c0 1.046.623 1.769 1.868 1.769 1.12 0 1.768-.797 1.768-1.793 0-1.046-.672-1.768-1.867-1.768-1.096 0-1.768.772-1.768 1.793zM141.856 227.59c0 1.046.623 1.769 1.868 1.769 1.12 0 1.768-.797 1.768-1.793 0-1.046-.673-1.768-1.868-1.768-1.096 0-1.768.772-1.768 1.793zM136.842 227.59c0 1.046.622 1.769 1.867 1.769 1.12 0 1.768-.797 1.768-1.793 0-1.046-.672-1.768-1.867-1.768-1.096 0-1.768.772-1.768 1.793zM131.827 227.59c0 1.046.623 1.769 1.868 1.769 1.12 0 1.768-.797 1.768-1.793 0-1.046-.673-1.768-1.868-1.768-1.096 0-1.768.772-1.768 1.793zM126.813 227.59c0 1.046.622 1.769 1.867 1.769 1.12 0 1.768-.797 1.768-1.793 0-1.046-.672-1.768-1.867-1.768-1.096 0-1.768.772-1.768 1.793zM121.798 227.59c0 1.046.623 1.769 1.868 1.769 1.12 0 1.768-.797 1.768-1.793 0-1.046-.673-1.768-1.868-1.768-1.095 0-1.768.772-1.768 1.793zM116.784 227.59c0 1.046.622 1.769 1.867 1.769 1.12 0 1.768-.797 1.768-1.793 0-1.046-.672-1.768-1.867-1.768-1.096 0-1.768.772-1.768 1.793zM111.77 227.59c0 1.046.622 1.769 1.867 1.769 1.12 0 1.768-.797 1.768-1.793 0-1.046-.673-1.768-1.868-1.768-1.095 0-1.768.772-1.768 1.793zM106.755 227.59c0 1.046.622 1.769 1.867 1.769 1.12 0 1.768-.797 1.768-1.793 0-1.046-.672-1.768-1.867-1.768-1.096 0-1.768.772-1.768 1.793zM181.972 227.59c0 1.046.623 1.769 1.868 1.769 1.12 0 1.767-.797 1.767-1.793 0-1.046-.672-1.768-1.867-1.768-1.096 0-1.768.772-1.768 1.793z" aria-label="."/></g><g><path d="M176.958 232.384c0 1.045.622 1.767 1.867 1.767 1.12 0 1.768-.796 1.768-1.792 0-1.046-.672-1.768-1.868-1.768-1.095 0-1.767.772-1.767 1.793zM171.943 232.384c0 1.045.623 1.767 1.868 1.767 1.12 0 1.767-.796 1.767-1.792 0-1.046-.672-1.768-1.867-1.768-1.096 0-1.768.772-1.768 1.793zM166.929 232.384c0 1.045.622 1.767 1.867 1.767 1.12 0 1.768-.796 1.768-1.792 0-1.046-.672-1.768-1.868-1.768-1.095 0-1.767.772-1.767 1.793zM161.914 232.384c0 1.045.623 1.767 1.868 1.767 1.12 0 1.768-.796 1.768-1.792 0-1.046-.673-1.768-1.868-1.768-1.096 0-1.768.772-1.768 1.793zM156.9 232.384c0 1.045.622 1.767 1.867 1.767 1.12 0 1.768-.796 1.768-1.792 0-1.046-.672-1.768-1.867-1.768-1.096 0-1.768.772-1.768 1.793zM151.885 232.384c0 1.045.623 1.767 1.868 1.767 1.12 0 1.768-.796 1.768-1.792 0-1.046-.673-1.768-1.868-1.768-1.096 0-1.768.772-1.768 1.793zM146.87 232.384c0 1.045.623 1.767 1.868 1.767 1.12 0 1.768-.796 1.768-1.792 0-1.046-.672-1.768-1.867-1.768-1.096 0-1.768.772-1.768 1.793zM141.856 232.384c0 1.045.623 1.767 1.868 1.767 1.12 0 1.768-.796 1.768-1.792 0-1.046-.673-1.768-1.868-1.768-1.096 0-1.768.772-1.768 1.793zM136.842 232.384c0 1.045.622 1.767 1.867 1.767 1.12 0 1.768-.796 1.768-1.792 0-1.046-.672-1.768-1.867-1.768-1.096 0-1.768.772-1.768 1.793zM131.827 232.384c0 1.045.623 1.767 1.868 1.767 1.12 0 1.768-.796 1.768-1.792 0-1.046-.673-1.768-1.868-1.768-1.096 0-1.768.772-1.768 1.793zM126.813 232.384c0 1.045.622 1.767 1.867 1.767 1.12 0 1.768-.796 1.768-1.792 0-1.046-.672-1.768-1.867-1.768-1.096 0-1.768.772-1.768 1.793zM121.798 232.384c0 1.045.623 1.767 1.868 1.767 1.12 0 1.768-.796 1.768-1.792 0-1.046-.673-1.768-1.868-1.768-1.095 0-1.768.772-1.768 1.793zM116.784 232.384c0 1.045.622 1.767 1.867 1.767 1.12 0 1.768-.796 1.768-1.792 0-1.046-.672-1.768-1.867-1.768-1.096 0-1.768.772-1.768 1.793zM111.77 232.384c0 1.045.622 1.767 1.867 1.767 1.12 0 1.768-.796 1.768-1.792 0-1.046-.673-1.768-1.868-1.768-1.095 0-1.768.772-1.768 1.793zM106.755 232.384c0 1.045.622 1.767 1.867 1.767 1.12 0 1.768-.796 1.768-1.792 0-1.046-.672-1.768-1.867-1.768-1.096 0-1.768.772-1.768 1.793zM181.972 232.384c0 1.045.623 1.767 1.868 1.767 1.12 0 1.767-.796 1.767-1.792 0-1.046-.672-1.768-1.867-1.768-1.096 0-1.768.772-1.768 1.793z" aria-label="."/></g><g><path d="M176.958 237.176c0 1.046.622 1.768 1.867 1.768 1.12 0 1.768-.796 1.768-1.792 0-1.046-.672-1.768-1.868-1.768-1.095 0-1.767.772-1.767 1.792zM171.943 237.176c0 1.046.623 1.768 1.868 1.768 1.12 0 1.767-.796 1.767-1.792 0-1.046-.672-1.768-1.867-1.768-1.096 0-1.768.772-1.768 1.792zM166.929 237.176c0 1.046.622 1.768 1.867 1.768 1.12 0 1.768-.796 1.768-1.792 0-1.046-.672-1.768-1.868-1.768-1.095 0-1.767.772-1.767 1.792zM161.914 237.176c0 1.046.623 1.768 1.868 1.768 1.12 0 1.768-.796 1.768-1.792 0-1.046-.673-1.768-1.868-1.768-1.096 0-1.768.772-1.768 1.792zM156.9 237.176c0 1.046.622 1.768 1.867 1.768 1.12 0 1.768-.796 1.768-1.792 0-1.046-.672-1.768-1.867-1.768-1.096 0-1.768.772-1.768 1.792zM151.885 237.176c0 1.046.623 1.768 1.868 1.768 1.12 0 1.768-.796 1.768-1.792 0-1.046-.673-1.768-1.868-1.768-1.096 0-1.768.772-1.768 1.792zM146.87 237.176c0 1.046.623 1.768 1.868 1.768 1.12 0 1.768-.796 1.768-1.792 0-1.046-.672-1.768-1.867-1.768-1.096 0-1.768.772-1.768 1.792zM141.856 237.176c0 1.046.623 1.768 1.868 1.768 1.12 0 1.768-.796 1.768-1.792 0-1.046-.673-1.768-1.868-1.768-1.096 0-1.768.772-1.768 1.792zM136.842 237.176c0 1.046.622 1.768 1.867 1.768 1.12 0 1.768-.796 1.768-1.792 0-1.046-.672-1.768-1.867-1.768-1.096 0-1.768.772-1.768 1.792zM131.827 237.176c0 1.046.623 1.768 1.868 1.768 1.12 0 1.768-.796 1.768-1.792 0-1.046-.673-1.768-1.868-1.768-1.096 0-1.768.772-1.768 1.792zM126.813 237.176c0 1.046.622 1.768 1.867 1.768 1.12 0 1.768-.796 1.768-1.792 0-1.046-.672-1.768-1.867-1.768-1.096 0-1.768.772-1.768 1.792zM121.798 237.176c0 1.046.623 1.768 1.868 1.768 1.12 0 1.768-.796 1.768-1.792 0-1.046-.673-1.768-1.868-1.768-1.095 0-1.768.772-1.768 1.792zM116.784 237.176c0 1.046.622 1.768 1.867 1.768 1.12 0 1.768-.796 1.768-1.792 0-1.046-.672-1.768-1.867-1.768-1.096 0-1.768.772-1.768 1.792zM111.77 237.176c0 1.046.622 1.768 1.867 1.768 1.12 0 1.768-.796 1.768-1.792 0-1.046-.673-1.768-1.868-1.768-1.095 0-1.768.772-1.768 1.792zM106.755 237.176c0 1.046.622 1.768 1.867 1.768 1.12 0 1.768-.796 1.768-1.792 0-1.046-.672-1.768-1.867-1.768-1.096 0-1.768.772-1.768 1.792zM181.972 237.176c0 1.046.623 1.768 1.868 1.768 1.12 0 1.767-.796 1.767-1.792 0-1.046-.672-1.768-1.867-1.768-1.096 0-1.768.772-1.768 1.792z" aria-label="."/></g><g><path d="M176.958 241.97c0 1.045.622 1.767 1.867 1.767 1.12 0 1.768-.796 1.768-1.792 0-1.046-.672-1.768-1.868-1.768-1.095 0-1.767.772-1.767 1.792zM171.943 241.97c0 1.045.623 1.767 1.868 1.767 1.12 0 1.767-.796 1.767-1.792 0-1.046-.672-1.768-1.867-1.768-1.096 0-1.768.772-1.768 1.792zM166.929 241.97c0 1.045.622 1.767 1.867 1.767 1.12 0 1.768-.796 1.768-1.792 0-1.046-.672-1.768-1.868-1.768-1.095 0-1.767.772-1.767 1.792zM161.914 241.97c0 1.045.623 1.767 1.868 1.767 1.12 0 1.768-.796 1.768-1.792 0-1.046-.673-1.768-1.868-1.768-1.096 0-1.768.772-1.768 1.792zM156.9 241.97c0 1.045.622 1.767 1.867 1.767 1.12 0 1.768-.796 1.768-1.792 0-1.046-.672-1.768-1.867-1.768-1.096 0-1.768.772-1.768 1.792zM151.885 241.97c0 1.045.623 1.767 1.868 1.767 1.12 0 1.768-.796 1.768-1.792 0-1.046-.673-1.768-1.868-1.768-1.096 0-1.768.772-1.768 1.792zM146.87 241.97c0 1.045.623 1.767 1.868 1.767 1.12 0 1.768-.796 1.768-1.792 0-1.046-.672-1.768-1.867-1.768-1.096 0-1.768.772-1.768 1.792zM141.856 241.97c0 1.045.623 1.767 1.868 1.767 1.12 0 1.768-.796 1.768-1.792 0-1.046-.673-1.768-1.868-1.768-1.096 0-1.768.772-1.768 1.792zM136.842 241.97c0 1.045.622 1.767 1.867 1.767 1.12 0 1.768-.796 1.768-1.792 0-1.046-.672-1.768-1.867-1.768-1.096 0-1.768.772-1.768 1.792zM131.827 241.97c0 1.045.623 1.767 1.868 1.767 1.12 0 1.768-.796 1.768-1.792 0-1.046-.673-1.768-1.868-1.768-1.096 0-1.768.772-1.768 1.792zM126.813 241.97c0 1.045.622 1.767 1.867 1.767 1.12 0 1.768-.796 1.768-1.792 0-1.046-.672-1.768-1.867-1.768-1.096 0-1.768.772-1.768 1.792zM121.798 241.97c0 1.045.623 1.767 1.868 1.767 1.12 0 1.768-.796 1.768-1.792 0-1.046-.673-1.768-1.868-1.768-1.095 0-1.768.772-1.768 1.792zM116.784 241.97c0 1.045.622 1.767 1.867 1.767 1.12 0 1.768-.796 1.768-1.792 0-1.046-.672-1.768-1.867-1.768-1.096 0-1.768.772-1.768 1.792zM111.77 241.97c0 1.045.622 1.767 1.867 1.767 1.12 0 1.768-.796 1.768-1.792 0-1.046-.673-1.768-1.868-1.768-1.095 0-1.768.772-1.768 1.792zM106.755 241.97c0 1.045.622 1.767 1.867 1.767 1.12 0 1.768-.796 1.768-1.792 0-1.046-.672-1.768-1.867-1.768-1.096 0-1.768.772-1.768 1.792zM181.972 241.97c0 1.045.623 1.767 1.868 1.767 1.12 0 1.767-.796 1.767-1.792 0-1.046-.672-1.768-1.867-1.768-1.096 0-1.768.772-1.768 1.792z" aria-label="."/></g><g><path d="M176.958 246.762c0 1.046.622 1.768 1.867 1.768 1.12 0 1.768-.797 1.768-1.793 0-1.045-.672-1.767-1.868-1.767-1.095 0-1.767.771-1.767 1.792zM171.943 246.762c0 1.046.623 1.768 1.868 1.768 1.12 0 1.767-.797 1.767-1.793 0-1.045-.672-1.767-1.867-1.767-1.096 0-1.768.771-1.768 1.792zM166.929 246.762c0 1.046.622 1.768 1.867 1.768 1.12 0 1.768-.797 1.768-1.793 0-1.045-.672-1.767-1.868-1.767-1.095 0-1.767.771-1.767 1.792zM161.914 246.762c0 1.046.623 1.768 1.868 1.768 1.12 0 1.768-.797 1.768-1.793 0-1.045-.673-1.767-1.868-1.767-1.096 0-1.768.771-1.768 1.792zM156.9 246.762c0 1.046.622 1.768 1.867 1.768 1.12 0 1.768-.797 1.768-1.793 0-1.045-.672-1.767-1.867-1.767-1.096 0-1.768.771-1.768 1.792zM151.885 246.762c0 1.046.623 1.768 1.868 1.768 1.12 0 1.768-.797 1.768-1.793 0-1.045-.673-1.767-1.868-1.767-1.096 0-1.768.771-1.768 1.792zM146.87 246.762c0 1.046.623 1.768 1.868 1.768 1.12 0 1.768-.797 1.768-1.793 0-1.045-.672-1.767-1.867-1.767-1.096 0-1.768.771-1.768 1.792zM141.856 246.762c0 1.046.623 1.768 1.868 1.768 1.12 0 1.768-.797 1.768-1.793 0-1.045-.673-1.767-1.868-1.767-1.096 0-1.768.771-1.768 1.792zM136.842 246.762c0 1.046.622 1.768 1.867 1.768 1.12 0 1.768-.797 1.768-1.793 0-1.045-.672-1.767-1.867-1.767-1.096 0-1.768.771-1.768 1.792zM131.827 246.762c0 1.046.623 1.768 1.868 1.768 1.12 0 1.768-.797 1.768-1.793 0-1.045-.673-1.767-1.868-1.767-1.096 0-1.768.771-1.768 1.792zM126.813 246.762c0 1.046.622 1.768 1.867 1.768 1.12 0 1.768-.797 1.768-1.793 0-1.045-.672-1.767-1.867-1.767-1.096 0-1.768.771-1.768 1.792zM121.798 246.762c0 1.046.623 1.768 1.868 1.768 1.12 0 1.768-.797 1.768-1.793 0-1.045-.673-1.767-1.868-1.767-1.095 0-1.768.771-1.768 1.792zM116.784 246.762c0 1.046.622 1.768 1.867 1.768 1.12 0 1.768-.797 1.768-1.793 0-1.045-.672-1.767-1.867-1.767-1.096 0-1.768.771-1.768 1.792zM111.77 246.762c0 1.046.622 1.768 1.867 1.768 1.12 0 1.768-.797 1.768-1.793 0-1.045-.673-1.767-1.868-1.767-1.095 0-1.768.771-1.768 1.792zM106.755 246.762c0 1.046.622 1.768 1.867 1.768 1.12 0 1.768-.797 1.768-1.793 0-1.045-.672-1.767-1.867-1.767-1.096 0-1.768.771-1.768 1.792zM181.972 246.762c0 1.046.623 1.768 1.868 1.768 1.12 0 1.767-.797 1.767-1.793 0-1.045-.672-1.767-1.867-1.767-1.096 0-1.768.771-1.768 1.792z" aria-label="."/></g><g><path d="M176.958 251.555c0 1.046.622 1.768 1.867 1.768 1.12 0 1.768-.797 1.768-1.793 0-1.045-.672-1.768-1.868-1.768-1.095 0-1.767.772-1.767 1.793zM171.943 251.555c0 1.046.623 1.768 1.868 1.768 1.12 0 1.767-.797 1.767-1.793 0-1.045-.672-1.768-1.867-1.768-1.096 0-1.768.772-1.768 1.793zM166.929 251.555c0 1.046.622 1.768 1.867 1.768 1.12 0 1.768-.797 1.768-1.793 0-1.045-.672-1.768-1.868-1.768-1.095 0-1.767.772-1.767 1.793zM161.914 251.555c0 1.046.623 1.768 1.868 1.768 1.12 0 1.768-.797 1.768-1.793 0-1.045-.673-1.768-1.868-1.768-1.096 0-1.768.772-1.768 1.793zM156.9 251.555c0 1.046.622 1.768 1.867 1.768 1.12 0 1.768-.797 1.768-1.793 0-1.045-.672-1.768-1.867-1.768-1.096 0-1.768.772-1.768 1.793zM151.885 251.555c0 1.046.623 1.768 1.868 1.768 1.12 0 1.768-.797 1.768-1.793 0-1.045-.673-1.768-1.868-1.768-1.096 0-1.768.772-1.768 1.793zM146.87 251.555c0 1.046.623 1.768 1.868 1.768 1.12 0 1.768-.797 1.768-1.793 0-1.045-.672-1.768-1.867-1.768-1.096 0-1.768.772-1.768 1.793zM141.856 251.555c0 1.046.623 1.768 1.868 1.768 1.12 0 1.768-.797 1.768-1.793 0-1.045-.673-1.768-1.868-1.768-1.096 0-1.768.772-1.768 1.793zM136.842 251.555c0 1.046.622 1.768 1.867 1.768 1.12 0 1.768-.797 1.768-1.793 0-1.045-.672-1.768-1.867-1.768-1.096 0-1.768.772-1.768 1.793zM131.827 251.555c0 1.046.623 1.768 1.868 1.768 1.12 0 1.768-.797 1.768-1.793 0-1.045-.673-1.768-1.868-1.768-1.096 0-1.768.772-1.768 1.793zM126.813 251.555c0 1.046.622 1.768 1.867 1.768 1.12 0 1.768-.797 1.768-1.793 0-1.045-.672-1.768-1.867-1.768-1.096 0-1.768.772-1.768 1.793zM121.798 251.555c0 1.046.623 1.768 1.868 1.768 1.12 0 1.768-.797 1.768-1.793 0-1.045-.673-1.768-1.868-1.768-1.095 0-1.768.772-1.768 1.793zM116.784 251.555c0 1.046.622 1.768 1.867 1.768 1.12 0 1.768-.797 1.768-1.793 0-1.045-.672-1.768-1.867-1.768-1.096 0-1.768.772-1.768 1.793zM111.77 251.555c0 1.046.622 1.768 1.867 1.768 1.12 0 1.768-.797 1.768-1.793 0-1.045-.673-1.768-1.868-1.768-1.095 0-1.768.772-1.768 1.793zM106.755 251.555c0 1.046.622 1.768 1.867 1.768 1.12 0 1.768-.797 1.768-1.793 0-1.045-.672-1.768-1.867-1.768-1.096 0-1.768.772-1.768 1.793zM181.972 251.555c0 1.046.623 1.768 1.868 1.768 1.12 0 1.767-.797 1.767-1.793 0-1.045-.672-1.768-1.867-1.768-1.096 0-1.768.772-1.768 1.793z" aria-label="."/></g><g><path d="M176.958 256.348c0 1.046.622 1.768 1.867 1.768 1.12 0 1.768-.797 1.768-1.793 0-1.046-.672-1.768-1.868-1.768-1.095 0-1.767.772-1.767 1.793zM171.943 256.348c0 1.046.623 1.768 1.868 1.768 1.12 0 1.767-.797 1.767-1.793 0-1.046-.672-1.768-1.867-1.768-1.096 0-1.768.772-1.768 1.793zM166.929 256.348c0 1.046.622 1.768 1.867 1.768 1.12 0 1.768-.797 1.768-1.793 0-1.046-.672-1.768-1.868-1.768-1.095 0-1.767.772-1.767 1.793zM161.914 256.348c0 1.046.623 1.768 1.868 1.768 1.12 0 1.768-.797 1.768-1.793 0-1.046-.673-1.768-1.868-1.768-1.096 0-1.768.772-1.768 1.793zM156.9 256.348c0 1.046.622 1.768 1.867 1.768 1.12 0 1.768-.797 1.768-1.793 0-1.046-.672-1.768-1.867-1.768-1.096 0-1.768.772-1.768 1.793zM151.885 256.348c0 1.046.623 1.768 1.868 1.768 1.12 0 1.768-.797 1.768-1.793 0-1.046-.673-1.768-1.868-1.768-1.096 0-1.768.772-1.768 1.793zM146.87 256.348c0 1.046.623 1.768 1.868 1.768 1.12 0 1.768-.797 1.768-1.793 0-1.046-.672-1.768-1.867-1.768-1.096 0-1.768.772-1.768 1.793zM141.856 256.348c0 1.046.623 1.768 1.868 1.768 1.12 0 1.768-.797 1.768-1.793 0-1.046-.673-1.768-1.868-1.768-1.096 0-1.768.772-1.768 1.793zM136.842 256.348c0 1.046.622 1.768 1.867 1.768 1.12 0 1.768-.797 1.768-1.793 0-1.046-.672-1.768-1.867-1.768-1.096 0-1.768.772-1.768 1.793zM131.827 256.348c0 1.046.623 1.768 1.868 1.768 1.12 0 1.768-.797 1.768-1.793 0-1.046-.673-1.768-1.868-1.768-1.096 0-1.768.772-1.768 1.793zM126.813 256.348c0 1.046.622 1.768 1.867 1.768 1.12 0 1.768-.797 1.768-1.793 0-1.046-.672-1.768-1.867-1.768-1.096 0-1.768.772-1.768 1.793zM121.798 256.348c0 1.046.623 1.768 1.868 1.768 1.12 0 1.768-.797 1.768-1.793 0-1.046-.673-1.768-1.868-1.768-1.095 0-1.768.772-1.768 1.793zM116.784 256.348c0 1.046.622 1.768 1.867 1.768 1.12 0 1.768-.797 1.768-1.793 0-1.046-.672-1.768-1.867-1.768-1.096 0-1.768.772-1.768 1.793zM111.77 256.348c0 1.046.622 1.768 1.867 1.768 1.12 0 1.768-.797 1.768-1.793 0-1.046-.673-1.768-1.868-1.768-1.095 0-1.768.772-1.768 1.793zM106.755 256.348c0 1.046.622 1.768 1.867 1.768 1.12 0 1.768-.797 1.768-1.793 0-1.046-.672-1.768-1.867-1.768-1.096 0-1.768.772-1.768 1.793zM181.972 256.348c0 1.046.623 1.768 1.868 1.768 1.12 0 1.767-.797 1.767-1.793 0-1.046-.672-1.768-1.867-1.768-1.096 0-1.768.772-1.768 1.793z" aria-label="."/></g><g><path d="M176.958 261.141c0 1.046.622 1.768 1.867 1.768 1.12 0 1.768-.797 1.768-1.793 0-1.046-.672-1.768-1.868-1.768-1.095 0-1.767.772-1.767 1.793zM171.943 261.141c0 1.046.623 1.768 1.868 1.768 1.12 0 1.767-.797 1.767-1.793 0-1.046-.672-1.768-1.867-1.768-1.096 0-1.768.772-1.768 1.793zM166.929 261.141c0 1.046.622 1.768 1.867 1.768 1.12 0 1.768-.797 1.768-1.793 0-1.046-.672-1.768-1.868-1.768-1.095 0-1.767.772-1.767 1.793zM161.914 261.141c0 1.046.623 1.768 1.868 1.768 1.12 0 1.768-.797 1.768-1.793 0-1.046-.673-1.768-1.868-1.768-1.096 0-1.768.772-1.768 1.793zM156.9 261.141c0 1.046.622 1.768 1.867 1.768 1.12 0 1.768-.797 1.768-1.793 0-1.046-.672-1.768-1.867-1.768-1.096 0-1.768.772-1.768 1.793zM151.885 261.141c0 1.046.623 1.768 1.868 1.768 1.12 0 1.768-.797 1.768-1.793 0-1.046-.673-1.768-1.868-1.768-1.096 0-1.768.772-1.768 1.793zM146.87 261.141c0 1.046.623 1.768 1.868 1.768 1.12 0 1.768-.797 1.768-1.793 0-1.046-.672-1.768-1.867-1.768-1.096 0-1.768.772-1.768 1.793zM141.856 261.141c0 1.046.623 1.768 1.868 1.768 1.12 0 1.768-.797 1.768-1.793 0-1.046-.673-1.768-1.868-1.768-1.096 0-1.768.772-1.768 1.793zM136.842 261.141c0 1.046.622 1.768 1.867 1.768 1.12 0 1.768-.797 1.768-1.793 0-1.046-.672-1.768-1.867-1.768-1.096 0-1.768.772-1.768 1.793zM131.827 261.141c0 1.046.623 1.768 1.868 1.768 1.12 0 1.768-.797 1.768-1.793 0-1.046-.673-1.768-1.868-1.768-1.096 0-1.768.772-1.768 1.793zM126.813 261.141c0 1.046.622 1.768 1.867 1.768 1.12 0 1.768-.797 1.768-1.793 0-1.046-.672-1.768-1.867-1.768-1.096 0-1.768.772-1.768 1.793zM121.798 261.141c0 1.046.623 1.768 1.868 1.768 1.12 0 1.768-.797 1.768-1.793 0-1.046-.673-1.768-1.868-1.768-1.095 0-1.768.772-1.768 1.793zM116.784 261.141c0 1.046.622 1.768 1.867 1.768 1.12 0 1.768-.797 1.768-1.793 0-1.046-.672-1.768-1.867-1.768-1.096 0-1.768.772-1.768 1.793zM111.77 261.141c0 1.046.622 1.768 1.867 1.768 1.12 0 1.768-.797 1.768-1.793 0-1.046-.673-1.768-1.868-1.768-1.095 0-1.768.772-1.768 1.793zM106.755 261.141c0 1.046.622 1.768 1.867 1.768 1.12 0 1.768-.797 1.768-1.793 0-1.046-.672-1.768-1.867-1.768-1.096 0-1.768.772-1.768 1.793zM181.972 261.141c0 1.046.623 1.768 1.868 1.768 1.12 0 1.767-.797 1.767-1.793 0-1.046-.672-1.768-1.867-1.768-1.096 0-1.768.772-1.768 1.793z" aria-label="."/></g><g><path d="M176.958 265.934c0 1.046.622 1.768 1.867 1.768 1.12 0 1.768-.797 1.768-1.793 0-1.046-.672-1.768-1.868-1.768-1.095 0-1.767.772-1.767 1.793zM171.943 265.934c0 1.046.623 1.768 1.868 1.768 1.12 0 1.767-.797 1.767-1.793 0-1.046-.672-1.768-1.867-1.768-1.096 0-1.768.772-1.768 1.793zM166.929 265.934c0 1.046.622 1.768 1.867 1.768 1.12 0 1.768-.797 1.768-1.793 0-1.046-.672-1.768-1.868-1.768-1.095 0-1.767.772-1.767 1.793zM161.914 265.934c0 1.046.623 1.768 1.868 1.768 1.12 0 1.768-.797 1.768-1.793 0-1.046-.673-1.768-1.868-1.768-1.096 0-1.768.772-1.768 1.793zM156.9 265.934c0 1.046.622 1.768 1.867 1.768 1.12 0 1.768-.797 1.768-1.793 0-1.046-.672-1.768-1.867-1.768-1.096 0-1.768.772-1.768 1.793zM151.885 265.934c0 1.046.623 1.768 1.868 1.768 1.12 0 1.768-.797 1.768-1.793 0-1.046-.673-1.768-1.868-1.768-1.096 0-1.768.772-1.768 1.793zM146.87 265.934c0 1.046.623 1.768 1.868 1.768 1.12 0 1.768-.797 1.768-1.793 0-1.046-.672-1.768-1.867-1.768-1.096 0-1.768.772-1.768 1.793zM141.856 265.934c0 1.046.623 1.768 1.868 1.768 1.12 0 1.768-.797 1.768-1.793 0-1.046-.673-1.768-1.868-1.768-1.096 0-1.768.772-1.768 1.793zM136.842 265.934c0 1.046.622 1.768 1.867 1.768 1.12 0 1.768-.797 1.768-1.793 0-1.046-.672-1.768-1.867-1.768-1.096 0-1.768.772-1.768 1.793zM131.827 265.934c0 1.046.623 1.768 1.868 1.768 1.12 0 1.768-.797 1.768-1.793 0-1.046-.673-1.768-1.868-1.768-1.096 0-1.768.772-1.768 1.793zM126.813 265.934c0 1.046.622 1.768 1.867 1.768 1.12 0 1.768-.797 1.768-1.793 0-1.046-.672-1.768-1.867-1.768-1.096 0-1.768.772-1.768 1.793zM121.798 265.934c0 1.046.623 1.768 1.868 1.768 1.12 0 1.768-.797 1.768-1.793 0-1.046-.673-1.768-1.868-1.768-1.095 0-1.768.772-1.768 1.793zM116.784 265.934c0 1.046.622 1.768 1.867 1.768 1.12 0 1.768-.797 1.768-1.793 0-1.046-.672-1.768-1.867-1.768-1.096 0-1.768.772-1.768 1.793zM111.77 265.934c0 1.046.622 1.768 1.867 1.768 1.12 0 1.768-.797 1.768-1.793 0-1.046-.673-1.768-1.868-1.768-1.095 0-1.768.772-1.768 1.793zM106.755 265.934c0 1.046.622 1.768 1.867 1.768 1.12 0 1.768-.797 1.768-1.793 0-1.046-.672-1.768-1.867-1.768-1.096 0-1.768.772-1.768 1.793zM181.972 265.934c0 1.046.623 1.768 1.868 1.768 1.12 0 1.767-.797 1.767-1.793 0-1.046-.672-1.768-1.867-1.768-1.096 0-1.768.772-1.768 1.793z" aria-label="."/></g><g><path d="M176.958 270.727c0 1.046.622 1.768 1.867 1.768 1.12 0 1.768-.797 1.768-1.793 0-1.046-.672-1.768-1.868-1.768-1.095 0-1.767.772-1.767 1.793zM171.943 270.727c0 1.046.623 1.768 1.868 1.768 1.12 0 1.767-.797 1.767-1.793 0-1.046-.672-1.768-1.867-1.768-1.096 0-1.768.772-1.768 1.793zM166.929 270.727c0 1.046.622 1.768 1.867 1.768 1.12 0 1.768-.797 1.768-1.793 0-1.046-.672-1.768-1.868-1.768-1.095 0-1.767.772-1.767 1.793zM161.914 270.727c0 1.046.623 1.768 1.868 1.768 1.12 0 1.768-.797 1.768-1.793 0-1.046-.673-1.768-1.868-1.768-1.096 0-1.768.772-1.768 1.793zM156.9 270.727c0 1.046.622 1.768 1.867 1.768 1.12 0 1.768-.797 1.768-1.793 0-1.046-.672-1.768-1.867-1.768-1.096 0-1.768.772-1.768 1.793zM151.885 270.727c0 1.046.623 1.768 1.868 1.768 1.12 0 1.768-.797 1.768-1.793 0-1.046-.673-1.768-1.868-1.768-1.096 0-1.768.772-1.768 1.793zM146.87 270.727c0 1.046.623 1.768 1.868 1.768 1.12 0 1.768-.797 1.768-1.793 0-1.046-.672-1.768-1.867-1.768-1.096 0-1.768.772-1.768 1.793zM141.856 270.727c0 1.046.623 1.768 1.868 1.768 1.12 0 1.768-.797 1.768-1.793 0-1.046-.673-1.768-1.868-1.768-1.096 0-1.768.772-1.768 1.793zM136.842 270.727c0 1.046.622 1.768 1.867 1.768 1.12 0 1.768-.797 1.768-1.793 0-1.046-.672-1.768-1.867-1.768-1.096 0-1.768.772-1.768 1.793zM131.827 270.727c0 1.046.623 1.768 1.868 1.768 1.12 0 1.768-.797 1.768-1.793 0-1.046-.673-1.768-1.868-1.768-1.096 0-1.768.772-1.768 1.793zM126.813 270.727c0 1.046.622 1.768 1.867 1.768 1.12 0 1.768-.797 1.768-1.793 0-1.046-.672-1.768-1.867-1.768-1.096 0-1.768.772-1.768 1.793zM121.798 270.727c0 1.046.623 1.768 1.868 1.768 1.12 0 1.768-.797 1.768-1.793 0-1.046-.673-1.768-1.868-1.768-1.095 0-1.768.772-1.768 1.793zM116.784 270.727c0 1.046.622 1.768 1.867 1.768 1.12 0 1.768-.797 1.768-1.793 0-1.046-.672-1.768-1.867-1.768-1.096 0-1.768.772-1.768 1.793zM111.77 270.727c0 1.046.622 1.768 1.867 1.768 1.12 0 1.768-.797 1.768-1.793 0-1.046-.673-1.768-1.868-1.768-1.095 0-1.768.772-1.768 1.793zM106.755 270.727c0 1.046.622 1.768 1.867 1.768 1.12 0 1.768-.797 1.768-1.793 0-1.046-.672-1.768-1.867-1.768-1.096 0-1.768.772-1.768 1.793zM181.972 270.727c0 1.046.623 1.768 1.868 1.768 1.12 0 1.767-.797 1.767-1.793 0-1.046-.672-1.768-1.867-1.768-1.096 0-1.768.772-1.768 1.793z" aria-label="."/></g></g><g font-weight="400" font-size="25.121" font-family="Bree Serif" letter-spacing="0" word-spacing="0"><text y="243.12" x="113.283" style="line-height:1.25;-inkscape-font-specification:'Bree Serif'" stroke="#fff" stroke-width="7.939" stroke-linecap="round" transform="matrix(.9295 0 0 .9295 10.306 16.552)"><tspan y="243.12" x="113.283">BIXEL</tspan></text><text style="line-height:1.25;-inkscape-font-specification:'Bree Serif'" x="113.283" y="243.12" stroke-width="3.518" transform="matrix(.9295 0 0 .9295 10.306 16.552)"><tspan x="113.283" y="243.12">BIXEL</tspan></text></g><g transform="scale(1.64672) rotate(2.444 942.493 -1078.683)"><circle transform="rotate(-36.045)" r="1.5" cy="129.451" cx="78.373"/><circle transform="rotate(-36.045)" cx="75.397" cy="129.793" r="1"/><circle transform="rotate(-36.045)" r=".5" cy="130.458" cx="73.266"/><circle transform="rotate(-36.045)" cx="82.853" cy="129.846" r="2.5"/><circle transform="rotate(-36.045)" r="4" cy="132.769" cx="89.225"/></g><text y="175.27" x="28.456" style="line-height:1.25;-inkscape-font-specification:'Bree Serif'" font-weight="400" font-size="10.583" font-family="Bree Serif" letter-spacing="0" word-spacing="0" stroke-width=".265" transform="translate(-1.07 73.5)"><tspan y="175.27" x="28.456">VIRTUAL</tspan></text><text style="line-height:1.25;-inkscape-font-specification:'Bree Serif'" x="28.858" y="184.355" font-weight="400" font-size="10.583" font-family="Bree Serif" letter-spacing="0" word-spacing="0" stroke-width=".265" transform="translate(-1.07 73.5)"><tspan x="28.858" y="184.355">REALITY</tspan></text><g fill="#fff" stroke="#000" stroke-width="2" stroke-linecap="round"><path d="M60.393 218.75c0 8.18-5.495 17.818-12.272 17.818-6.778 0-12.272-9.638-12.272-17.817 0-12.457 5.494-14.811 12.272-14.811 6.777 0 12.272 3.09 12.272 14.81z"/><path d="M34.23 210.54h27.781v13.89H51.593l-3.472-3.473-3.473 3.473H34.23z"/></g><g><path d="M149.569 75.71c7.149-7.149 23.183-7.149 30.332 0 1.487 1.487 2.103 6.308 0 6.308H149.57c-2.103 0-1.487-4.82 0-6.307z"/><text y="100.162" x="108.937" style="line-height:1.25;-inkscape-font-specification:'Bree Serif'" font-weight="400" font-size="8.392" font-family="Bree Serif" letter-spacing="0" word-spacing="0" stroke-width=".21"><tspan y="100.162" x="108.937">MUSHROOM</tspan></text><text y="111.755" x="108.608" style="line-height:1.25;-inkscape-font-specification:'Bree Serif'" font-weight="400" font-size="15.537" font-family="Bree Serif" letter-spacing="0" word-spacing="0" stroke-width=".388"><tspan y="111.755" x="108.608">HUNTERS</tspan></text><path d="M159.272 77.577c0-5.512 10.673-5.512 10.673 0 0 8.095 4.696 21.828 0 21.828h-10.673c-4.127 0 0-13.872 0-21.828z" fill="none" stroke="#000" stroke-width="1.532" stroke-linecap="round"/><circle r="2.339" cy="76.43" cx="155.771" fill="#fff"/><circle r="1.002" cx="159.463" cy="73.568" fill="#fff"/><circle cy="76.403" cx="173.259" r="1.475" fill="#fff"/></g><g transform="translate(19.243 11.493)"><g transform="rotate(-34.598 32.091 32.107)" stroke="#000" stroke-linecap="round"><path d="M29.104 29.77v46.303" fill="none" stroke-width="1.374"/><circle cx="29.104" cy="76.073" r="5.76" fill="#fff" stroke-width="1.208"/></g><path fill="#fff" stroke="#fefefe" stroke-width="1.7" stroke-linecap="round" d="M38.176 48.622h13.182v10.347H38.176z"/><g stroke="#fefefe" stroke-width="1.7" font-weight="400" font-size="10.583" letter-spacing="0" word-spacing="0"><text y="50.778" x="14.299" style="line-height:1.25" font-family="sans-serif"><tspan style="-inkscape-font-specification:'Bree Serif'" y="50.778" x="14.299" font-family="Bree Serif">SCIENCE</tspan></text><text y="58.972" x="26.453" style="line-height:1.25;-inkscape-font-specification:'Bree Serif'" font-family="Bree Serif"><tspan y="58.972" x="26.453">WIZARD</tspan></text></g><g font-weight="400" font-size="10.583" letter-spacing="0" word-spacing="0" stroke-width=".265"><text style="line-height:1.25" x="14.299" y="50.778" font-family="sans-serif"><tspan x="14.299" y="50.778" style="-inkscape-font-specification:'Bree Serif'" font-family="Bree Serif">SCIENCE</tspan></text><text style="line-height:1.25;-inkscape-font-specification:'Bree Serif'" x="26.453" y="58.972" font-family="Bree Serif"><tspan x="26.453" y="58.972">WIZARD</tspan></text></g><circle r=".84" cy="76.953" cx="38.508"/><circle cx="45.865" cy="74.683" r=".84"/><circle cx="42.186" cy="75.988" r=".84"/><circle cx="30.915" cy="77.953" r=".84"/><circle cx="27.353" cy="77.981" r=".84"/><circle r=".84" cy="77.627" cx="34.62"/><circle transform="scale(-1 1)" cx="-16.197" cy="76.953" r=".84"/><circle transform="scale(-1 1)" r=".84" cy="74.683" cx="-8.84"/><circle transform="scale(-1 1)" r=".84" cy="75.988" cx="-12.519"/><circle transform="scale(-1 1)" r=".84" cy="77.953" cx="-23.79"/><circle transform="scale(-1 1)" r=".84" cy="77.981" cx="-27.353"/><circle transform="scale(-1 1)" cx="-20.086" cy="77.627" r=".84"/></g></svg>