<svg xmlns="http://www.w3.org/2000/svg"><defs><font id="glyphicons_halflingsregular" horiz-adv-x="1200"><font-face units-per-em="1200" ascent="960" descent="-240"/><glyph/><glyph/><glyph/><glyph unicode="*" d="M1100 500H841l183-183-141-141-183 183V100H500v259L317 176 176 317l183 183H100v200h259L176 883l141 141 183-183v259h200V841l183 183 141-141-183-183h259V500z"/><glyph unicode="+" d="M1100 400H700V0H400v400H0v300h400v400h300V700h400V400z"/><glyph/><glyph horiz-adv-x="652"/><glyph horiz-adv-x="1304"/><glyph horiz-adv-x="652"/><glyph horiz-adv-x="1304"/><glyph horiz-adv-x="434"/><glyph horiz-adv-x="326"/><glyph horiz-adv-x="217"/><glyph horiz-adv-x="217"/><glyph horiz-adv-x="163"/><glyph horiz-adv-x="260"/><glyph horiz-adv-x="72"/><glyph horiz-adv-x="260"/><glyph horiz-adv-x="326"/><glyph unicode="€" d="M800 500H500q9-74 33-132t52.5-91 62-54.5 59-29T753 186q29 0 66 13t75 37 63.5 67.5T983 400h174q-31-172-128-278Q922 5 755 5 550 5 431 163q-36 46-69 131.5T317 500H100l100 100h113q0 47 5 100H100l100 100h135q37 167 112 257 117 141 297 141 242 0 354-189 60-103 66-209H983q0 55-25.5 99T894 967t-75 36.5-67 12.5q-24 0-52.5-10T637 974t-65.5-67T521 800h379L800 700H500q-6-46-6-100h406z"/><glyph unicode="−" d="M1100 700H200V400h900v300z"/><glyph unicode="☁" d="M178 300h750q120 0 205 86t85 208q0 120-85 206.5T928 887q-46 0-90-14-44 97-134.5 156.5T503 1089q-152 0-260-107.5T135 721q0-25 2-37-66-14-108.5-67.5T-14 494q0-80 56.5-137T178 300z"/><glyph unicode="✉" d="M1200 1100H0l600-603zM300 600L0 300v600zm900 300V300L900 600zM800 500l400-400H0l400 400 200-200z"/><glyph unicode="✏" d="M1101 889l99 92q13 13 13 32.5t-13 33.5l-153 153q-15 13-33 13t-33-13l-94-97zM401 189l614 614-214 214-614-614zM-13-13L320 99 97 322z"/><glyph unicode="" horiz-adv-x="500" d="M0 0z"/><glyph unicode="" d="M700 100h300V0H200v100h300v550L0 1200h1200L700 650V100z"/><glyph unicode="" d="M1000 934V413q-64 16-138-7-79-26-122.5-83T714 212q17-55 85.5-75.5T947 141q70 23 111.5 63.5T1100 300v881q0 10-7 15.5t-17 2.5l-752-193q-10-3-17-12.5t-7-19.5V285q-64 17-138-7-79-25-122.5-82T14 84t86-75.5T247 14q65 21 109 69t44 90v606z"/><glyph unicode="" d="M913 432l300-300q7-8 7-18t-7-18L1104-13q-8-7-18-7t-18 7L768 287q-119-78-261-78-200 0-342 142T23 693t142 342 342 142 342-142 142-342q0-142-78-261zM176 693q0-136 97-233t234-97 233.5 96.5T837 693t-96.5 233.5T507 1023t-234-97-97-233z"/><glyph unicode="" d="M649 949q48 69 109.5 105t121.5 38 118.5-20.5 102.5-64 71-100.5 27-123q0-57-33.5-117.5t-94-124.5T945 414.5 795 262 649 88q-62 85-145.5 174T354 414.5 227.5 542t-94 124.5T100 784q0 64 28 123t73 100.5 104.5 64 119 20.5 120-38.5T649 949z"/><glyph unicode="" d="M791 522L936 73 552 348 170 73l146 447-388 280h479l146 400h2l146-400h472zM168 71l2 1z"/><glyph unicode="" d="M791 522L936 73 552 348 170 73l146 447-388 280h479l146 400h2l146-400h472zm-44-191l-74 229 193 140H631l-77 211-78-211H237l196-142-73-226 192 140zM168 71l2 1z"/><glyph unicode="" d="M1200 143V0H0v143l400 257v100q-37 0-68.5 74.5T300 700v200q0 124 88 212t212 88 212-88 88-212V700q0-51-31.5-125.5T800 500V400z"/><glyph unicode="" d="M1200 1100V0H0v1100h1200zM200 1000H100V900h100v100zm700 0H300V600h600v400zm200 0h-100V900h100v100zM200 800H100V700h100v100zm900 0h-100V700h100v100zM200 600H100V500h100v100zm900 0h-100V500h100v100zM900 500H300V100h600v400zM200 400H100V300h100v100zm900 0h-100V300h100v100zM200 200H100V100h100v100zm900 0h-100V100h100v100z"/><glyph unicode="" d="M500 1050V650q0-21-14.5-35.5T450 600H50q-21 0-35.5 14.5T0 650v400q0 21 14.5 35.5T50 1100h400q21 0 35.5-14.5T500 1050zm600 0V650q0-21-14.5-35.5T1050 600H650q-21 0-35.5 14.5T600 650v400q0 21 14.5 35.5T650 1100h400q21 0 35.5-14.5t14.5-35.5zM500 450V50q0-21-14.5-35.5T450 0H50Q29 0 14.5 14.5T0 50v400q0 21 14.5 35.5T50 500h400q21 0 35.5-14.5T500 450zm600 0V50q0-21-14.5-35.5T1050 0H650q-21 0-35.5 14.5T600 50v400q0 21 14.5 35.5T650 500h400q21 0 35.5-14.5T1100 450z"/><glyph unicode="" d="M300 1050V850q0-21-14.5-35.5T250 800H50q-21 0-35.5 14.5T0 850v200q0 21 14.5 35.5T50 1100h200q21 0 35.5-14.5T300 1050zm400 0V850q0-21-14.5-35.5T650 800H450q-21 0-35.5 14.5T400 850v200q0 21 14.5 35.5T450 1100h200q21 0 35.5-14.5T700 1050zm400 0V850q0-21-14.5-35.5T1050 800H850q-21 0-35.5 14.5T800 850v200q0 21 14.5 35.5T850 1100h200q21 0 35.5-14.5t14.5-35.5zM300 650V450q0-21-14.5-35.5T250 400H50q-21 0-35.5 14.5T0 450v200q0 21 14.5 35.5T50 700h200q21 0 35.5-14.5T300 650zm400 0V450q0-21-14.5-35.5T650 400H450q-21 0-35.5 14.5T400 450v200q0 21 14.5 35.5T450 700h200q21 0 35.5-14.5T700 650zm400 0V450q0-21-14.5-35.5T1050 400H850q-21 0-35.5 14.5T800 450v200q0 21 14.5 35.5T850 700h200q21 0 35.5-14.5T1100 650zM300 250V50q0-21-14.5-35.5T250 0H50Q29 0 14.5 14.5T0 50v200q0 21 14.5 35.5T50 300h200q21 0 35.5-14.5T300 250zm400 0V50q0-21-14.5-35.5T650 0H450q-21 0-35.5 14.5T400 50v200q0 21 14.5 35.5T450 300h200q21 0 35.5-14.5T700 250zm400 0V50q0-21-14.5-35.5T1050 0H850q-21 0-35.5 14.5T800 50v200q0 21 14.5 35.5T850 300h200q21 0 35.5-14.5T1100 250z"/><glyph unicode="" d="M300 1050V850q0-21-14.5-35.5T250 800H50q-21 0-35.5 14.5T0 850v200q0 21 14.5 35.5T50 1100h200q21 0 35.5-14.5T300 1050zm900 0V850q0-21-14.5-35.5T1150 800H450q-21 0-35.5 14.5T400 850v200q0 21 14.5 35.5T450 1100h700q21 0 35.5-14.5t14.5-35.5zM300 450v200q0 21-14.5 35.5T250 700H50q-21 0-35.5-14.5T0 650V450q0-21 14.5-35.5T50 400h200q21 0 35.5 14.5T300 450zm900 200V450q0-21-14.5-35.5T1150 400H450q-21 0-35.5 14.5T400 450v200q0 21 14.5 35.5T450 700h700q21 0 35.5-14.5T1200 650zM300 250V50q0-21-14.5-35.5T250 0H50Q29 0 14.5 14.5T0 50v200q0 21 14.5 35.5T50 300h200q21 0 35.5-14.5T300 250zm900 0V50q0-21-14.5-35.5T1150 0H450q-21 0-35.5 14.5T400 50v200q0 21 14.5 35.5T450 300h700q21 0 35.5-14.5T1200 250z"/><glyph unicode="" d="M448 34l818 820-212 212-607-607-206 207L29 454z"/><glyph unicode="" d="M882 106L600 388 318 106 106 318l282 282-282 282 212 212 282-282 282 282 212-212-282-282 282-282z"/><glyph unicode="" d="M913 432l300-300q7-8 7-18t-7-18L1104-13q-8-7-18-7t-18 7L768 287q-119-78-261-78-200 0-342 142T23 693t142 342 342 142 342-142 142-342q0-142-78-261zm-406-69q137 0 233.5 96.5T837 693t-96.5 233.5T507 1023t-234-97-97-233 97-233 234-97zm93 437h100V600H600V500H400v100H300v200h100v100h200V800z"/><glyph unicode="" d="M913 432l300-299q7-7 7-18t-7-18L1104-12q-8-8-18-8t-18 8L768 287q-120-77-261-77-200 0-342 142T23 694t142 342 342 142 342-142 142-342q0-141-78-262zM176 694q0-136 97-233t234-97 233.5 97T837 694t-96.5 233-233.5 97-234-97-97-233zm124 107V601h400v200H300z"/><glyph unicode="" d="M700 750v400q0 21-14.5 35.5T650 1200H550q-21 0-35.5-14.5T500 1150V750q0-21 14.5-35.5T550 700h100q21 0 35.5 14.5T700 750zm100 225v166q167-62 272-210t105-331q0-118-45.5-224.5t-123-184-184-123T600 23 375.5 68.5t-184 123-123 184T23 600q0 183 105 331t272 210V975q-103-55-165-155t-62-220q0-177 125-302t302-125 302 125 125 302q0 120-62 220T800 975z"/><glyph unicode="" d="M1200 1h-200v1200h200V1zM900 1H700v800h200V1zM600 1H400v500h200V1zM300 301H100V1h200v300z"/><glyph unicode="" d="M488 183l38-151q40-5 74-5 27 0 74 5l38 151 6 2q46 13 93 39l5 3 134-81q56 44 104 105l-80 134 3 5q24 44 39 93l1 6 152 38q5 40 5 74 0 28-5 73l-152 38-1 6q-16 51-39 93l-3 5 80 134q-44 58-104 105l-134-81-5 3q-45 25-93 39l-6 1-38 152q-40 5-74 5-27 0-74-5l-38-152-5-1q-50-14-94-39l-5-3-133 81q-59-47-105-105l80-134-3-5q-25-47-38-93l-2-6-151-38q-6-48-6-73 0-33 6-74l151-38 2-6q14-49 38-93l3-5-80-134q45-59 105-105l133 81 5-3q45-26 94-39zm112 632q89 0 152-63t63-151q0-89-63-152t-152-63-152 63-63 152q0 88 63 151t152 63z"/><glyph unicode="" d="M900 1100h275q10 0 17.5-7.5t7.5-17.5v-50q0-11-7-18t-18-7H125q-11 0-18 7t-7 18v50q0 10 7.5 17.5t17.5 7.5h275v100q0 41 29.5 70.5T500 1300h300q41 0 70.5-29.5T900 1200v-100zm-100 0v100H500v-100h300zM200 900h900V100q0-41-29.5-71T1000-1H300q-41 0-70.5 30T200 100v800zm100-800h100v700H300V100zm200 0h100v700H500V100zm200 0h100v700H700V100zm200 0h100v700H900V100z"/><glyph unicode="" d="M1301 601h-200V1H801v400H501V1H201v600H1l656 644z"/><glyph unicode="" d="M600 700h400V25q0-11-7-18t-18-7H125q-11 0-18 7t-7 18v1150q0 11 7 18t18 7h475V700zm400 100H700v300z"/><glyph unicode="" d="M600 1196q162 0 299-80t217-217 80-299-80-299T899 84 600 4 301 84 84 301 4 600t80 299 217 217 299 80zm0-182q-171 0-292.5-121.5T186 600t121.5-292.5T600 186t292.5 121.5T1014 600 892.5 892.5 600 1014zm0-414h200V500H500v400h100V600z"/><glyph unicode="" d="M721 400H479L439 0h-539l431 1200h209l-21-300h162l-20 300h208L1300 0H762zm-9 100l-27 300H515l-27-300h224z"/><glyph unicode="" d="M1100 400V0H0v400h490L200 700h200v500h300V700h200L610 400h490zM988 300H813V200h175v100z"/><glyph unicode="" d="M600 1199q122 0 233-47.5t191-127.5 127.5-191 47.5-233-47.5-233T1024 176 833 48.5 600 1 367 48.5 176 176 48.5 367 1 600t47.5 233T176 1024t191 127.5 233 47.5zm0-187q-170 0-291-121T188 600t121-291 291-121 291 121 121 291-121 291-291 121zm100-412h150L600 300 350 600h150v300h200V600z"/><glyph unicode="" d="M600 1196q162 0 299-80t217-217 80-299-80-299T899 84 600 4 301 84 84 301 4 600t80 299 217 217 299 80zm0-182q-171 0-292.5-121.5T186 600t121.5-292.5T600 186t292.5 121.5T1014 600 892.5 892.5 600 1014zm250-414H700V300H500v300H350l250 300z"/><glyph unicode="" d="M0 500l200 700h800q199-700 200-700V25q0-11-7-18t-18-7H25Q14 0 7 7T0 25v475zm903 500H297l-97-500h200l50-200h300l50 200h200z"/><glyph unicode="" d="M600 1196q162 0 299-80t217-217 80-299-80-299T899 84 600 4 301 84 84 301 4 600t80 299 217 217 299 80zm0-182q-171 0-292.5-121.5T186 600q0-172 121.5-293T600 186t292.5 121T1014 600q0 171-121.5 292.5T600 1014zm197-416L500 397v401z"/><glyph unicode="" d="M1177 600h-150q0-177-125-302T600 173 298 298 173 600t125 302 302 125q136 0 246-81L700 800h400v400l-145-145q-157 122-355 122-118 0-224.5-45.5t-184-123-123-184T23 600t45.5-224.5 123-184 184-123T600 23t224.5 45.5 184 123 123 184T1177 600z"/><glyph unicode="" d="M700 800l147 147q-112 80-247 80-177 0-302-125T173 600H23q0 118 45.5 224.5t123 184 184 123T600 1177q198 0 355-122l145 145V800H700zM500 400L353 253q112-80 247-80 177 0 302 125t125 302h150q0-118-45.5-224.5t-123-184-184-123T600 23q-198 0-355 122L100 0v400h400z"/><glyph unicode="" d="M100 1200V0h1100v1200H100zM1100 100H200v900h900V100zM400 800H300v100h100V800zm600 0H500v100h500V800zM400 600H300v100h100V600zm600 0H500v100h500V600zM400 400H300v100h100V400zm600 0H500v100h500V400zM400 200H300v100h100V200zm600 100H500V200h500v100z"/><glyph unicode="" d="M200 0H100v1100h100V0zm900 600v500q-40-81-101.5-115.5T871 955t-138 25-139.5 40-125.5 25-103-29.5T300 900V400q60 60 127.5 84T555 501.5t122-23 119-30 110-11 103 42 91 120.5z"/><glyph unicode="" d="M1200 275v300q0 116-49.5 227t-131 192.5-192.5 131-227 49.5-227-49.5-192.5-131T49.5 802 0 575V275q0-11 7-18t18-7h50q11 0 18 7t7 18v300q0 127 70.5 231.5T355 968t245 57 245-57 184.5-161.5T1100 575V275q0-11 7-18t18-7h50q11 0 18 7t7 18zM400 480V20q0-8-6-14t-14-6H220q-8 0-14 6t-6 14v460q0 8 6 14t14 6h160q8 0 14-6t6-14zm600 0V20q0-8-6-14t-14-6H820q-8 0-14 6t-6 14v460q0 8 6 14t14 6h160q8 0 14-6t6-14z"/><glyph unicode="" d="M0 800V400h300l300-200v800L300 800H0zm971-200l141-141-71-71-141 141-141-141-71 71 141 141-141 141 71 71 141-141 141 141 71-71z"/><glyph unicode="" d="M0 800V400h300l300-200v800L300 800H0zm700 57l69 53q111-135 111-310 0-169-106-302l-67 54q86 110 86 248 0 146-93 257z"/><glyph unicode="" d="M974 186l6 8q142 178 142 405 0 230-144 408l-6 8-83-64 7-8q123-151 123-344 0-189-119-339l-7-8zM300 801l300 200V201L300 401H0v400h300zm402 57l69 53q111-135 111-310 0-170-106-303l-67 55q86 110 86 248 0 145-93 257z"/><glyph unicode="" d="M100 700h400v100h100v100H500v300H0V600h100v100zm1100 0v500H600v-200h100V700h200V400h300v200h-200v100h200zM100 1100h300V800H100v300zm700-300v300h300V800H800zM200 900h100v100H200V900zm700 100h100V900H900v100zM300 600H200V500H0V0h500v500H300v100zm600-400V100H700v100H600v100h100v200H500v100h300V300h200V200H900zM400 400V100H100v300h300zM300 200H200v100h100V200zm800 100h100V200h-100v100zM600 100h100V0H600v100zm600 0V0H900v100h300z"/><glyph unicode="" d="M100 1200H0V200h100v1000zM300 200H200v1000h100V200zm400 0H500v1000h200V200zm200 0H800v1000h100V200zm300 1000V200h-200v1000h200zM400 100V0H100v100h300zm100-9h100V0H500v91zm200 0h100V0H700v91zm400 0V0H900v91h200z"/><glyph unicode="" d="M1200 500L700 0 1 700v475q0 10 7.5 17.5T26 1200h474zM320 882q29 29 29 71t-29 71q-30 30-71.5 30t-71.5-30q-29-29-29-71t29-71q30-30 71.5-30t71.5 30z"/><glyph unicode="" d="M1201 500L701 0 2 700v475q0 11 7 18t18 7h474zm300 0L1001 0l-50 50 450 450-700 700h100zM320 882q30 29 30 71t-30 71q-29 30-71 30t-71-30q-30-29-30-71t30-71q29-30 71-30t71 30z"/><glyph unicode="" d="M1200 1200V200l-100-100v1000H350l-100-100h750V0H100v1025l175 175h925z"/><glyph unicode="" d="M947 829l-94 346q-2 11-10 18t-18 7H375q-10 0-18-7t-10-18l-94-346 40-124h592zm253-29V100h-200v200H200V100H0v700h200l100-200h600l100 200h200zM881 176l38-152q2-10-3.5-17T900 0H300q-10 0-15.5 7T281 24l38 152q2 10 11.5 17t19.5 7h500q10 0 19.5-7t11.5-17z"/><glyph unicode="" d="M1200 0v66q-34 1-74 43-18 19-33 42t-21 37l-6 13-385 998h-93L189 193q-24-48-52-75-12-12-33-25T68 73l-15-7V0h365v66q-41 0-72 11t-49 38 1 71l92 234h391l82-222q16-45-5.5-88.5T783 66V0h417zM416 521l178 457 46-140 116-317H416z"/><glyph unicode="" d="M100 1199h471q120 0 213-88t93-228q0-55-11.5-101.5t-28-74T804 660t-28-28l-12-7q8-3 21.5-9t48-31.5 60.5-58 47.5-91.5T963 306q0-84-59-156.5t-142-111T600 0H100v89q41 7 70.5 32.5T200 187v827q0 28-1 39.5t-5.5 26-15.5 21-29 14-49 14.5v70zm300-120V700h139q76 0 130 61.5T723 900q0 82-84 130.5T400 1079zm0-879h161q89 0 153 48.5T778 381q0 90-62.5 154.5T559 600H400V200z"/><glyph unicode="" d="M877 1200l2-57q-33-8-62-25.5t-46-37-29.5-38T724 1012l-5-12-128-825q-10-52 14-82t95-36V0H200v57q77 7 134.5 40.5T400 178l173 849q10 56-10 74t-91 37q-6 1-10.5 2.5t-9.5 2.5v57h425z"/><glyph unicode="" d="M1150 1200h150V900h-50q0 29-8 48.5t-18.5 30-33.5 15-39.5 5.5-50.5 1H900V150l100-50V0H600v100l100 50v850H500q-34 0-50.5-1t-40-5.5-33.5-15-18.5-30T349 900h-49v300h850zM100 1000V200h75L50 33-75 200H0v800h-75l125 167 125-167h-75z"/><glyph unicode="" d="M950 1201h150V901h-50q0 29-8 48.5t-18 30-33.5 15-40 5.5-50.5 1H700V351l100-50V201H400v100l100 50v650H300q-34 0-50.5-1t-39.5-5.5-33.5-15-18.5-30-8-48.5h-50v300h850zM200 101h800v75l167-125-167-125V1H200v-75L33 51l167 125v-75z"/><glyph unicode="" d="M700 950v100q0 21-14.5 35.5T650 1100H50q-21 0-35.5-14.5T0 1050V950q0-20 14.5-35T50 900h600q21 0 35.5 15t14.5 35zm400-300v100q0 21-14.5 35.5T1050 800H50q-21 0-35.5-14.5T0 750V650q0-20 14.5-35T50 600h1000q21 0 35.5 15t14.5 35zM900 350v100q0 21-14.5 35.5T850 500H50q-21 0-35.5-14.5T0 450V350q0-20 14.5-35T50 300h800q21 0 35.5 15t14.5 35zm300-300v100q0 21-14.5 35.5T1150 200H50q-21 0-35.5-14.5T0 150V50q0-20 14.5-35T50 0h1100q21 0 35.5 15t14.5 35z"/><glyph unicode="" d="M1000 950v100q0 21-14.5 35.5T950 1100H250q-21 0-35.5-14.5T200 1050V950q0-20 14.5-35t35.5-15h700q21 0 35.5 15t14.5 35zm200-300v100q0 21-14.5 35.5T1150 800H50q-21 0-35.5-14.5T0 750V650q0-20 14.5-35T50 600h1100q21 0 35.5 15t14.5 35zm-200-300v100q0 21-14.5 35.5T950 500H250q-21 0-35.5-14.5T200 450V350q0-20 14.5-35t35.5-15h700q21 0 35.5 15t14.5 35zm200-300v100q0 21-14.5 35.5T1150 200H50q-21 0-35.5-14.5T0 150V50q0-20 14.5-35T50 0h1100q21 0 35.5 15t14.5 35z"/><glyph unicode="" d="M500 950v100q0 21 14.5 35.5T550 1100h600q21 0 35.5-14.5t14.5-35.5V950q0-20-14.5-35t-35.5-15H550q-21 0-35.5 15T500 950zM100 650v100q0 21 14.5 35.5T150 800h1000q21 0 35.5-14.5T1200 750V650q0-20-14.5-35t-35.5-15H150q-21 0-35.5 15T100 650zm200-300v100q0 21 14.5 35.5T350 500h800q21 0 35.5-14.5T1200 450V350q0-20-14.5-35t-35.5-15H350q-21 0-35.5 15T300 350zM0 50v100q0 21 14.5 35.5T50 200h1100q21 0 35.5-14.5T1200 150V50q0-20-14.5-35T1150 0H50Q29 0 14.5 15T0 50z"/><glyph unicode="" d="M0 950v100q0 21 14.5 35.5T50 1100h1100q21 0 35.5-14.5t14.5-35.5V950q0-20-14.5-35t-35.5-15H50q-21 0-35.5 15T0 950zm0-300v100q0 21 14.5 35.5T50 800h1100q21 0 35.5-14.5T1200 750V650q0-20-14.5-35t-35.5-15H50q-21 0-35.5 15T0 650zm0-300v100q0 21 14.5 35.5T50 500h1100q21 0 35.5-14.5T1200 450V350q0-20-14.5-35t-35.5-15H50q-21 0-35.5 15T0 350zM0 50v100q0 21 14.5 35.5T50 200h1100q21 0 35.5-14.5T1200 150V50q0-20-14.5-35T1150 0H50Q29 0 14.5 15T0 50z"/><glyph unicode="" d="M0 950v100q0 21 14.5 35.5T50 1100h100q21 0 35.5-14.5T200 1050V950q0-20-14.5-35T150 900H50q-21 0-35.5 15T0 950zm300 0v100q0 21 14.5 35.5T350 1100h800q21 0 35.5-14.5t14.5-35.5V950q0-20-14.5-35t-35.5-15H350q-21 0-35.5 15T300 950zM0 650v100q0 21 14.5 35.5T50 800h100q21 0 35.5-14.5T200 750V650q0-20-14.5-35T150 600H50q-21 0-35.5 15T0 650zm300 0v100q0 21 14.5 35.5T350 800h800q21 0 35.5-14.5T1200 750V650q0-20-14.5-35t-35.5-15H350q-21 0-35.5 15T300 650zM0 350v100q0 21 14.5 35.5T50 500h100q21 0 35.5-14.5T200 450V350q0-20-14.5-35T150 300H50q-21 0-35.5 15T0 350zm300 0v100q0 21 14.5 35.5T350 500h800q21 0 35.5-14.5T1200 450V350q0-20-14.5-35t-35.5-15H350q-21 0-35.5 15T300 350zM0 50v100q0 21 14.5 35.5T50 200h100q21 0 35.5-14.5T200 150V50q0-20-14.5-35T150 0H50Q29 0 14.5 15T0 50zm300 0v100q0 21 14.5 35.5T350 200h800q21 0 35.5-14.5T1200 150V50q0-20-14.5-35T1150 0H350q-21 0-35.5 15T300 50z"/><glyph unicode="" d="M400 1100H300V0h100v1100zm300-150v100q0 21-15 35.5t-35 14.5H550q-21 0-35.5-14.5T500 1050V950q0-20 14.5-35t35.5-15h100q20 0 35 15t15 35zm400-300v100q0 21-15 35.5t-35 14.5H550q-21 0-35.5-14.5T500 750V650q0-20 14.5-35t35.5-15h500q20 0 35 15t15 35zM100 425v75h-201v100h201v75l166-125zm800-75v100q0 21-15 35.5T850 500H550q-21 0-35.5-14.5T500 450V350q0-20 14.5-35t35.5-15h300q20 0 35 15t15 35zm300-300v100q0 21-15 35.5t-35 14.5H550q-21 0-35.5-14.5T500 150V50q0-20 14.5-35T550 0h600q20 0 35 15t15 35z"/><glyph unicode="" d="M201 950v100q0 21-15 35.5t-35 14.5H51q-21 0-35.5-14.5T1 1050V950q0-20 14.5-35T51 900h100q20 0 35 15t15 35zm600 150h100V0H801v1100zM601 650v100q0 21-15 35.5T551 800H51q-21 0-35.5-14.5T1 750V650q0-20 14.5-35T51 600h500q20 0 35 15t15 35zm500-225v75h200v100h-200v75L934 550zm-700-75v100q0 21-15 35.5T351 500H51q-21 0-35.5-14.5T1 450V350q0-20 14.5-35T51 300h300q20 0 35 15t15 35zM701 50v100q0 21-15 35.5T651 200H51q-21 0-35.5-14.5T1 150V50q0-20 14.5-35T51 0h600q20 0 35 15t15 35z"/><glyph unicode="" d="M900 925V275q0-31-22-53t-53-22H75q-31 0-53 22T0 275v650q0 31 22 53t53 22h750q31 0 53-22t22-53zm300-625L900 600l300 300V300z"/><glyph unicode="" d="M1200 1056V44q0-18-12.5-31T1156 0H44Q26 0 13 13T0 44v1012q0 18 13 31t31 13h1112q19 0 31.5-13t12.5-31zm-100-56H100V263l247 182 298-131-74 156 293 318 236-288v500zM476 750q0-56-39-95t-95-39-95 39-39 95 39 95 95 39 95-39 39-95z"/><glyph unicode="" d="M600 1213q123 0 227-63t164.5-169.5T1052 751t-73-272q-73-114-166.5-237T662 53l-57-66q-10 9-27 26t-66.5 70.5-96 109-104 135.5T211 483q-63 139-63 262 0 124 60.5 231.5t165 172T600 1213zm-1-699q107 0 182.5 75.5T857 772t-75.5 182-182.5 75-182-75.5T342 772q0-107 75.5-182.5T599 514z"/><glyph unicode="" d="M600 1199q122 0 233-47.5t191-127.5 127.5-191 47.5-233-47.5-233T1024 176 833 48.5 600 1 367 48.5 176 176 48.5 367 1 600t47.5 233T176 1024t191 127.5 233 47.5zm0-1026v854q-176 0-301.5-125T173 600t125.5-302T600 173z"/><glyph unicode="" d="M554 1295q21-71 57.5-142.5t76-130.5 83-118.5 82-117 70-116 50-125.5T991 409q0-89-39-165.5T850 117 710 37.5 554 4q-114 6-211.5 53T181 195.5 117 406q0 94 34 186t88.5 172.5 112 159 115 177T554 1295zm-99-999q-7 6-18 17t-34 48-33 77q-15 73-14 143.5T366 704l9 51q-92-110-119.5-185T243 414q14-82 59.5-136T439 198z"/><glyph unicode="" d="M1108 902l113 113-21 85-92 28-113-113zm-8-277V400q0-165-117.5-282.5T700 0H400Q235 0 117.5 117.5T0 400v300q0 165 117.5 282.5T400 1100q366-6 397-14L611 900H300q-41 0-70.5-29.5T200 800V300q0-41 29.5-70.5T300 200h500q41 0 70.5 29.5T900 300v125zM436 341l161 50 412 412-114 113-405-405z"/><glyph unicode="" d="M1100 453v-53q0-165-117.5-282.5T700 0H400Q235 0 117.5 117.5T0 400v300q0 165 117.5 282.5T400 1100h261l2-80q-133-32-218-120H300q-41 0-70.5-29.5T200 800V300q0-41 29.5-70.5T300 200h500q41 0 70.5 29.5T900 300zm-287-22l360 324-359 318V857q-7 0-19-1t-48-8-69.5-18.5-76.5-37-76.5-59-62-88T423 524q30 38 81.5 64t103 35.5 99 14T784 641l29-1V431z"/><glyph unicode="" d="M1100 569V400q0-165-117.5-282.5T700 0H400Q235 0 117.5 117.5T0 400v300q0 165 117.5 282.5T400 1100h300q60 0 127-23L649 900H300q-41 0-70.5-29.5T200 800V300q0-41 29.5-70.5T300 200h500q41 0 70.5 29.5T900 300v69zM625 348l566 567-136 137-430-431-147 147-136-136z"/><glyph unicode="" d="M900 303v198H700V301h195L600 1 300 301h200v200H300V303L0 603l300 296V701h200v200H300l300 300 295-300H700V701h200v198l300-296z"/><glyph unicode="" d="M900 0L400 488V50q0-21-14.5-35.5T350 0H250q-21 0-35.5 14.5T200 50v1000q0 21 14.5 35.5T250 1100h100q21 0 35.5-14.5T400 1050V613l500 487V0z"/><glyph unicode="" d="M1200 0L700 488V0L200 488V50q0-21-14.5-35.5T150 0H50Q29 0 14.5 14.5T0 50v1000q0 21 14.5 35.5T50 1100h100q21 0 35.5-14.5T200 1050V613l500 487V613l500 487V0z"/><glyph unicode="" d="M1200 0L700 488V0L136 550l564 550V613l500 487V0z"/><glyph unicode="" d="M1100 550l-900 550V0z"/><glyph unicode="" d="M500 150v800q0 21-14.5 35.5T450 1000H250q-21 0-35.5-14.5T200 950V150q0-21 14.5-35.5T250 100h200q21 0 35.5 14.5T500 150zm400 0v800q0 21-14.5 35.5T850 1000H650q-21 0-35.5-14.5T600 950V150q0-21 14.5-35.5T650 100h200q21 0 35.5 14.5T900 150z"/><glyph unicode="" d="M1100 150v800q0 21-14.5 35.5T1050 1000H250q-21 0-35.5-14.5T200 950V150q0-20 14.5-35t35.5-15h800q21 0 35.5 15t14.5 35z"/><glyph unicode="" d="M500 0v488L0 0v1100l500-487v487l564-550z"/><glyph unicode="" d="M1050 1100h100q21 0 35.5-14.5t14.5-35.5V50q0-21-14.5-35.5T1150 0h-100q-21 0-35.5 14.5T1000 50v438L500 0v488L0 0v1100l500-487v487l500-487v437q0 21 14.5 35.5t35.5 14.5z"/><glyph unicode="" d="M850 1100h100q21 0 35.5-14.5t14.5-35.5V50q0-21-14.5-35.5T950 0H850q-21 0-35.5 14.5T800 50v438L300 0v1100l500-487v437q0 21 14.5 35.5T850 1100z"/><glyph unicode="" d="M650 1064L100 500h1100zm550-714V250q0-21-14.5-35.5T1150 200H150q-21 0-35.5 14.5T100 250v100q0 21 14.5 35.5T150 400h1000q21 0 35.5-14.5T1200 350z"/><glyph unicode="" d="M777 7l240 240-353 353 353 353-240 240-592-594z"/><glyph unicode="" d="M513-46L272 194l353 353-353 353 241 240 572-571 21-22-1-1v-1z"/><glyph unicode="" d="M600 1197q162 0 299.5-80T1117 899.5t80-299.5-80-299.5T899.5 83 600 3 300.5 83 83 300.5 3 600t80 299.5T300.5 1117t299.5 80zM500 900V700H300V500h200V300h200v200h200v200H700v200H500z"/><glyph unicode="" d="M600 1197q162 0 299.5-80T1117 899.5t80-299.5-80-299.5T899.5 83 600 3 300.5 83 83 300.5 3 600t80 299.5T300.5 1117t299.5 80zM300 700V500h600v200H300z"/><glyph unicode="" d="M600 1197q162 0 299.5-80T1117 899.5t80-299.5-80-299.5T899.5 83 600 3 300.5 83 83 300.5 3 600t80 299.5T300.5 1117t299.5 80zM247 741l141-141-142-141 213-213 141 142 141-142 213 213-142 141 142 141-213 212-141-141-141 142z"/><glyph unicode="" d="M600 1197q162 0 299.5-80T1117 899.5t80-299.5-80-299.5T899.5 83 600 3 300.5 83 83 300.5 3 600t80 299.5T300.5 1117t299.5 80zm-54-574L444 725 270 551l276-277 411 411-175 174z"/><glyph unicode="" d="M600 1197q162 0 299.5-80T1117 899.5t80-299.5-80-299.5T899.5 83 600 3 300.5 83 83 300.5 3 600t80 299.5T300.5 1117t299.5 80zM500 500h200q5 3 14 8t31.5 25.5T785 579t31 69 14 94q0 51-17.5 89t-42 58-58.5 32-58.5 15-51.5 3q-105 0-172-56t-67-183h144q4 0 11.5-1t11-1 6.5 3 3 9 1 11 3.5 8.5 3.5 6 5.5 4 6.5 2.5 9 1.5 9 .5h24q19 0 30-10t11-26q0-22-4-28t-27-22q-5-1-12.5-3t-27-13.5-34-27-26.5-46-11-68.5zm0-100V300h200v100H500z"/><glyph unicode="" d="M600 1197q162 0 299.5-80T1117 899.5t80-299.5-80-299.5T899.5 83 600 3 300.5 83 83 300.5 3 600t80 299.5T300.5 1117t299.5 80zM500 900V800h200v100H500zM400 700V600h100V400H400V300h400v100H700v300H400z"/><glyph unicode="" d="M1200 700V500H997q-25-102-116.5-186T700 197V0H500v197q-140 27-208 102.5T194 500H0v200h194q15 60 36 104.5t55.5 86 88 69T500 1000v200h200v-200q54-20 113-60t112.5-105.5T997 700h203zM700 500V294q149 48 201 206H700v200h200q-25 74-76 127.5T700 904V700H500v203q-75-24-130-77.5T291 700h209V500H290q24-73 79.5-127.5T500 294v206h200z"/><glyph unicode="" d="M600 1196q162 0 299-80t217-217 80-299-80-299T899 84 600 4 301 84 84 301 4 600t80 299 217 217 299 80zm0-182q-171 0-292.5-121.5T186 600t121.5-292.5T600 186t292.5 121.5T1014 600 892.5 892.5 600 1014zm244-279L709 600l135-135-109-109-135 135-135-135-109 109 135 135-135 135 109 109 135-135 135 135z"/><glyph unicode="" d="M600 1196q162 0 299-80t217-217 80-299-80-299T899 84 600 4 301 84 84 301 4 600t80 299 217 217 299 80zm0-182q-171 0-292.5-121.5T186 600t121.5-292.5T600 186t292.5 121.5T1014 600 892.5 892.5 600 1014zm296-360L550 309 322 537l141 141 87-87 204 205z"/><glyph unicode="" d="M600 1196q162 0 299-80t217-217 80-299-80-299T899 84 600 4 301 84 84 301 4 600t80 299 217 217 299 80zM248 385l568 567q-100 62-216 62-171 0-292.5-121.5T186 600q0-115 62-215zm707 424L391 245q97-59 209-59 171 0 292.5 121.5T1014 600q0 112-59 209z"/><glyph unicode="" d="M1200 400H600V99L0 547l600 453V700h600V400z"/><glyph unicode="" d="M600 400H0v300h600v300l600-453L600 99v301z"/><glyph unicode="" d="M1098 600H800V0H500v600H204l450 600z"/><glyph unicode="" d="M998 600L549 0 104 600h296v600h300V600h298z"/><glyph unicode="" d="M600 199v301q-95-2-183-20t-170-52-147-92.5T0 200q6 132 41 238.5t103.5 193 184 138T600 829v271l600-453z"/><glyph unicode="" d="M1200 1200H800l129-129-294-294 142-142 294 294 129-129v400zM565 423L271 129 400 0H0v400l129-129 294 294z"/><glyph unicode="" d="M871 730l129-130H600v400l129-129 295 295 142-141zM200 600h400V200L471 330 176 35 34 176l295 295z"/><glyph unicode="" d="M600 1177q118 0 224.5-45.5t184-123 123-184T1177 600t-45.5-224.5-123-184-184-123T600 23 375.5 68.5t-184 123-123 184T23 600t45.5 224.5 123 184 184 123T600 1177zm86-628l58 302q4 20-8 34.5T703 900H496q-20 0-32-14.5t-8-34.5l58-302q4-20 21.5-34.5T573 500h54q20 0 37.5 14.5T686 549zm14-149H500V300h200v100z"/><glyph unicode="" d="M1200 900h-111v6l-1 15-3 18-34 172q-11 39-41.5 63t-69.5 24q-32 0-61-17l-239-144q-22-13-40-35-19 24-40 36l-238 144q-33 18-62 18-39 0-69.5-23t-40.5-61l-35-177q-2-8-3-18t-1-15v-6H0V800h100V600h400v300h200V600h400v200h100v100zm-469 0l202 197q5-12 12-32.5t23-64 25-72 7-28.5H731zm-250 0H200q-3 0 14 48t35 96l18 47zM100 0h400v400H100V0zm600 400h400V0H700v400z"/><glyph unicode="" d="M0 121l216 193q-9 53-13 83t-5.5 94 9 113T245 718t74 124q47 60 99.5 102.5t103 68 127.5 48 145.5 37.5 184.5 43.5 220 58.5q0-189-22-343t-59-258-89-181.5-108.5-120-122-68-125.5-30-121.5-1.5T444 210.5t-87.5 17T300 235l-99-55L0-22v143zm692 490q70 38 118.5 69.5t102 79 99 111.5 86.5 148q22 50 24 60t-6 19q-7 5-17 5t-26.5-14.5-33.5-39.5q-35-51-113.5-108.5T786 851l-61-32Q356 622 267 418q-48-111-28.5-117.5T325 377q55 66 367 234z"/><glyph unicode="" d="M1261 600l-26-40q-6-10-20-30t-49-63.5-74.5-85.5-97-90T878 207.5t-132.5-59T600 125t-145.5 23.5-132.5 59T205.5 291t-97 90T34 466.5-15 530t-20 30l-26 40 26 40q6 10 20 30t49 63.5 74.5 85.5 97 90T322 992.5t132.5 59T600 1075t145.5-23.5 132.5-59T994.5 909t97-90 74.5-85.5 49-63.5 20-30zM600 240q64 0 123.5 20T824 305.5t85.5 71.5 66.5 75.5 58 81.5 47 66q-1 1-28.5 37.5t-42 55-43.5 53-57.5 63.5-58.5 54q49-74 49-163 0-124-88-212t-212-88-212 88-88 212q0 85 46 158-102-87-226-258 7-10 40.5-58t56-78.5 68-77.5 87.5-75 103-49.5T600 240zM484 762L377 656q49-124 154-191l105 105q-37 24-75 72t-57 84z"/><glyph unicode="" d="M906 1200L592 0H444l37 143q-82 21-165 71.5t-140 102-109.5 112-72 88.5-29.5 43l-26 40 26 40q6 10 20 30t49 63.5 74.5 85.5 97 90T322 992.5t132.5 59T600 1075q61 0 121-17l37 142h148zm355-600l-26-40q-7-12-25.5-38t-63.5-79.5-95.5-102.5-124-100T780 161l38 145q22 15 44.5 34t46 44 40.5 44 41 50.5 33.5 43.5 33 44 24.5 34q-97 127-140 175l39 146q67-54 131.5-125.5T1199 692t36-52zM513 264l37 141q-107 18-178.5 101.5T300 700q0 85 46 158-102-87-226-258 210-282 393-336zm-29 498L377 656q49-124 154-191l47 47 23 87q-30 28-59 69t-44 68z"/><glyph unicode="" d="M-47 0h1294q37 0 50.5 35.5T1290 103L648 1159q-20 33-48 36t-48-29L-90 100q-21-32-7.5-66T-47 0zm747 200v100H500V200H155l445 723 445-723H700zm0 500H500V600l100-300 100 300v100z"/><glyph unicode="" d="M800 711l363-325q15-14 26-38.5t11-44.5v-41q0-20-12-26.5t-29 5.5L800 490V227q100-91 100-113V50q0-21-13-29t-32 1l-94 78H539l-94-78q-19-9-32-1t-13 29v64q0 22 100 113v263L141 241q-17-12-29-5.5T100 262v41q0 20 11 44.5t26 38.5l363 325v339q0 62 44 106t106 44 106-44 44-106V711z"/><glyph unicode="" d="M941 800L341 200H0v200h259l600 600h241v198l300-295-300-300v197H941zM381 678l141 142-181 180H0V800h259zm719-80l300-295L1100 3v197H859L678 381l141 142 122-123h159v198z"/><glyph unicode="" d="M100 1100h1000q41 0 70.5-29.5t29.5-70.5V400q0-41-29.5-70.5T1100 300H504L200 0v300H100q-41 0-70.5 29.5T0 400v600q0 41 29.5 70.5T100 1100z"/><glyph unicode="" d="M400 900H100v300h300V900zm700 0H800v300h300V900zm0-100V600q0-42-3-83t-15-104-31.5-116-58-109.5-89-96.5-129-65.5T600 0 425.5 25.5 296.5 91t-89 96.5-58 109.5T118 413t-15 104-3 83v200h300V550q0-113 6-145 17-92 102-117 39-11 92-11 37 0 66.5 5.5t50 15.5 36 24 24 31.5 14 37.5 7 42 2.5 45 0 47v275h300z"/><glyph unicode="" d="M902 184l226 227-578 579-580-579 227-227 352 353z"/><glyph unicode="" d="M650 218l578 579-226 227-353-353-352 353L70 797z"/><glyph unicode="" d="M1198 400v600H402l215-200h381V400H800l299-283 299 283h-200zM-198 700l299 283 300-283H198V300h385l215-200H-2v600h-196z"/><glyph unicode="" d="M1050 1200h94q20 0 35-14.5t15-35.5-15-35.5-35-14.5h-54L889 139q-2-4-6-10.5T864 111t-33-11h-31V50q0-20-14.5-35T750 0t-35.5 15T700 50v50H400V50q0-20-14.5-35T350 0t-35.5 15T300 50v50h-50q-21 0-35.5 15T200 150q0 21 14.5 35.5T250 200h535l48 200H200q-32 0-54.5 21T118 464L18 939q-5 24 10 42 14 19 39 19h896l38 162q5 17 18.5 27.5t30.5 10.5z"/><glyph unicode="" d="M1200 1000V900H0v100h200q0 41 29.5 70.5T300 1100h300q41 0 70.5-29.5T700 1000h500zM0 800h1200V0H0v800z"/><glyph unicode="" d="M201 800L1 400v600h200q0 41 29.5 70.5T301 1100h300q41 0 70.5-29.5T701 1000h500V800H201zm1300-100L1201 0H1l300 700h1200z"/><glyph unicode="" d="M302 300h198v600H302l298 300 298-300H700V300h198L600 0z"/><glyph unicode="" d="M900 303v197H300V303L0 600l300 298V700h600v198l300-298z"/><glyph unicode="" d="M31 400l172 739q5 22 23 41.5t38 19.5h672q19 0 37.5-22.5T997 1132l172-732H31zm69-100h1000q41 0 70.5-29.5T1200 200V100q0-41-29.5-70.5T1100 0H100Q59 0 29.5 29.5T0 100v100q0 41 29.5 70.5T100 300zm800-100H800V100h100v100zm200 0h-100V100h100v100z"/><glyph unicode="" d="M1100 200v850q0 21 14.5 35.5t35.5 14.5q20 0 35-14.5t15-35.5V200q0-20-15-35t-35-15q-21 0-35.5 15t-14.5 35zM325 800l675 250V200L325 400h-38l47-276q2-12-3-17.5t-11-6-21-.5h-91q-20 0-34.5 14T155 149Q99 486 99 500v255q0 13 .5 18.5t2.5 13 8 10.5 15 3h200zm-426-200v50q0 24 25 49t50 38l25 13V500l-11 5.5-24 14-30 21.5-24 27.5-11 31.5z"/><glyph unicode="" d="M445 1180l-45-233-224 78 78-225-233-44 179-156L21 445l233-45-78-224 224 78 45-233 155 179L755 21l45 233 224-78-78 224 234 45-180 155 180 156-234 44 78 225-224-78-45 233-155-180z"/><glyph unicode="" d="M700 1200h-50q-27 0-51-20t-38-48l-96-198-145-196q-20-26-20-63V275q0-75 100-75h61q123-100 139-100h250q46 0 83 57l238 344q29 31 29 74v100q0 44-30.5 84.5T1100 800H772q28 118 28 125v150q0 44-30.5 84.5T700 1200zm0-275l-50-225h450V575L850 200H636L500 300H400v375l150 212 100 213h50V925zM0 800V200h200v600H0z"/><glyph unicode="" d="M700 0h-50q-27 0-51 20t-38 48l-96 198-145 196q-20 26-20 63v400q0 75 100 75h61q123 100 139 100h250q46 0 83-57l238-344q29-31 29-74V525q0-44-30.5-84.5T1100 400H772q28-118 28-125V125q0-44-30.5-84.5T700 0zM200 400H0v600h200V400zm500-125l-50 225h450v125l-250 375H636L500 900H400V525l150-212 100-213h50v175z"/><glyph unicode="" d="M364 873l362 230q14 6 25 6 17 0 29-12l109-112q14-14 14-34 0-18-11-32l-85-121h302q85 0 138.5-38t53.5-110-54.5-111-138.5-39h-107L871 161q-7-22-20.5-41.5T822 100H481q-7 0-90 81t-83 94v525q0 17 14 35.5t28 28.5zm44-81V289l100-89h293l131 339q6 21 19.5 41t28.5 20h203q16 0 25 15t9 36q0 20-9 34.5t-25 14.5H712l-6.5.5-6 1-5 1.5-5.5 2.5-4 4-4 5.5q-5 12-5 20 0 14 10 27l147 183-86 83zM208 200H8v600h200V200z"/><glyph unicode="" d="M475 1104l365-230q7-4 16.5-10.5t26-26T899 801V275q0-13-85.5-93.5T720 101H378q-15 0-28.5 20T330 162L199 501H93q-84 0-139 39t-55 111 54 110 139 37h302l-85 121q-11 16-11 32 0 21 14 34l109 113q13 12 29 12 11 0 25-6zM370 946l145-184q10-11 10-26 0-11-5-20-1-3-3.5-5.5l-4-4-5-2.5-5.5-1.5-6.5-1-6.5-.5H-1V601h222q15 0 28.5-20.5T269 540l131-339h293l106 89v502l-342 237zm829-745H999v600h200V201z"/><glyph unicode="" d="M1100 473v342q0 15-20 28.5t-41 19.5L700 994v106q0 84-39 139t-111 55-110-53.5-38-138.5V800l-121 84q-15 12-33.5 11.5T215 882L103 772q-22-22-6-53l230-363q4-6 10.5-15.5t26-25T400 300h525q13 0 94 83t81 90zm-189-73H408L172 739l83 86 183-146q22-18 47-5 3 1 5.5 3.5l4 4 2.5 5 1.5 5.5 1 6.5.5 6V1175q0 22 25 31t50-.5 25-30.5V973q0-16 20-29.5t41-19.5l339-130V500zm89-200V0H400v200h600z"/><glyph unicode="" d="M305 1104v200h600v-200H305zm300-794l339 131q20 6 40.5 19.5T1005 489v342q0 7-81 90t-94 83H305q-17 0-35.5-14T241 962l-10-15L1 585q-15-31 7-53l112-110q13-13 32-13.5t34 10.5l121 85-1-302q0-84 38.5-138T455 10t111 55 39 139v106zm300 494V510L565 380q-20-6-40-20t-20-29V129q0-22-25-31t-50 0-25 31v470.5l-1.5 11.5-5 12-9.5 7q-24 13-46-5L159 479l-83 86 237 339h503z"/><glyph unicode="" d="M603 1195q162 0 299.5-80T1120 897t80-300-80-299.5T902.5 80 603 0 303 80 85 297.5 5 597q0 122 47.5 232.5T180 1020t190.5 127.5T603 1195zm-5-494H300V500h300l-2-194 402 294-402 298V701z"/><glyph unicode="" d="M597 1195q122 0 232.5-47.5T1020 1020t127.5-190.5T1195 597q0-162-80-299.5T897 80 597 0 297.5 80 80 297.5 0 597q0 122 47.5 232.5T175 1020t190.5 127.5T597 1195zM200 600l400-294v194h302v201H602v197z"/><glyph unicode="" d="M603 1195q121 0 231.5-47.5T1025 1020t127.5-190.5T1200 597q0-162-80-299.5T902.5 80 603 0 303 80 85 297.5 5 597q0 122 47.5 232.5T180 1020t190.5 127.5T603 1195zM300 600h200V300h200v300h200l-300 400z"/><glyph unicode="" d="M603 1195q121 0 231.5-47.5T1025 1020t127.5-190.5T1200 597q0-162-80-299.5T902.5 80 603 0 303 80 85 297.5 5 597q0 122 47.5 232.5T180 1020t190.5 127.5T603 1195zM500 900V600H300l300-400 300 400H700v300H500z"/><glyph unicode="" d="M603 1195q121 0 231.5-47.5T1025 1020t127.5-190.5T1200 597q0-162-80-299.5T902.5 80 603 0 303 80 85 297.5 5 597q0 122 47.5 232.5T180 1020t190.5 127.5T603 1195zm24-94q-15-12-36.5-21t-34.5-12-44-8-39-6q-15-3-45.5.5T382 1052q-21-7-52-26.5T296 991q-3-11 6.5-22.5T311 950q-3-34-27.5-90.5T254 780q-8-33 5.5-92.5T267 600q0-9 17-44t16-60q12 0 23-5.5t23-15 20-13.5q24-12 108-42 22-8 53-31.5t59.5-38.5 57.5-11q8-18-15-55t-20-57q42-71 87-80 0-6-3-15.5t-3.5-14.5 4.5-17q102-2 221 112 30 29 47 47t34.5 49 20.5 62q-14 9-37 9.5t-36 7.5q-14 7-49 15t-52 19q-9 0-39.5-.5T757 419t-39-6.5-39-16.5q-50-35-66-12-4 2-3.5 25.5t.5 25.5q-6 13-26.5 17t-24.5 7q2 22-2 41t-16.5 28-38.5-20q-23-25-42 4-19 28-8 58 6 16 22 22 6-1 26-1.5t33.5-4T553 573q12-19 32-37.5t34-27.5l14-8q0 3 9.5 39.5T648 597q-4 23 14.5 44.5T685 673q5 14 10 35t8.5 31 15.5 22.5 34 21.5q-6 18 10 37 8 0 23.5-1.5T811 817t20.5 4.5T852 837q-10 23-30.5 42.5t-38 30-49 26.5-43.5 23q11 41 1 44 31-13 58.5-14.5T790 992l11 4q6 36-17 53.5t-64 28.5-56 23q-19-3-37 0zm-14-107q0-18 8-42.5t16.5-44T647 884q-9 2-31 5t-36 5-32 8-30 14q3 12 16 30t16 25q10-10 18.5-10t14 6 14.5 14.5 16 12.5z"/><glyph unicode="" horiz-adv-x="1220" d="M100 1196h1000q41 0 70.5-29.5t29.5-70.5V996q0-41-29.5-70.5T1100 896H100q-41 0-70.5 29.5T0 996v100q0 41 29.5 70.5T100 1196zm1000-100H900V996h200v100zM100 796h1000q41 0 70.5-29.5T1200 696V596q0-41-29.5-70.5T1100 496H100q-41 0-70.5 29.5T0 596v100q0 41 29.5 70.5T100 796zm1000-100H600V596h500v100zM100 396h1000q41 0 70.5-29.5T1200 296V196q0-41-29.5-70.5T1100 96H100q-41 0-70.5 29.5T0 196v100q0 41 29.5 70.5T100 396zm1000-100H800V196h300v100z"/><glyph unicode="" d="M1100 1200v-100H100v100h1000zm-950-200h900L700 500V200L500 0v500z"/><glyph unicode="" d="M329 729l142 142-200 200 129 129H0V800l129 129zm871 471V800l-129 129-200-200-142 142 200 200-129 129h400zM271 129L400 0H0v400l129-129 200 200 142-142zm800 142l129 129V0H800l129 129-200 200 142 142z"/><glyph unicode="" d="M596 1192q162 0 299-80t217-217 80-299-80-299T895 80 596 0 297 80 80 297 0 596t80 299 217 217 299 80zm0-182q-171 0-292.5-121.5T182 596q0-172 121.5-293T596 182t292.5 121T1010 596q0 171-121.5 292.5T596 1010zM455 905q22 0 38-16t16-39-16-39-38-16q-23 0-39 16.5T400 850t16 38.5 39 16.5zm253-84l1 1q-9 14-9 28 0 22 16 38.5t39 16.5q22 0 38-16t16-39-16-39-38-16q-14 0-29 10l-55-145q17-22 17-51 0-36-25.5-61.5T601 522t-61.5 25.5T514 609q0 32 20.5 56.5T586 695zm147-112q23 0 38.5-15.5T909 655t-16-39-38-16q-23 0-39 16t-16 39q0 22 16 38t39 16zm-510 0q23 0 39-16t16-38q0-23-16-39t-39-16q-22 0-38 16t-16 39 15.5 38.5T345 709z"/><glyph unicode="" d="M649 54l-16 22q-90 125-293 323-71 70-104.5 105.5t-77 89.5-61 99T80 784q0 131 98.5 229.5T409 1112q143 0 241-129 103 129 246 129 129 0 226-98.5t97-229.5q0-46-17.5-91t-61-99-77-89.5T959 399Q756 201 666 76zm195 470l12 12q64 62 97.5 97t64.5 79 31 72q0 71-48 119t-105 48q-74 0-132-82L646 698 532 872q-51 79-123 79-60 0-109.5-49T250 784q0-27 30.5-70t61.5-75.5 95-94.5l22-22q93-90 190-201 82 92 195 203z"/><glyph unicode="" d="M476 406l19-17 105 105-212 212 389 389 247-247-95-96 18-18q46-46 77-99l29 29q35 35 62.5 88t27.5 96q0 93-66 159l-141 141q-66 66-159 66-95 0-159-66L335 865q-66-64-66-159 0-93 66-159zM123 193L264 52q66-66 159-66 95 0 159 66l283 283q66 66 66 159t-66 159L724 794q-12 12-19 17L600 706l212-212-389-389-247 248 95 95-18 18q-46 45-75 101l-55-55q-66-66-66-159 0-94 66-160z"/><glyph unicode="" d="M200 100v953q0 21 30 46t81 48 129 38 163 15 162-15 127-38 79-48 29-46V100q0-41-29.5-70.5T900 0H300q-41 0-70.5 29.5T200 100zm700 900H300V300h600v700zM600 46q43 0 73.5 30.5T704 150t-30.5 73.5T600 254t-73.5-30.5T496 150t30.5-73.5T600 46z"/><glyph unicode="" d="M700 1029V722l64-14q34-7 64-16.5t70-31.5 67.5-52 47.5-80.5 20-112.5q0-139-89-224T700 95V18H600v78q-152 17-237 104-40 40-52.5 93.5T295 433h139q5-77 48.5-126.5T600 242v335l-27 7q-46 14-79 26.5t-72 36-62.5 52-40 72.5-16.5 99q0 92 44 159.5t109 101 144 40.5v78h100v-79q38-4 72.5-13.5T848 1125t71-53.5 51.5-84T995 869H836q-8 72-35 109.5T700 1029zM600 755v274q-61-8-97.5-37.5T466 889q0-29 8-51t16.5-34 29.5-22.5 31-13.5 38-10q7-2 11-3zm100-207V237q170 18 170 151 0 64-44 99.5T700 548z"/><glyph unicode="" d="M866 300l50-147q-41-25-80.5-36.5t-59-13T715 102q-23 0-128 33t-155 29q-39-4-82-17t-66-25l-24-11-55 145 16.5 11 15.5 10 13.5 9.5 14.5 12 14.5 14L297 331q48 55 54 126.5T321 600H100v100h166q-24 49-44 104-10 26-14.5 55.5t-3 72.5 25 90 68.5 87q97 88 263 88 129 0 230-89t101-208H739q0 52-34 89.5t-74 51.5-76 14q-37 0-79-14.5t-62-35.5q-41-44-41-101 0-11 2.5-24.5t5.5-24 9.5-26.5 10.5-25 14-27.5 14-25.5 15.5-27 13.5-24h242V600H503q8-50-2.5-115T469 391q-41-59-99-113 35 11 84 18t70 7q32 1 102-16t104-17q76 0 136 30z"/><glyph unicode="" d="M300 0l298 300H400v900H200V300H2zm600 1200l298-300h-198V0H800v900H602z"/><glyph unicode="" d="M400 300h198L300 0 2 300h198v900h200V300zm600 900V700H900v100H800V700H700v500h300zm-99-100H801V900h100v200zM700 500h300V300h-99V200H801v100h99v100H700v100zm100-400h200V0H700v200h100V100z"/><glyph unicode="" d="M400 300h198L300 0 2 300h198v900h200V300zm600 900v-200h-99V900H801v100h99v100H700v100h300zM800 800h200V700H700v200h100V800zM700 500h300V0H900v100H800V0H700v500zm101-300h100v200H801V200z"/><glyph unicode="" d="M300 0l298 300H400v900H200V300H2zm600 1100H800v100h200V700H900v400zm200-600V0h-100v100H800v400h300zm-99-100H901V200h100v200z"/><glyph unicode="" d="M300 0l298 300H400v900H200V300H2zm800 1200V700h-100v100H800v400h300zm-99-100H901V900h100v200zM900 400H800v100h200V0H900v400z"/><glyph unicode="" d="M300 0l298 300H400v900H200V300H2zm600 1000H700v200h200v-200zm100-300H700v200h300V700zm100-300H700v200h400V400zm100-300H700v200h500V100z"/><glyph unicode="" d="M300 0l298 300H400v900H200V300H2zm900 1000H700v200h500v-200zm-100-300H700v200h400V700zm-100-300H700v200h300V400zM900 100H700v200h200V100z"/><glyph unicode="" d="M400 1100h300q162 0 281-118.5T1100 700V400q0-165-118.5-282.5T700 0H400Q235 0 117.5 117.5T0 400v300q0 165 117.5 282.5T400 1100zm400-200H300q-41 0-70.5-29.5T200 800V300q0-41 29.5-70.5T300 200h500q41 0 70.5 29.5T900 300v500q0 41-29.5 70.5T800 900z"/><glyph unicode="" d="M700 0H400Q237 0 118.5 117.5T0 400v300q0 163 119 281.5T400 1100h300q165 0 282.5-117.5T1100 700V400q0-165-117.5-282.5T700 0zm100 900H300q-41 0-70.5-29.5T200 800V300q0-41 29.5-70.5T300 200h500q41 0 70.5 29.5T900 300v500q0 41-29.5 70.5T800 900zM400 800V300l333 250z"/><glyph unicode="" d="M0 400v300q0 163 117.5 281.5T400 1100h300q163 0 281.5-119T1100 700V400q0-165-117.5-282.5T700 0H400Q235 0 117.5 117.5T0 400zm900-100v500q0 41-29.5 70.5T800 900H300q-41 0-70.5-29.5T200 800V300q0-41 29.5-70.5T300 200h500q41 0 70.5 29.5T900 300zM800 700H300l250-333z"/><glyph unicode="" d="M1100 700V400q0-162-118.5-281T700 0H400Q235 0 117.5 118.5T0 400v300q0 165 117.5 282.5T400 1100h300q165 0 282.5-117.5T1100 700zM900 300v500q0 41-29.5 70.5T800 900H300q-41 0-70.5-29.5T200 800V300q0-41 29.5-70.5T300 200h500q41 0 70.5 29.5T900 300zM550 733L300 400h500z"/><glyph unicode="" d="M500 1100h400q165 0 282.5-117.5T1300 700V400q0-165-117.5-282.5T900 0H500v200h500q41 0 70.5 29.5T1100 300v500q0 41-29.5 70.5T1000 900H500v200zm200-550L300 200v200H0v300h300v200z"/><glyph unicode="" d="M403 2l9-1q13 0 26 16l538 630q15 19 6 36-8 18-32 16H650q1 4 78 219.5t79 227.5q2 17-6 27l-8 8h-9q-16 0-25-15-4-5-98.5-111.5t-228-257T223 559q-17-19-7-40 10-19 32-19h302Q395 62 390 42q-5-21 4-32z"/><glyph unicode="" d="M800 200H300q-41 0-70.5 29.5T200 300v500q0 41 29.5 70.5T300 900h500v185q-14 4-114 7.5t-193 5.5l-93 2q-165 0-282.5-117.5T0 700V400q0-165 117.5-282.5T400 0h300q47 0 100 15v185zm100 0v200H600v300h300v200l400-350z"/><glyph unicode="" d="M1200 700l-149 149-342-353-213 213 353 342-149 149h500V700zm-178-129L900 448V300q0-41-29.5-70.5T800 200H300q-41 0-70.5 29.5T200 300v500q0 41 29.5 70.5T300 900h156l118 122-74 78H400q-165 0-282.5-117.5T0 700V400q0-165 117.5-282.5T400 0h300q163 0 281.5 117.5T1100 400v98z"/><glyph unicode="" d="M600 1196q162 0 299-80t217-217 80-299-80-299T899 84 600 4 301 84 84 301 4 600t80 299 217 217 299 80zm0-182q-171 0-292.5-121.5T186 600t121.5-292.5T600 186t292.5 121.5T1014 600 892.5 892.5 600 1014zm0-220q80 0 137-57t57-137-57-137-137-57-137 57-57 137 57 137 137 57z"/><glyph unicode="" d="M700 800v400H400V800H100l445-500 450 500H700zM25 300h1048q11 0 19-7.5t8-17.5V0H0v275q0 11 7 18t18 7zm975-100H900v-50h100v50z"/><glyph unicode="" d="M400 700V400h300v300h295l-445 500-450-500h300zM25 300h1048q11 0 19-7.5t8-17.5V0H0v275q0 11 7 18t18 7zm975-100H900v-50h100v50z"/><glyph unicode="" d="M405 400l596 596-154 155-442-442-150 151-155-155zM25 300h1048q11 0 19-7.5t8-17.5V0H0v275q0 11 7 18t18 7zm975-100H900v-50h100v50z"/><glyph unicode="" d="M409 1103l-97 97-212-212 97-98zm241-242l-149 149-212-212 149-149-238-248h700v699zM25 300h1048q11 0 19-7.5t8-17.5V0H0v275q0 11 7 18t18 7zm975-100H900v-50h100v50z"/><glyph unicode="" d="M539 950L390 801l212-212 149 148 248-237v700H300zM297 709l-97-97 212-212 98 97zM25 300h1048q11 0 19-7.5t8-17.5V0H0v275q0 11 7 18t18 7zm975-100H900v-50h100v50z"/><glyph unicode="" d="M1200 1199V120L725 392 415-1v416H23zm-34-51L494 436V210z"/><glyph unicode="" d="M1100 1000V150q0-21-15-35.5t-35-14.5H900v400H200V100H50q-21 0-35.5 14.5T0 150v1000q0 20 14.5 35t35.5 15h250V900h500v300h100zm-400 200H600v-200h100v200z"/><glyph unicode="" d="M578 500H200V100H50q-21 0-35.5 14.5T0 150v1000q0 20 14.5 35t35.5 15h250V900h500v300h100l200-200V782L824 507 704 627zm122 700H600v-200h100v200zm600-662L825 62 581 306l123 123 120-120 353 352z"/><glyph unicode="" d="M529 500H200V100H50q-21 0-35.5 14.5T0 150v1000q0 20 14.5 35t35.5 15h250V900h500v300h100l200-200V731L997 628 827 798zm171 700H600v-200h100v200zM1167 6L997 176 827 6 700 133l170 170-170 170 127 127 170-170 170 170 127-128-170-169 170-170z"/><glyph unicode="" d="M700 500H200V100H50q-21 0-35.5 14.5T0 150v1000q0 20 14.5 35t35.5 15h250V900h500v300h100l200-200V700H700V500zm0 500H600v200h100v-200zm300-400H800V300H600L900 0l300 300h-200v300z"/><glyph unicode="" d="M602 500H200V100H50q-21 0-35.5 14.5T0 150v1000q0 20 14.5 35t35.5 15h250V900h500v300h100l200-200V598L900 798zm98 500H600v200h100v-200zm300-700h200L900 600 600 300h200V0h200v300z"/><glyph unicode="" d="M1200 900v150q0 21-14.5 35.5T1150 1100H50q-21 0-35.5-14.5T0 1050V900h1200zM0 800V250q0-21 14.5-35.5T50 200h1100q21 0 35.5 14.5T1200 250v550H0zm100-300h400V300H100v200z"/><glyph unicode="" d="M500 1000h400v198l300-298-300-298v198H500v200zM100 800v200h100V800H100zm300 0H300v200h100V800zm300-500H300V102L0 400l300 298V500h400V300zm100 200h100V300H800v200zm200 0V300h100v200h-100z"/><glyph unicode="" d="M1200 50v1106q0 31-18 40.5t-44-7.5l-276-117q-25-16-43.5-50.5T800 956V597q0-29 10.5-55.5t25-43 29-28.5 25.5-18l10-5V50q0-21 14.5-35.5T950 0h200q21 0 35.5 14.5T1200 50zM550 1200l50-100V700L500 497V50q0-21-14.5-35.5T450 0H250q-21 0-35.5 14.5T200 50v447L100 700v400l50 100 50-100V800h100v300l50 100 50-100V800h100v300z"/><glyph unicode="" d="M1100 106v888q0 22 25 34.5t50 13.5l25 2v56H800v-56q75 0 87.5-6t12.5-44V600H400v394q0 38 12.5 44t87.5 6v56H100v-56q4 0 11-.5t24-3 30-7 24-15 11-24.5V106q0-22-25-34.5T125 58l-25-2V0h400v56q-75 0-87.5 6T400 106v394h500V106q0-38-12.5-44T800 56V0h400v56q-4 0-11 .5t-24 3-30 7-24 15-11 24.5z"/><glyph unicode="" d="M675 1000l-100 100H200l-100-100h400l200-200v-98l295 98h105v200H675zM500 300v500q0 41-29.5 70.5T400 900H100q-41 0-70.5-29.5T0 800V300q0-41 29.5-70.5T100 200h300q41 0 70.5 29.5T500 300zM100 800h300V600H100v200zm600-235l400 133V535L700 402v163zm-600-65h300V300H100v200zm705-200l295 98V100H675L575 0H200L100 100h400l200 200h105z"/><glyph unicode="" d="M179 1169L17 1007q-1-11-.5-32.5t16-90 46.5-140T183 567t175-208q103-103 207.5-176t180-103.5 137-47T975 16l31 1 163 162q16 17 13 40.5t-22 37.5L968 393q-19 14-45 12t-42-19L762 268Q619 371 495 495 369 621 268 763l118 118q17 17 20 41.5T395 967l-139 194q-14 19-36.5 22t-40.5-14z"/><glyph unicode="" d="M1200 712v200q-6 8-19 20.5t-63 45-112 57-171 45-235 20.5q-92 0-175-10.5t-141.5-27T175 1026t-81.5-40T40 949.5 9 922l-9-10V712q0-21 14.5-33.5T49 670l202 33q20 4 34.5 21t14.5 38v146q141 24 300 24t300-24V762q0-21 14.5-38t34.5-21l202-33q20-4 34.5 8.5T1200 712zm-400-62l365-303q14-14 24.5-39.5T1200 262V50q0-21-15-35.5T1150 0H50Q29 0 14.5 14.5T0 50v212q0 20 10.5 45.5T35 347l365 303v50q0 4 1 10.5t12 22.5 30 28.5 60 23 97 10.5 97-10 60-23.5 30-27.5 12-24l1-10v-50z"/><glyph unicode="" d="M175 200h950l-125 150v250l100 100v400h-100V900H900v200H700V900H600v200H400V900H300v200H200V700l100-100V350zm1025-100V0H100v100h1100z"/><glyph unicode="" d="M600 1100h100q41 0 70.5-29.5T800 1000V0H500v1000q0 41 29.5 70.5T600 1100zm400-300h100q41 0 70.5-29.5T1200 700V0H900v700q0 41 29.5 70.5T1000 800zM400 0v400q0 41-29.5 70.5T300 500H200q-41 0-70.5-29.5T100 400V0h300z"/><glyph unicode="" d="M1200 800V300q0-124-88-212T900 0H200Q76 0-12 88t-88 212v500q0 124 88 212t212 88h700q124 0 212-88t88-212zm-200 100H100V200h900v700zM200 800V500h200V400H200V300h300v300H300v100h200v100H200zm600 0H600V300h200v100h100v300H800v100zm0-100V400H700v300h100z"/><glyph unicode="" d="M1200 800V300q0-124-88-212T900 0H200Q76 0-12 88t-88 212v500q0 124 88 212t212 88h700q124 0 212-88t88-212zm-200 100H100V200h900v700zM400 600H300v200H200V300h100v200h100V300h100v500H400V600zm400 200H600V300h200v100h100v300H800v100zm0-100V400H700v300h100z"/><glyph unicode="" d="M1200 800V300q0-124-88-212T900 0H200Q76 0-12 88t-88 212v500q0 124 88 212t212 88h700q124 0 212-88t88-212zm-200 100H100V200h900v700zM200 800V300h300v100H300v300h200v100H200zm400 0V300h300v100H700v300h200v100H600z"/><glyph unicode="" d="M1200 800V300q0-124-88-212T900 0H200Q76 0-12 88t-88 212v500q0 124 88 212t212 88h700q124 0 212-88t88-212zm-200 100H100V200h900v700zM500 700L200 550l300-150v300zm100-300l300 150-300 150V400z"/><glyph unicode="" d="M1200 800V300q0-124-88-212T900 0H200Q76 0-12 88t-88 212v500q0 124 88 212t212 88h700q124 0 212-88t88-212zm-200 100H100V200h900v700zM900 800V300H200v500h700zM300 400h130q41 0 68 42t27 107-28.5 108-66.5 43H300V400zm500 300H670q-38 0-66.5-43T575 549t27-107 68-42h130v300z"/><glyph unicode="" d="M1200 800V300q0-124-88-212T900 0H200Q76 0-12 88t-88 212v500q0 124 88 212t212 88h700q124 0 212-88t88-212zm-200 100H100V200h900v700zM200 800V500h200V400H200V300h300v300H300v100h200v100H200zm600-500h100v500H700V700h100V300zm-199 0h100v100H601V300z"/><glyph unicode="" d="M1200 800V300q0-124-88-212T900 0H200Q76 0-12 88t-88 212v500q0 124 88 212t212 88h700q124 0 212-88t88-212zm-200 100H100V200h900v700zM300 700v100H200V300h300v400H300zm500-400h100v500H700V700h100V300zM401 400H301v200h100V400zm200-100h100v100H601V300z"/><glyph unicode="" d="M200 1100h700q124 0 212-88t88-212V300q0-124-88-212T900 0H200Q76 0-12 88t-88 212v500q0 124 88 212t212 88zm800-200H100V200h900v700zM400 700H200v100h300V500h-99V400H301v100h99v200zm400 0H700v100h200V300H800v400zM201 400h100V300H201v100zm500-100H601v100h100V300z"/><glyph unicode="" d="M600 1196q162 0 299-80t217-217 80-299-80-299T899 84 600 4 301 84 84 301 4 600t80 299 217 217 299 80zm0-182q-171 0-292.5-121.5T186 600t121.5-292.5T600 186t292.5 121.5T1014 600 892.5 892.5 600 1014zm200-314H500V500h300V400H500L400 500v200l100 100h300V700z"/><glyph unicode="" d="M596 1196q162 0 299-80t217-217 80-299-80-299T895 84 596 4 297 84 80 301 0 600t80 299 217 217 299 80zm0-182q-171 0-292.5-121.5T182 600t121.5-292.5T596 186t292.5 121.5T1010 600 888.5 892.5 596 1014zm204-314V600H700v100H500V600h200V500H500V400H400v400h300zm0-300H700v100h100V400z"/><glyph unicode="" d="M800 300h128q120 0 205 86t85 208q0 120-85 206.5T928 887q-46 0-90-14-44 97-134.5 156.5T503 1089q-152 0-260-107.5T135 721q0-25 2-37-66-14-108.5-67.5T-14 494q0-80 56.5-137T178 300h222v300h400V300zM700 200h200L600-100 300 200h200v300h200V200z"/><glyph unicode="" d="M600 714l403-403q94 26 154.5 104t60.5 178q0 121-85 207.5T928 887q-46 0-90-14-44 97-134.5 156.5T503 1089q-152 0-260-107.5T135 721q0-25 2-37-66-14-108.5-67.5T-14 494q0-80 56.5-137T178 300h8zm100-814H500v300H300l300 300 300-300H700v-300z"/><glyph unicode="" d="M700 200h400L830 500h170L730 800h170l-300 333-300-333h170L200 500h170L100 200h400V45L425 0h350l-75 45v155z"/><glyph unicode="" d="M700 45v306q46-30 100-30 74 0 126.5 52.5T979 500q0 24-9 55 50 32 79.5 83t29.5 112q0 90-61.5 155.5T867 977q-26 89-99.5 145.5T600 1179q-116 0-197.5-81.5T321 900q0-4 1-12t1-11q-14 2-23 2-74 0-126.5-52.5T121 700q0-53 28.5-97t75.5-65q-4-16-4-38 0-74 52.5-126.5T400 321q56 0 100 30V45L425 0h350z"/><glyph unicode="💼" d="M800 1000h300q41 0 70.5-29.5T1200 900V500H700v100H500V500H0v400q0 41 29.5 70.5T100 1000h300v100q0 41 29.5 70.5T500 1200h200q41 0 70.5-29.5T800 1100v-100zm-300 0h200v100H500v-100zm700-600V200q0-41-29.5-70.5T1100 100H100q-41 0-70.5 29.5T0 200v200h1200z"/><glyph unicode="📅" d="M1100 900v150q0 21-14.5 35.5T1050 1100H900v100H800v-100H300v100H200v-100H50q-21 0-35.5-14.5T0 1050V900h1100zM0 800V50q0-20 14.5-35T50 0h1000q21 0 35.5 15t14.5 35v750H0zm100-200h100V500H100v100zm200 0h100V500H300v100zm200 0h100V500H500v100zm200 0h100V500H700v100zm200 0h100V500H900v100zM100 400h100V300H100v100zm200 0h100V300H300v100zm200 0h100V300H500v100zm200 0h100V300H700v100zm200 0h100V300H900v100zM100 200h100V100H100v100zm200 0h100V100H300v100zm200 0h100V100H500v100zm200 0h100V100H700v100zm200 0h100V100H900v100z"/><glyph unicode="📌" d="M902 1185l283-282q15-15 15-36t-15-35q-14-15-35-15t-35 15l-36 35-279-267V300L588 510 380 303 0 0l303 380 207 208-210 212h300l267 279-35 36q-15 14-15 35t15 35q14 15 35 15t35-15z"/><glyph unicode="📎" d="M518 119l69-60 517 511q67 67 95 157t11 183q-16 87-67 154t-130 103q-69 33-152 33-107 0-197-55-40-24-111-95L41 538q-68-68-81-163t35-173q35-57 94-89t129-32q63 0 119 28 33 16 65 40.5t52.5 45.5 59.5 64q40 44 57 61l394 394q35 35 47 84t-3 96q-27 87-117 104-20 2-29 2-46 0-79.5-17T716 932L328 536l-7-7 69-67 377 373q20 22 39 38 23 23 50 23 38 0 53-36 16-39-20-75L342 238q-52-52-125-52-55 0-100 33t-54 96q-5 35 2.5 66T97 444t42 50 56 54q24 21 44 41l348 348q52 52 82.5 79.5t84 54T861 1097q25 0 48-4 95-17 154-94.5t51-175.5q-7-101-98-192L764 382 511 126z"/><glyph unicode="📷" d="M1200 200v600q0 41-29.5 70.5T1100 900H950q-4 8-11.5 21.5t-33 48-53 61-69 48T700 1100H500q-41 0-82-20.5t-70-50-52-59-34-50.5l-12-20H100q-41 0-70.5-29.5T0 800V200q0-41 29.5-70.5T100 100h1000q41 0 70.5 29.5T1200 200zm-200 500H900v100h100V700zM844 500q0-100-72-172t-172-72-172 72-72 172 72 172 172 72 172-72 72-172zm-138 0q0 44-31 75t-75 31-75-31-31-75 31-75 75-31 75 31 31 75z"/><glyph unicode="🔒" d="M900 800h100q41 0 70.5-29.5T1100 700V100q0-41-29.5-70.5T1000 0H100Q59 0 29.5 29.5T0 100v600q0 41 29.5 70.5T100 800h100v200q0 82 59 141t141 59h300q82 0 141-59t59-141V800zm-500 0h300v150q0 21-14.5 35.5T650 1000H450q-21 0-35.5-14.5T400 950V800z"/><glyph unicode="🔔" d="M1062 400h17q20 0 33.5-14.5T1126 350q0-20-13-40t-31-27q-22-9-63-23t-167.5-37T600 200t-245.5 20.5T176 262l-58 20q-18 7-31 27.5T74 350q0 21 13.5 35.5T121 400h17l118 173 63 327q15 77 76 140t144 83l-18 32q-6 19 3 32t29 13h94q20 0 29-10.5t3-29.5l-18-37q83-19 144-82.5T881 900l63-327zM600 104q-54 0-103 6 12-49 40-79.5T600 0t63 30.5 39 79.5q-48-6-102-6z"/><glyph unicode="🔖" d="M200 0l450 444L1100 1v1150q0 20-14.5 35t-35.5 15H250q-21 0-35.5-15t-14.5-35V0z"/><glyph unicode="🔥" d="M400 755q2-12 8-41.5t8-43 6-39.5 3.5-39.5-1-33.5-6-31.5-13.5-24-21-20.5-31-12q-38-10-67 13t-40.5 61.5-15 81.5 10.5 75q-52-46-83.5-101t-39-107-7.5-85 5-63q9-56 44-119.5T265 117q31-21 64-16t62 23.5 57 49.5 48 61.5 35 60.5q32 66 39 184.5T557 638q79-80 122-164t26-184q-5-33-20.5-69.5T647 140q-10-19-14.5-29t-12-26-9-23.5-3-19T611 27t11-9.5 19.5-5T672 15t42 8q57 20 91 34t87.5 44.5 87 64T1045 254t47 122q38 172-44.5 341.5T801 996q22-44 43-129 39-159-32-154-15 2-33 9-79 33-120.5 100t-44 175.5T663 1255q-13-8-34-23.5t-72.5-66.5-88.5-105.5-60-138-8-166.5z"/><glyph unicode="🔧" d="M948 778l251 126q13-175-151-267-123-70-253-23L199 18Q184 2 162.5 2T126 18L15 128Q0 143 0 164.5T15 202l600 599q-33 101 6 201.5T756 1157q164 92 306-9l-259-138z"/></font>
</defs>
</svg>
